G04 #@! TF.GenerationSoftware,KiCad,Pcbnew,7.0.7*
G04 #@! TF.CreationDate,2024-02-23T22:46:56+01:00*
G04 #@! TF.ProjectId,SL_USB-TypeC-Breakout,534c5f55-5342-42d5-9479-7065432d4272,v1.0*
G04 #@! TF.SameCoordinates,Original*
G04 #@! TF.FileFunction,Profile,NP*
%FSLAX46Y46*%
G04 Gerber Fmt 4.6, Leading zero omitted, Abs format (unit mm)*
G04 Created by KiCad (PCBNEW 7.0.7) date 2024-02-23 22:46:56*
%MOMM*%
%LPD*%
G01*
G04 APERTURE LIST*
G04 #@! TA.AperFunction,Profile*
%ADD10C,0.100000*%
G04 #@! TD*
G04 APERTURE END LIST*
D10*
X103850000Y-62466250D02*
X106850000Y-62466250D01*
X90850000Y-49466300D02*
G75*
G03*
X90350000Y-49966250I0J-500000D01*
G01*
X103850000Y-59366250D02*
X106850000Y-59366250D01*
X107350000Y-68966250D02*
X107350000Y-62966250D01*
X93850000Y-62466250D02*
G75*
G03*
X93850000Y-59366250I0J1550000D01*
G01*
X103350000Y-49966250D02*
X103850000Y-49466250D01*
X90349950Y-68966250D02*
G75*
G03*
X90850000Y-69466250I500050J50D01*
G01*
X90850000Y-62466300D02*
G75*
G03*
X90350000Y-62966250I0J-500000D01*
G01*
X107350000Y-49966250D02*
X107350000Y-58966250D01*
X90350000Y-58966250D02*
X90350000Y-49966250D01*
X106850000Y-69466200D02*
G75*
G03*
X107350000Y-68966250I0J500000D01*
G01*
X103850000Y-49466250D02*
X106850000Y-49466250D01*
X90350000Y-62966250D02*
X90350000Y-68966250D01*
X90850000Y-49466250D02*
X93850000Y-49466250D01*
X93850000Y-62466250D02*
X90850000Y-62466250D01*
X90850000Y-69466250D02*
X98850000Y-69466250D01*
X93850000Y-49466250D02*
X94350000Y-49966250D01*
X93850000Y-59366250D02*
X90850000Y-59366250D01*
X98850000Y-69466250D02*
X106850000Y-69466250D01*
X107350050Y-49966250D02*
G75*
G03*
X106850000Y-49466250I-500050J-50D01*
G01*
X94350000Y-49966250D02*
X103350000Y-49966250D01*
X90349959Y-58966256D02*
G75*
G03*
X90850000Y-59366250I468441J73056D01*
G01*
X106849996Y-59366313D02*
G75*
G03*
X107349999Y-58966250I33504J470613D01*
G01*
X103850000Y-59366250D02*
G75*
G03*
X103850000Y-62466250I0J-1550000D01*
G01*
X107350050Y-62966250D02*
G75*
G03*
X106850000Y-62466250I-500050J-50D01*
G01*
M02*
