G04 #@! TF.GenerationSoftware,KiCad,Pcbnew,7.0.7*
G04 #@! TF.CreationDate,2024-02-23T23:35:20+01:00*
G04 #@! TF.ProjectId,SL_USB-TypeC-Breakout,534c5f55-5342-42d5-9479-7065432d4272,v1.0*
G04 #@! TF.SameCoordinates,Original*
G04 #@! TF.FileFunction,Copper,L2,Bot*
G04 #@! TF.FilePolarity,Positive*
%FSLAX46Y46*%
G04 Gerber Fmt 4.6, Leading zero omitted, Abs format (unit mm)*
G04 Created by KiCad (PCBNEW 7.0.7) date 2024-02-23 23:35:20*
%MOMM*%
%LPD*%
G01*
G04 APERTURE LIST*
G04 #@! TA.AperFunction,ComponentPad*
%ADD10C,2.000000*%
G04 #@! TD*
G04 #@! TA.AperFunction,ComponentPad*
%ADD11R,1.700000X1.700000*%
G04 #@! TD*
G04 #@! TA.AperFunction,ComponentPad*
%ADD12O,1.700000X1.700000*%
G04 #@! TD*
G04 #@! TA.AperFunction,ComponentPad*
%ADD13O,1.000000X2.100000*%
G04 #@! TD*
G04 #@! TA.AperFunction,ComponentPad*
%ADD14O,1.000000X1.800000*%
G04 #@! TD*
G04 #@! TA.AperFunction,ViaPad*
%ADD15C,0.800000*%
G04 #@! TD*
G04 #@! TA.AperFunction,Conductor*
%ADD16C,0.200000*%
G04 #@! TD*
G04 #@! TA.AperFunction,Conductor*
%ADD17C,0.250000*%
G04 #@! TD*
G04 APERTURE END LIST*
D10*
X92350000Y-55466250D03*
D11*
X97600000Y-63000000D03*
D12*
X100140000Y-63000000D03*
D10*
X105350000Y-55466250D03*
D11*
X92450000Y-67533750D03*
D12*
X94990000Y-67533750D03*
X97530000Y-67533750D03*
X100070000Y-67533750D03*
X102610000Y-67533750D03*
X105150000Y-67533750D03*
D13*
X103150000Y-55146250D03*
D14*
X103150000Y-50966250D03*
D13*
X94510000Y-55146250D03*
D14*
X94510000Y-50966250D03*
D15*
X98999500Y-59899482D03*
X98324500Y-61500000D03*
X94600000Y-66300000D03*
X101400000Y-66500000D03*
X91200000Y-58500000D03*
X101400000Y-68700000D03*
X91100000Y-63400000D03*
X106600000Y-63400000D03*
X106600000Y-58500000D03*
X99174003Y-61500000D03*
X99855814Y-56882401D03*
X91200000Y-53700000D03*
X96875500Y-56895752D03*
X106400000Y-53700000D03*
D16*
X98400518Y-59899482D02*
X93840000Y-64460000D01*
X98999500Y-59899482D02*
X98400518Y-59899482D01*
X94513654Y-68683750D02*
X98920000Y-68683750D01*
X98920000Y-68683750D02*
X100070000Y-67533750D01*
X93840000Y-64460000D02*
X93840000Y-68010096D01*
X93840000Y-68010096D02*
X94513654Y-68683750D01*
X102610000Y-63810000D02*
X102610000Y-67533750D01*
X99600000Y-60800000D02*
X102610000Y-63810000D01*
X98324500Y-61500000D02*
X98324500Y-61359553D01*
X98324500Y-61359553D02*
X98884053Y-60800000D01*
X98884053Y-60800000D02*
X99600000Y-60800000D01*
D17*
X101400000Y-68700000D02*
X101400000Y-66500000D01*
X91200000Y-53700000D02*
X93130476Y-53700000D01*
X99174003Y-61925997D02*
X98775000Y-62325000D01*
X99117463Y-57620752D02*
X99855814Y-56882401D01*
X95267776Y-57620752D02*
X99117463Y-57620752D01*
X93130476Y-53700000D02*
X93685000Y-54254524D01*
X98775000Y-64175000D02*
X95416250Y-67533750D01*
X93685000Y-56037976D02*
X95267776Y-57620752D01*
X98775000Y-62325000D02*
X98775000Y-64175000D01*
X95416250Y-67533750D02*
X94990000Y-67533750D01*
X99174003Y-61500000D02*
X99174003Y-61925997D01*
X93685000Y-54254524D02*
X93685000Y-56037976D01*
X101000000Y-57000000D02*
X100157401Y-56157401D01*
X105242417Y-53700000D02*
X104025000Y-54917417D01*
X103100000Y-57000000D02*
X101000000Y-57000000D01*
X97613851Y-56157401D02*
X96875500Y-56895752D01*
X104025000Y-56075000D02*
X103100000Y-57000000D01*
X104025000Y-54917417D02*
X104025000Y-56075000D01*
X106400000Y-53700000D02*
X105242417Y-53700000D01*
X100157401Y-56157401D02*
X97613851Y-56157401D01*
G04 #@! TA.AperFunction,Conductor*
G36*
X92869550Y-62486435D02*
G01*
X92870916Y-62487325D01*
X92941910Y-62534294D01*
X93187176Y-62649270D01*
X93187183Y-62649272D01*
X93187185Y-62649273D01*
X93446557Y-62727307D01*
X93446564Y-62727308D01*
X93446569Y-62727310D01*
X93714561Y-62766750D01*
X93714566Y-62766750D01*
X93917636Y-62766750D01*
X93969133Y-62762980D01*
X94120156Y-62751927D01*
X94232758Y-62726843D01*
X94384546Y-62693032D01*
X94384549Y-62693030D01*
X94384553Y-62693030D01*
X94427286Y-62676685D01*
X94496934Y-62671122D01*
X94558533Y-62704096D01*
X94592527Y-62765138D01*
X94588122Y-62834869D01*
X94559265Y-62880184D01*
X93440801Y-63998649D01*
X93434698Y-64004000D01*
X93406013Y-64026012D01*
X93381522Y-64057929D01*
X93308476Y-64153123D01*
X93308475Y-64153125D01*
X93273238Y-64238197D01*
X93266266Y-64255030D01*
X93247162Y-64301150D01*
X93236672Y-64380834D01*
X93230957Y-64424241D01*
X93230955Y-64424254D01*
X93226250Y-64460000D01*
X93230969Y-64495843D01*
X93231500Y-64503945D01*
X93231500Y-66051250D01*
X93211815Y-66118289D01*
X93159011Y-66164044D01*
X93107500Y-66175250D01*
X91551345Y-66175250D01*
X91490797Y-66181761D01*
X91490795Y-66181761D01*
X91353795Y-66232861D01*
X91236739Y-66320489D01*
X91149111Y-66437545D01*
X91098011Y-66574545D01*
X91098011Y-66574547D01*
X91091500Y-66635095D01*
X91091500Y-68432404D01*
X91098011Y-68492952D01*
X91098011Y-68492954D01*
X91149110Y-68629954D01*
X91149111Y-68629954D01*
X91236739Y-68747011D01*
X91353796Y-68834639D01*
X91490799Y-68885739D01*
X91518050Y-68888668D01*
X91551345Y-68892249D01*
X91551362Y-68892250D01*
X93348638Y-68892250D01*
X93348654Y-68892249D01*
X93375692Y-68889341D01*
X93409201Y-68885739D01*
X93546204Y-68834639D01*
X93607616Y-68788666D01*
X93673078Y-68764249D01*
X93741352Y-68779100D01*
X93769607Y-68800252D01*
X94052309Y-69082954D01*
X94057650Y-69089044D01*
X94063492Y-69096657D01*
X94079664Y-69117734D01*
X94079665Y-69117735D01*
X94079667Y-69117737D01*
X94095814Y-69130127D01*
X94109938Y-69140965D01*
X94109962Y-69140985D01*
X94172140Y-69188695D01*
X94206778Y-69215274D01*
X94206780Y-69215274D01*
X94206782Y-69215276D01*
X94235542Y-69227189D01*
X94289946Y-69271030D01*
X94312011Y-69337324D01*
X94294732Y-69405023D01*
X94243595Y-69452634D01*
X94188090Y-69465750D01*
X90853482Y-69465750D01*
X90846542Y-69465360D01*
X90824180Y-69462841D01*
X90743921Y-69452243D01*
X90719205Y-69446354D01*
X90696239Y-69438318D01*
X90686110Y-69434774D01*
X90682864Y-69433536D01*
X90627552Y-69410626D01*
X90609034Y-69401060D01*
X90574928Y-69379631D01*
X90570169Y-69376321D01*
X90521516Y-69338992D01*
X90515412Y-69333639D01*
X90482591Y-69300821D01*
X90477239Y-69294718D01*
X90439900Y-69246064D01*
X90436595Y-69241312D01*
X90415162Y-69207208D01*
X90405597Y-69188695D01*
X90383772Y-69136017D01*
X90382674Y-69133366D01*
X90381446Y-69130151D01*
X90369872Y-69097084D01*
X90363975Y-69072328D01*
X90353123Y-68989962D01*
X90350891Y-68970164D01*
X90350500Y-68963212D01*
X90350500Y-62969734D01*
X90350891Y-62962781D01*
X90350940Y-62962344D01*
X90353537Y-62939315D01*
X90363872Y-62860646D01*
X90369775Y-62835844D01*
X90382089Y-62800664D01*
X90383297Y-62797499D01*
X90405326Y-62744327D01*
X90414885Y-62725827D01*
X90437214Y-62690295D01*
X90440504Y-62685567D01*
X90476744Y-62638344D01*
X90482078Y-62632261D01*
X90515998Y-62598344D01*
X90522081Y-62593011D01*
X90569332Y-62556758D01*
X90574020Y-62553497D01*
X90609575Y-62531158D01*
X90628062Y-62521608D01*
X90681231Y-62499586D01*
X90684455Y-62498357D01*
X90719635Y-62486048D01*
X90744397Y-62480152D01*
X90820990Y-62470068D01*
X90846982Y-62467139D01*
X90853928Y-62466750D01*
X92802511Y-62466750D01*
X92869550Y-62486435D01*
G37*
G04 #@! TD.AperFunction*
G04 #@! TA.AperFunction,Conductor*
G36*
X107262693Y-54207944D02*
G01*
X107320742Y-54246831D01*
X107348552Y-54310928D01*
X107349500Y-54326235D01*
X107349500Y-58949067D01*
X107344870Y-58982635D01*
X107344208Y-58984987D01*
X107316382Y-59075033D01*
X107305330Y-59100365D01*
X107288895Y-59128866D01*
X107286438Y-59132782D01*
X107248542Y-59188457D01*
X107234911Y-59205154D01*
X107207649Y-59233174D01*
X107201941Y-59238355D01*
X107147954Y-59281551D01*
X107141646Y-59285986D01*
X107108323Y-59306438D01*
X107089045Y-59316073D01*
X107026428Y-59340827D01*
X107022066Y-59342366D01*
X106990686Y-59352138D01*
X106963495Y-59357367D01*
X106867410Y-59364887D01*
X106858614Y-59365356D01*
X106854356Y-59365582D01*
X106846718Y-59365519D01*
X106822429Y-59363815D01*
X106821257Y-59364361D01*
X106802751Y-59365750D01*
X104897489Y-59365750D01*
X104830450Y-59346065D01*
X104829070Y-59345166D01*
X104821491Y-59340152D01*
X104807756Y-59331064D01*
X104758092Y-59298207D01*
X104730348Y-59285201D01*
X104512824Y-59183230D01*
X104512819Y-59183228D01*
X104512814Y-59183226D01*
X104253442Y-59105192D01*
X104253428Y-59105189D01*
X104137791Y-59088171D01*
X103985439Y-59065750D01*
X103782369Y-59065750D01*
X103782364Y-59065750D01*
X103579844Y-59080573D01*
X103579831Y-59080575D01*
X103315453Y-59139467D01*
X103315446Y-59139470D01*
X103062439Y-59236237D01*
X102826226Y-59368807D01*
X102826224Y-59368808D01*
X102826223Y-59368809D01*
X102763893Y-59416938D01*
X102611822Y-59534362D01*
X102423822Y-59729359D01*
X102423816Y-59729366D01*
X102266202Y-59949669D01*
X102266199Y-59949674D01*
X102142350Y-60190559D01*
X102142343Y-60190577D01*
X102054884Y-60446935D01*
X102054881Y-60446949D01*
X102005681Y-60713318D01*
X102005680Y-60713325D01*
X101995787Y-60984013D01*
X102025413Y-61253263D01*
X102025415Y-61253274D01*
X102093926Y-61515332D01*
X102093928Y-61515338D01*
X102199870Y-61764640D01*
X102272000Y-61882829D01*
X102340979Y-61995855D01*
X102340986Y-61995865D01*
X102514253Y-62204069D01*
X102514259Y-62204074D01*
X102715998Y-62384832D01*
X102941910Y-62534294D01*
X103187176Y-62649270D01*
X103187183Y-62649272D01*
X103187185Y-62649273D01*
X103446557Y-62727307D01*
X103446564Y-62727308D01*
X103446569Y-62727310D01*
X103714561Y-62766750D01*
X103714566Y-62766750D01*
X103917636Y-62766750D01*
X103969133Y-62762980D01*
X104120156Y-62751927D01*
X104232758Y-62726843D01*
X104384546Y-62693032D01*
X104384548Y-62693031D01*
X104384553Y-62693030D01*
X104637558Y-62596264D01*
X104840055Y-62482616D01*
X104900744Y-62466750D01*
X106846516Y-62466750D01*
X106853460Y-62467140D01*
X106855853Y-62467409D01*
X106875866Y-62469664D01*
X106956079Y-62480255D01*
X106980785Y-62486142D01*
X107013929Y-62497738D01*
X107017094Y-62498946D01*
X107072450Y-62521874D01*
X107090959Y-62531435D01*
X107104309Y-62539823D01*
X107125070Y-62552867D01*
X107129829Y-62556177D01*
X107178482Y-62593506D01*
X107184586Y-62598859D01*
X107217407Y-62631677D01*
X107222759Y-62637780D01*
X107260098Y-62686434D01*
X107263409Y-62691194D01*
X107284834Y-62725287D01*
X107294401Y-62743803D01*
X107317320Y-62799121D01*
X107318561Y-62802371D01*
X107330125Y-62835413D01*
X107336025Y-62860179D01*
X107346874Y-62942527D01*
X107349109Y-62962344D01*
X107349500Y-62969298D01*
X107349500Y-68962765D01*
X107349109Y-68969720D01*
X107346467Y-68993138D01*
X107336126Y-69071847D01*
X107330222Y-69096657D01*
X107317929Y-69131780D01*
X107316688Y-69135031D01*
X107294673Y-69188167D01*
X107285106Y-69206683D01*
X107262796Y-69242184D01*
X107259485Y-69246943D01*
X107223263Y-69294143D01*
X107217910Y-69300247D01*
X107184013Y-69334141D01*
X107177910Y-69339492D01*
X107130699Y-69375717D01*
X107125938Y-69379028D01*
X107090441Y-69401330D01*
X107071923Y-69410896D01*
X107018792Y-69432901D01*
X107015543Y-69434141D01*
X106980361Y-69446451D01*
X106955597Y-69452347D01*
X106878977Y-69462435D01*
X106871100Y-69463322D01*
X106853012Y-69465360D01*
X106846075Y-69465750D01*
X99245564Y-69465750D01*
X99178525Y-69446065D01*
X99132770Y-69393261D01*
X99122826Y-69324103D01*
X99151851Y-69260547D01*
X99198112Y-69227189D01*
X99226871Y-69215276D01*
X99226872Y-69215276D01*
X99226872Y-69215275D01*
X99226876Y-69215274D01*
X99322072Y-69142227D01*
X99322073Y-69142225D01*
X99330164Y-69136017D01*
X99330171Y-69136011D01*
X99337840Y-69130127D01*
X99353987Y-69117737D01*
X99376010Y-69089035D01*
X99381338Y-69082959D01*
X99586640Y-68877657D01*
X99647961Y-68844174D01*
X99714584Y-68848059D01*
X99735365Y-68855194D01*
X99957431Y-68892250D01*
X100182569Y-68892250D01*
X100404635Y-68855194D01*
X100617574Y-68782092D01*
X100815576Y-68674939D01*
X100993240Y-68536656D01*
X101145722Y-68371018D01*
X101236193Y-68232541D01*
X101289336Y-68187187D01*
X101358567Y-68177763D01*
X101421903Y-68207265D01*
X101443807Y-68232543D01*
X101534276Y-68371015D01*
X101534284Y-68371026D01*
X101686756Y-68536652D01*
X101686760Y-68536656D01*
X101864424Y-68674939D01*
X101864425Y-68674939D01*
X101864427Y-68674941D01*
X101941481Y-68716640D01*
X102062426Y-68782092D01*
X102275365Y-68855194D01*
X102497431Y-68892250D01*
X102722569Y-68892250D01*
X102944635Y-68855194D01*
X103157574Y-68782092D01*
X103355576Y-68674939D01*
X103533240Y-68536656D01*
X103685722Y-68371018D01*
X103776193Y-68232540D01*
X103829338Y-68187187D01*
X103898569Y-68177763D01*
X103961905Y-68207265D01*
X103983804Y-68232537D01*
X104074278Y-68371018D01*
X104074283Y-68371023D01*
X104074284Y-68371026D01*
X104226756Y-68536652D01*
X104226760Y-68536656D01*
X104404424Y-68674939D01*
X104404425Y-68674939D01*
X104404427Y-68674941D01*
X104481481Y-68716640D01*
X104602426Y-68782092D01*
X104815365Y-68855194D01*
X105037431Y-68892250D01*
X105262569Y-68892250D01*
X105484635Y-68855194D01*
X105697574Y-68782092D01*
X105895576Y-68674939D01*
X106073240Y-68536656D01*
X106225722Y-68371018D01*
X106348860Y-68182541D01*
X106439296Y-67976366D01*
X106494564Y-67758118D01*
X106513156Y-67533750D01*
X106494564Y-67309382D01*
X106439296Y-67091134D01*
X106348860Y-66884959D01*
X106332706Y-66860234D01*
X106225723Y-66696484D01*
X106225715Y-66696473D01*
X106073243Y-66530847D01*
X106073238Y-66530842D01*
X105895577Y-66392562D01*
X105895572Y-66392558D01*
X105697580Y-66285411D01*
X105697577Y-66285409D01*
X105697574Y-66285408D01*
X105697571Y-66285407D01*
X105697569Y-66285406D01*
X105484637Y-66212306D01*
X105262569Y-66175250D01*
X105037431Y-66175250D01*
X104815362Y-66212306D01*
X104602430Y-66285406D01*
X104602419Y-66285411D01*
X104404427Y-66392558D01*
X104404422Y-66392562D01*
X104226761Y-66530842D01*
X104226756Y-66530847D01*
X104074284Y-66696473D01*
X104074276Y-66696484D01*
X103983808Y-66834956D01*
X103930662Y-66880312D01*
X103861431Y-66889736D01*
X103798095Y-66860234D01*
X103776192Y-66834956D01*
X103685723Y-66696484D01*
X103685715Y-66696473D01*
X103533243Y-66530847D01*
X103533238Y-66530842D01*
X103355577Y-66392562D01*
X103355578Y-66392562D01*
X103355576Y-66392561D01*
X103345742Y-66387239D01*
X103283481Y-66353544D01*
X103233891Y-66304324D01*
X103218500Y-66244490D01*
X103218500Y-63853945D01*
X103219031Y-63845843D01*
X103220161Y-63837265D01*
X103223750Y-63810000D01*
X103218766Y-63772148D01*
X103218765Y-63772129D01*
X103218500Y-63770115D01*
X103202838Y-63651150D01*
X103177088Y-63588982D01*
X103141524Y-63503124D01*
X103120284Y-63475444D01*
X103067235Y-63406308D01*
X103067215Y-63406284D01*
X103062311Y-63399894D01*
X103043987Y-63376013D01*
X103043985Y-63376011D01*
X103043984Y-63376010D01*
X103027939Y-63363699D01*
X103015293Y-63353995D01*
X103009203Y-63348654D01*
X100061354Y-60400804D01*
X100056001Y-60394702D01*
X100054580Y-60392850D01*
X100033987Y-60366013D01*
X100002074Y-60341525D01*
X100002072Y-60341523D01*
X99918755Y-60277591D01*
X99877553Y-60221162D01*
X99873399Y-60151416D01*
X99876308Y-60140909D01*
X99893042Y-60089410D01*
X99913004Y-59899482D01*
X99893042Y-59709554D01*
X99834027Y-59527926D01*
X99738540Y-59362538D01*
X99610753Y-59220616D01*
X99456252Y-59108364D01*
X99281788Y-59030688D01*
X99281786Y-59030687D01*
X99094987Y-58990982D01*
X98904013Y-58990982D01*
X98717214Y-59030687D01*
X98717211Y-59030688D01*
X98717212Y-59030688D01*
X98549873Y-59105192D01*
X98542746Y-59108365D01*
X98388245Y-59220617D01*
X98350691Y-59262325D01*
X98291204Y-59298973D01*
X98274729Y-59302291D01*
X98241668Y-59306644D01*
X98093641Y-59367958D01*
X98067836Y-59387760D01*
X97998446Y-59441005D01*
X97998443Y-59441007D01*
X97989763Y-59447668D01*
X97966528Y-59465497D01*
X97944514Y-59494185D01*
X97939163Y-59500287D01*
X95810793Y-61628656D01*
X95749470Y-61662141D01*
X95679778Y-61657157D01*
X95623845Y-61615285D01*
X95599428Y-61549821D01*
X95605753Y-61500941D01*
X95645118Y-61385555D01*
X95694319Y-61119183D01*
X95704212Y-60848485D01*
X95674586Y-60579232D01*
X95606072Y-60317162D01*
X95500130Y-60067860D01*
X95359018Y-59836640D01*
X95269747Y-59729369D01*
X95185746Y-59628430D01*
X95185740Y-59628425D01*
X94984002Y-59447668D01*
X94758092Y-59298207D01*
X94730348Y-59285201D01*
X94512824Y-59183230D01*
X94512819Y-59183228D01*
X94512814Y-59183226D01*
X94253442Y-59105192D01*
X94253428Y-59105189D01*
X94137791Y-59088171D01*
X93985439Y-59065750D01*
X93782369Y-59065750D01*
X93782364Y-59065750D01*
X93579844Y-59080573D01*
X93579831Y-59080575D01*
X93315453Y-59139467D01*
X93315446Y-59139470D01*
X93062439Y-59236237D01*
X92859944Y-59349884D01*
X92799256Y-59365750D01*
X90897254Y-59365750D01*
X90888551Y-59363194D01*
X90853778Y-59365498D01*
X90846148Y-59365533D01*
X90830221Y-59364626D01*
X90736689Y-59356951D01*
X90709714Y-59351680D01*
X90677867Y-59341689D01*
X90673534Y-59340152D01*
X90611395Y-59315467D01*
X90592243Y-59305868D01*
X90558619Y-59285201D01*
X90552349Y-59280791D01*
X90498693Y-59237870D01*
X90493017Y-59232723D01*
X90465472Y-59204461D01*
X90451901Y-59187885D01*
X90418808Y-59139467D01*
X90414159Y-59132665D01*
X90411726Y-59128805D01*
X90394994Y-59099945D01*
X90383919Y-59074752D01*
X90357731Y-58990982D01*
X90356147Y-58985915D01*
X90350500Y-58948919D01*
X90350500Y-54437296D01*
X90370185Y-54370257D01*
X90422989Y-54324502D01*
X90492147Y-54314558D01*
X90555703Y-54343583D01*
X90566644Y-54354318D01*
X90588747Y-54378866D01*
X90743248Y-54491118D01*
X90917712Y-54568794D01*
X90932500Y-54571937D01*
X90940764Y-54573694D01*
X91002246Y-54606886D01*
X91036022Y-54668049D01*
X91031370Y-54737764D01*
X91028074Y-54745073D01*
X91028328Y-54745185D01*
X90926412Y-54977532D01*
X90865387Y-55218511D01*
X90865385Y-55218520D01*
X90844858Y-55466244D01*
X90844858Y-55466255D01*
X90865385Y-55713979D01*
X90865387Y-55713988D01*
X90926412Y-55954967D01*
X91026266Y-56182614D01*
X91126564Y-56336132D01*
X91741050Y-55721645D01*
X91802373Y-55688160D01*
X91872064Y-55693144D01*
X91927998Y-55735015D01*
X91933039Y-55742275D01*
X91942117Y-55756401D01*
X91968239Y-55797048D01*
X92083602Y-55897009D01*
X92081293Y-55899672D01*
X92116006Y-55939749D01*
X92125935Y-56008910D01*
X92096898Y-56072460D01*
X92090882Y-56078919D01*
X91479942Y-56689859D01*
X91526768Y-56726305D01*
X91526770Y-56726306D01*
X91745385Y-56844614D01*
X91745396Y-56844619D01*
X91980506Y-56925333D01*
X92225707Y-56966250D01*
X92474293Y-56966250D01*
X92719493Y-56925333D01*
X92954603Y-56844619D01*
X92954614Y-56844614D01*
X93173228Y-56726307D01*
X93173231Y-56726305D01*
X93257873Y-56660425D01*
X93322867Y-56634782D01*
X93391407Y-56648348D01*
X93421717Y-56670597D01*
X94760686Y-58009566D01*
X94770592Y-58021930D01*
X94770802Y-58021757D01*
X94775777Y-58027771D01*
X94826870Y-58075751D01*
X94848001Y-58096881D01*
X94848006Y-58096886D01*
X94853578Y-58101208D01*
X94858018Y-58105001D01*
X94892454Y-58137338D01*
X94910343Y-58147172D01*
X94926609Y-58157856D01*
X94942735Y-58170365D01*
X94986074Y-58189119D01*
X94991321Y-58191689D01*
X95032716Y-58214447D01*
X95052494Y-58219525D01*
X95070895Y-58225825D01*
X95089631Y-58233933D01*
X95134138Y-58240981D01*
X95136279Y-58241321D01*
X95141988Y-58242503D01*
X95187746Y-58254252D01*
X95208160Y-58254252D01*
X95227559Y-58255779D01*
X95247719Y-58258972D01*
X95294741Y-58254527D01*
X95300580Y-58254252D01*
X99033829Y-58254252D01*
X99049576Y-58255990D01*
X99049602Y-58255720D01*
X99057368Y-58256453D01*
X99057372Y-58256454D01*
X99127421Y-58254252D01*
X99157319Y-58254252D01*
X99157320Y-58254252D01*
X99158685Y-58254079D01*
X99164325Y-58253366D01*
X99170148Y-58252908D01*
X99196171Y-58252090D01*
X99217353Y-58251425D01*
X99227144Y-58248579D01*
X99236944Y-58245732D01*
X99256001Y-58241784D01*
X99276260Y-58239226D01*
X99320184Y-58221834D01*
X99325684Y-58219951D01*
X99371056Y-58206770D01*
X99388628Y-58196377D01*
X99406095Y-58187820D01*
X99425080Y-58180304D01*
X99463289Y-58152542D01*
X99468167Y-58149337D01*
X99508825Y-58125294D01*
X99523265Y-58110852D01*
X99538055Y-58098222D01*
X99554570Y-58086224D01*
X99584677Y-58049830D01*
X99588599Y-58045518D01*
X99806898Y-57827220D01*
X99868222Y-57793735D01*
X99894580Y-57790901D01*
X99951301Y-57790901D01*
X100138102Y-57751195D01*
X100312566Y-57673519D01*
X100467067Y-57561267D01*
X100480399Y-57546460D01*
X100539882Y-57509811D01*
X100609739Y-57511139D01*
X100632279Y-57520765D01*
X100642558Y-57526415D01*
X100658829Y-57537102D01*
X100674960Y-57549615D01*
X100696838Y-57559081D01*
X100718307Y-57568371D01*
X100723533Y-57570931D01*
X100764940Y-57593695D01*
X100784716Y-57598772D01*
X100803124Y-57605075D01*
X100821850Y-57613179D01*
X100821852Y-57613180D01*
X100821853Y-57613180D01*
X100821855Y-57613181D01*
X100862784Y-57619663D01*
X100868503Y-57620569D01*
X100874212Y-57621751D01*
X100919970Y-57633500D01*
X100940384Y-57633500D01*
X100959783Y-57635027D01*
X100979943Y-57638220D01*
X101026965Y-57633775D01*
X101032804Y-57633500D01*
X103016366Y-57633500D01*
X103032113Y-57635238D01*
X103032139Y-57634968D01*
X103039905Y-57635701D01*
X103039909Y-57635702D01*
X103109958Y-57633500D01*
X103139856Y-57633500D01*
X103139857Y-57633500D01*
X103141222Y-57633327D01*
X103146862Y-57632614D01*
X103152685Y-57632156D01*
X103178708Y-57631338D01*
X103199890Y-57630673D01*
X103209681Y-57627827D01*
X103219481Y-57624980D01*
X103238538Y-57621032D01*
X103258797Y-57618474D01*
X103302721Y-57601082D01*
X103308221Y-57599199D01*
X103353593Y-57586018D01*
X103371165Y-57575625D01*
X103388632Y-57567068D01*
X103407617Y-57559552D01*
X103445826Y-57531790D01*
X103450704Y-57528585D01*
X103491362Y-57504542D01*
X103505802Y-57490100D01*
X103520592Y-57477470D01*
X103537107Y-57465472D01*
X103567222Y-57429067D01*
X103571136Y-57424766D01*
X104304727Y-56691175D01*
X104366046Y-56657693D01*
X104435737Y-56662677D01*
X104468567Y-56681006D01*
X104526763Y-56726302D01*
X104526768Y-56726305D01*
X104745385Y-56844614D01*
X104745396Y-56844619D01*
X104980506Y-56925333D01*
X105225707Y-56966250D01*
X105474293Y-56966250D01*
X105719493Y-56925333D01*
X105954603Y-56844619D01*
X105954614Y-56844614D01*
X106173228Y-56726307D01*
X106173231Y-56726305D01*
X106220056Y-56689859D01*
X105609116Y-56078919D01*
X105575631Y-56017596D01*
X105580615Y-55947904D01*
X105617641Y-55898443D01*
X105616398Y-55897009D01*
X105623100Y-55891202D01*
X105731761Y-55797048D01*
X105766954Y-55742287D01*
X105819755Y-55696533D01*
X105888914Y-55686589D01*
X105952470Y-55715613D01*
X105958949Y-55721646D01*
X106573434Y-56336132D01*
X106673731Y-56182619D01*
X106773587Y-55954967D01*
X106834612Y-55713988D01*
X106834614Y-55713979D01*
X106855141Y-55466255D01*
X106855141Y-55466244D01*
X106834614Y-55218520D01*
X106834612Y-55218511D01*
X106773587Y-54977532D01*
X106673732Y-54749882D01*
X106663639Y-54734433D01*
X106643451Y-54667544D01*
X106662632Y-54600358D01*
X106715091Y-54554208D01*
X106716869Y-54553397D01*
X106856752Y-54491118D01*
X107011253Y-54378866D01*
X107133350Y-54243262D01*
X107192836Y-54206614D01*
X107262693Y-54207944D01*
G37*
G04 #@! TD.AperFunction*
G04 #@! TA.AperFunction,Conductor*
G36*
X101521007Y-63586145D02*
G01*
X101543229Y-63603778D01*
X101965181Y-64025729D01*
X101998666Y-64087052D01*
X102001500Y-64113410D01*
X102001500Y-66244490D01*
X101981815Y-66311529D01*
X101936519Y-66353544D01*
X101864427Y-66392559D01*
X101864422Y-66392562D01*
X101686761Y-66530842D01*
X101686756Y-66530847D01*
X101534284Y-66696473D01*
X101534276Y-66696484D01*
X101443807Y-66834956D01*
X101390660Y-66880313D01*
X101321429Y-66889736D01*
X101258093Y-66860233D01*
X101236191Y-66834956D01*
X101145722Y-66696482D01*
X101145717Y-66696477D01*
X101145715Y-66696473D01*
X100993243Y-66530847D01*
X100993238Y-66530842D01*
X100815577Y-66392562D01*
X100815572Y-66392558D01*
X100617580Y-66285411D01*
X100617577Y-66285409D01*
X100617574Y-66285408D01*
X100617571Y-66285407D01*
X100617569Y-66285406D01*
X100404637Y-66212306D01*
X100182569Y-66175250D01*
X99957431Y-66175250D01*
X99735362Y-66212306D01*
X99522430Y-66285406D01*
X99522419Y-66285411D01*
X99324427Y-66392558D01*
X99324422Y-66392562D01*
X99146761Y-66530842D01*
X99146756Y-66530847D01*
X98994284Y-66696473D01*
X98994276Y-66696484D01*
X98903808Y-66834956D01*
X98850662Y-66880312D01*
X98781431Y-66889736D01*
X98718095Y-66860234D01*
X98696192Y-66834956D01*
X98605723Y-66696484D01*
X98605715Y-66696473D01*
X98453243Y-66530847D01*
X98453238Y-66530842D01*
X98275577Y-66392562D01*
X98275572Y-66392558D01*
X98077580Y-66285411D01*
X98077577Y-66285409D01*
X98077574Y-66285408D01*
X98077571Y-66285407D01*
X98077569Y-66285406D01*
X97880523Y-66217760D01*
X97823508Y-66177375D01*
X97797377Y-66112575D01*
X97810428Y-66043935D01*
X97833102Y-66012801D01*
X99163817Y-64682086D01*
X99176178Y-64672185D01*
X99176004Y-64671975D01*
X99182013Y-64667002D01*
X99182018Y-64667000D01*
X99229983Y-64615921D01*
X99251135Y-64594770D01*
X99255461Y-64589192D01*
X99259250Y-64584755D01*
X99291586Y-64550321D01*
X99301419Y-64532432D01*
X99312102Y-64516169D01*
X99324614Y-64500041D01*
X99343371Y-64456691D01*
X99345941Y-64451447D01*
X99368693Y-64410064D01*
X99368693Y-64410063D01*
X99368695Y-64410060D01*
X99373774Y-64390273D01*
X99380070Y-64371885D01*
X99388181Y-64353145D01*
X99392186Y-64327851D01*
X99422115Y-64264718D01*
X99481426Y-64227787D01*
X99551289Y-64228783D01*
X99573674Y-64238194D01*
X99589173Y-64246581D01*
X99592418Y-64248338D01*
X99592426Y-64248342D01*
X99805365Y-64321444D01*
X100027431Y-64358500D01*
X100252569Y-64358500D01*
X100474635Y-64321444D01*
X100687574Y-64248342D01*
X100885576Y-64141189D01*
X101063240Y-64002906D01*
X101215722Y-63837268D01*
X101338860Y-63648791D01*
X101341991Y-63641652D01*
X101386944Y-63588166D01*
X101453679Y-63567473D01*
X101521007Y-63586145D01*
G37*
G04 #@! TD.AperFunction*
G04 #@! TA.AperFunction,Conductor*
G36*
X96160833Y-63102229D02*
G01*
X96216766Y-63144101D01*
X96241183Y-63209565D01*
X96241499Y-63218411D01*
X96241499Y-63898637D01*
X96241500Y-63898654D01*
X96248011Y-63959202D01*
X96248011Y-63959204D01*
X96284835Y-64057929D01*
X96299111Y-64096204D01*
X96386739Y-64213261D01*
X96503796Y-64300889D01*
X96640799Y-64351989D01*
X96668050Y-64354918D01*
X96701345Y-64358499D01*
X96701362Y-64358500D01*
X97396234Y-64358500D01*
X97463273Y-64378185D01*
X97509028Y-64430989D01*
X97518972Y-64500147D01*
X97489947Y-64563703D01*
X97483915Y-64570181D01*
X95752913Y-66301180D01*
X95691590Y-66334665D01*
X95621898Y-66329681D01*
X95606215Y-66322554D01*
X95537580Y-66285411D01*
X95537577Y-66285409D01*
X95537574Y-66285408D01*
X95537571Y-66285407D01*
X95537569Y-66285406D01*
X95324637Y-66212306D01*
X95102569Y-66175250D01*
X94877431Y-66175250D01*
X94655363Y-66212306D01*
X94612761Y-66226931D01*
X94542963Y-66230080D01*
X94482542Y-66194993D01*
X94450682Y-66132810D01*
X94448500Y-66109649D01*
X94448500Y-64763411D01*
X94468185Y-64696372D01*
X94484819Y-64675730D01*
X95201348Y-63959201D01*
X96029820Y-63130728D01*
X96091141Y-63097245D01*
X96160833Y-63102229D01*
G37*
G04 #@! TD.AperFunction*
G04 #@! TA.AperFunction,Conductor*
G36*
X93865469Y-49486435D02*
G01*
X93886110Y-49503068D01*
X93944361Y-49561319D01*
X93977847Y-49622641D01*
X93972863Y-49692333D01*
X93930992Y-49748266D01*
X93922275Y-49754230D01*
X93894737Y-49771394D01*
X93894737Y-49771395D01*
X93747331Y-49911514D01*
X93747330Y-49911516D01*
X93631143Y-50078445D01*
X93550940Y-50265342D01*
X93510000Y-50464559D01*
X93510000Y-50716250D01*
X94086000Y-50716250D01*
X94153039Y-50735935D01*
X94198794Y-50788739D01*
X94210000Y-50840250D01*
X94210000Y-51092250D01*
X94190315Y-51159289D01*
X94137511Y-51205044D01*
X94086000Y-51216250D01*
X93510000Y-51216250D01*
X93510000Y-51416963D01*
X93525418Y-51568588D01*
X93586299Y-51762631D01*
X93586304Y-51762641D01*
X93685005Y-51940465D01*
X93685005Y-51940466D01*
X93817478Y-52094780D01*
X93817479Y-52094781D01*
X93978304Y-52219268D01*
X94160907Y-52308839D01*
X94260000Y-52334494D01*
X94260000Y-51771228D01*
X94279685Y-51704189D01*
X94332489Y-51658434D01*
X94401647Y-51648490D01*
X94417926Y-51651959D01*
X94481840Y-51670145D01*
X94593521Y-51659796D01*
X94593526Y-51659793D01*
X94602063Y-51657365D01*
X94671930Y-51657951D01*
X94730390Y-51696216D01*
X94758881Y-51760013D01*
X94760000Y-51776631D01*
X94760000Y-52339616D01*
X94761944Y-52339319D01*
X94761945Y-52339319D01*
X94952660Y-52268686D01*
X94952664Y-52268684D01*
X95125267Y-52161100D01*
X95272668Y-52020985D01*
X95272669Y-52020983D01*
X95388856Y-51854054D01*
X95469059Y-51667157D01*
X95510000Y-51467940D01*
X95510000Y-51216250D01*
X94934000Y-51216250D01*
X94866961Y-51196565D01*
X94821206Y-51143761D01*
X94810000Y-51092250D01*
X94810000Y-50840250D01*
X94829685Y-50773211D01*
X94882489Y-50727456D01*
X94934000Y-50716250D01*
X95510000Y-50716250D01*
X95510000Y-50515536D01*
X95494581Y-50363911D01*
X95433700Y-50169868D01*
X95433695Y-50169856D01*
X95423188Y-50150926D01*
X95407866Y-50082758D01*
X95431831Y-50017126D01*
X95487474Y-49974870D01*
X95531608Y-49966750D01*
X102130928Y-49966750D01*
X102197967Y-49986435D01*
X102243722Y-50039239D01*
X102253666Y-50108397D01*
X102244879Y-50139650D01*
X102190940Y-50265342D01*
X102150000Y-50464559D01*
X102150000Y-50716250D01*
X102726000Y-50716250D01*
X102793039Y-50735935D01*
X102838794Y-50788739D01*
X102850000Y-50840250D01*
X102850000Y-51092250D01*
X102830315Y-51159289D01*
X102777511Y-51205044D01*
X102726000Y-51216250D01*
X102150000Y-51216250D01*
X102150000Y-51416963D01*
X102165418Y-51568588D01*
X102226299Y-51762631D01*
X102226304Y-51762641D01*
X102325005Y-51940465D01*
X102325005Y-51940466D01*
X102457478Y-52094780D01*
X102457479Y-52094781D01*
X102618304Y-52219268D01*
X102800907Y-52308839D01*
X102900000Y-52334494D01*
X102900000Y-51771228D01*
X102919685Y-51704189D01*
X102972489Y-51658434D01*
X103041647Y-51648490D01*
X103057926Y-51651959D01*
X103121840Y-51670145D01*
X103233521Y-51659796D01*
X103233526Y-51659793D01*
X103242063Y-51657365D01*
X103311930Y-51657951D01*
X103370390Y-51696216D01*
X103398881Y-51760013D01*
X103400000Y-51776631D01*
X103400000Y-52339616D01*
X103401944Y-52339319D01*
X103401945Y-52339319D01*
X103592660Y-52268686D01*
X103592664Y-52268684D01*
X103765267Y-52161100D01*
X103912668Y-52020985D01*
X103912669Y-52020983D01*
X104028856Y-51854054D01*
X104109059Y-51667157D01*
X104150000Y-51467940D01*
X104150000Y-51216250D01*
X103574000Y-51216250D01*
X103506961Y-51196565D01*
X103461206Y-51143761D01*
X103450000Y-51092250D01*
X103450000Y-50840250D01*
X103469685Y-50773211D01*
X103522489Y-50727456D01*
X103574000Y-50716250D01*
X104150000Y-50716250D01*
X104150000Y-50515536D01*
X104134581Y-50363911D01*
X104073700Y-50169868D01*
X104073695Y-50169858D01*
X103974994Y-49992034D01*
X103974994Y-49992033D01*
X103842521Y-49837719D01*
X103842520Y-49837718D01*
X103749081Y-49765392D01*
X103708117Y-49708791D01*
X103704256Y-49639028D01*
X103737298Y-49579658D01*
X103813890Y-49503066D01*
X103875212Y-49469584D01*
X103901569Y-49466750D01*
X106846516Y-49466750D01*
X106853460Y-49467140D01*
X106855853Y-49467409D01*
X106875866Y-49469664D01*
X106956079Y-49480255D01*
X106980785Y-49486142D01*
X107013929Y-49497738D01*
X107017094Y-49498946D01*
X107072450Y-49521874D01*
X107090959Y-49531435D01*
X107104309Y-49539823D01*
X107125070Y-49552867D01*
X107129829Y-49556177D01*
X107178482Y-49593506D01*
X107184586Y-49598859D01*
X107217407Y-49631677D01*
X107222759Y-49637780D01*
X107260098Y-49686434D01*
X107263409Y-49691194D01*
X107284834Y-49725287D01*
X107294401Y-49743803D01*
X107317320Y-49799121D01*
X107318561Y-49802371D01*
X107330125Y-49835413D01*
X107336025Y-49860179D01*
X107346874Y-49942531D01*
X107349109Y-49962350D01*
X107349499Y-49969300D01*
X107349500Y-53073764D01*
X107329815Y-53140803D01*
X107277011Y-53186558D01*
X107207853Y-53196502D01*
X107144297Y-53167477D01*
X107133350Y-53156736D01*
X107011254Y-53021135D01*
X106856753Y-52908883D01*
X106856752Y-52908882D01*
X106682288Y-52831206D01*
X106682286Y-52831205D01*
X106495487Y-52791500D01*
X106304513Y-52791500D01*
X106117714Y-52831205D01*
X105943246Y-52908883D01*
X105788745Y-53021135D01*
X105784840Y-53025473D01*
X105725354Y-53062121D01*
X105692691Y-53066500D01*
X105326049Y-53066500D01*
X105310297Y-53064760D01*
X105310272Y-53065032D01*
X105302510Y-53064298D01*
X105302509Y-53064298D01*
X105232446Y-53066500D01*
X105202561Y-53066500D01*
X105202558Y-53066500D01*
X105202546Y-53066501D01*
X105195554Y-53067384D01*
X105189737Y-53067841D01*
X105142528Y-53069325D01*
X105142526Y-53069326D01*
X105122913Y-53075023D01*
X105103876Y-53078965D01*
X105083625Y-53081524D01*
X105083619Y-53081526D01*
X105039716Y-53098907D01*
X105034192Y-53100798D01*
X104988823Y-53113981D01*
X104988818Y-53113983D01*
X104971244Y-53124376D01*
X104953779Y-53132932D01*
X104934804Y-53140445D01*
X104934802Y-53140446D01*
X104896593Y-53168206D01*
X104891711Y-53171412D01*
X104851052Y-53195458D01*
X104836617Y-53209894D01*
X104821829Y-53222525D01*
X104805311Y-53234526D01*
X104805305Y-53234532D01*
X104775197Y-53270925D01*
X104771266Y-53275246D01*
X104092463Y-53954046D01*
X104031140Y-53987531D01*
X103961448Y-53982547D01*
X103910695Y-53947135D01*
X103842517Y-53867716D01*
X103681695Y-53743231D01*
X103499093Y-53653661D01*
X103399999Y-53628003D01*
X103400000Y-54191271D01*
X103380315Y-54258310D01*
X103327511Y-54304065D01*
X103258353Y-54314009D01*
X103242066Y-54310537D01*
X103178162Y-54292355D01*
X103178162Y-54292354D01*
X103066478Y-54302703D01*
X103057929Y-54305136D01*
X102988061Y-54304546D01*
X102929604Y-54266277D01*
X102901117Y-54202479D01*
X102899999Y-54185868D01*
X102899999Y-53622883D01*
X102899998Y-53622882D01*
X102898063Y-53623179D01*
X102898049Y-53623182D01*
X102707342Y-53693812D01*
X102707335Y-53693815D01*
X102534732Y-53801399D01*
X102387331Y-53941514D01*
X102387330Y-53941516D01*
X102271143Y-54108446D01*
X102258076Y-54138895D01*
X102213548Y-54192738D01*
X102146980Y-54213960D01*
X102079505Y-54195824D01*
X102068640Y-54188369D01*
X102010233Y-54143552D01*
X102010230Y-54143550D01*
X101894776Y-54095728D01*
X101870236Y-54085563D01*
X101856171Y-54083711D01*
X101757727Y-54070750D01*
X101757720Y-54070750D01*
X101682280Y-54070750D01*
X101682272Y-54070750D01*
X101569764Y-54085563D01*
X101569763Y-54085563D01*
X101429770Y-54143550D01*
X101429767Y-54143551D01*
X101429767Y-54143552D01*
X101309549Y-54235799D01*
X101218601Y-54354325D01*
X101217300Y-54356020D01*
X101159313Y-54496013D01*
X101159312Y-54496015D01*
X101139534Y-54646249D01*
X101139534Y-54646250D01*
X101159312Y-54796484D01*
X101159313Y-54796486D01*
X101201096Y-54897360D01*
X101217302Y-54936483D01*
X101309549Y-55056701D01*
X101429767Y-55148948D01*
X101569764Y-55206937D01*
X101682280Y-55221750D01*
X101682287Y-55221750D01*
X101757713Y-55221750D01*
X101757720Y-55221750D01*
X101870236Y-55206937D01*
X101978546Y-55162073D01*
X102048017Y-55154604D01*
X102110496Y-55185879D01*
X102146148Y-55245968D01*
X102150000Y-55276634D01*
X102150000Y-55746963D01*
X102165418Y-55898588D01*
X102226299Y-56092631D01*
X102226304Y-56092641D01*
X102276081Y-56182322D01*
X102291404Y-56250491D01*
X102267440Y-56316123D01*
X102211798Y-56358379D01*
X102167662Y-56366500D01*
X101313766Y-56366500D01*
X101246727Y-56346815D01*
X101226085Y-56330181D01*
X100664492Y-55768588D01*
X100654589Y-55756226D01*
X100654379Y-55756401D01*
X100649404Y-55750389D01*
X100649401Y-55750383D01*
X100618798Y-55721645D01*
X100598322Y-55702416D01*
X100577169Y-55681264D01*
X100575193Y-55679732D01*
X100571584Y-55676932D01*
X100567151Y-55673145D01*
X100532722Y-55640815D01*
X100532720Y-55640813D01*
X100514832Y-55630979D01*
X100498571Y-55620298D01*
X100482440Y-55607785D01*
X100439094Y-55589028D01*
X100433846Y-55586457D01*
X100406423Y-55571382D01*
X100392461Y-55563706D01*
X100389061Y-55562833D01*
X100372688Y-55558629D01*
X100354282Y-55552327D01*
X100335545Y-55544219D01*
X100335547Y-55544219D01*
X100288897Y-55536831D01*
X100283182Y-55535647D01*
X100263013Y-55530469D01*
X100237433Y-55523901D01*
X100237431Y-55523901D01*
X100217017Y-55523901D01*
X100197618Y-55522374D01*
X100177459Y-55519181D01*
X100177458Y-55519181D01*
X100130435Y-55523626D01*
X100124597Y-55523901D01*
X97697485Y-55523901D01*
X97681737Y-55522162D01*
X97681712Y-55522433D01*
X97673945Y-55521699D01*
X97673942Y-55521699D01*
X97603893Y-55523901D01*
X97573988Y-55523901D01*
X97566994Y-55524785D01*
X97561171Y-55525243D01*
X97513963Y-55526727D01*
X97513960Y-55526728D01*
X97494357Y-55532423D01*
X97475309Y-55536367D01*
X97455054Y-55538927D01*
X97441685Y-55544220D01*
X97411136Y-55556314D01*
X97405610Y-55558206D01*
X97360258Y-55571382D01*
X97342684Y-55581775D01*
X97325223Y-55590329D01*
X97306237Y-55597847D01*
X97306235Y-55597848D01*
X97268023Y-55625609D01*
X97263141Y-55628816D01*
X97222488Y-55652858D01*
X97208052Y-55667295D01*
X97193266Y-55679924D01*
X97176744Y-55691929D01*
X97176742Y-55691930D01*
X97176742Y-55691931D01*
X97176740Y-55691933D01*
X97146632Y-55728326D01*
X97142700Y-55732646D01*
X97099776Y-55775571D01*
X96924413Y-55950934D01*
X96863093Y-55984418D01*
X96836734Y-55987252D01*
X96780013Y-55987252D01*
X96593214Y-56026957D01*
X96593211Y-56026958D01*
X96593212Y-56026958D01*
X96440259Y-56095057D01*
X96418746Y-56104635D01*
X96264245Y-56216887D01*
X96136459Y-56358809D01*
X96040973Y-56524195D01*
X96040970Y-56524202D01*
X95981959Y-56705820D01*
X95981958Y-56705824D01*
X95964050Y-56876214D01*
X95937465Y-56940828D01*
X95880168Y-56980813D01*
X95840729Y-56987252D01*
X95581543Y-56987252D01*
X95514504Y-56967567D01*
X95493862Y-56950933D01*
X95168423Y-56625494D01*
X95134938Y-56564171D01*
X95139922Y-56494479D01*
X95170673Y-56447938D01*
X95272668Y-56350984D01*
X95272669Y-56350983D01*
X95388856Y-56184054D01*
X95469059Y-55997157D01*
X95510000Y-55797940D01*
X95510000Y-55276634D01*
X95529685Y-55209595D01*
X95582489Y-55163840D01*
X95651647Y-55153896D01*
X95681454Y-55162073D01*
X95789764Y-55206937D01*
X95902280Y-55221750D01*
X95902287Y-55221750D01*
X95977713Y-55221750D01*
X95977720Y-55221750D01*
X96090236Y-55206937D01*
X96230233Y-55148948D01*
X96350451Y-55056701D01*
X96442698Y-54936483D01*
X96500687Y-54796486D01*
X96520466Y-54646250D01*
X96500687Y-54496014D01*
X96442698Y-54356017D01*
X96350451Y-54235799D01*
X96230233Y-54143552D01*
X96230229Y-54143550D01*
X96114776Y-54095728D01*
X96090236Y-54085563D01*
X96076171Y-54083711D01*
X95977727Y-54070750D01*
X95977720Y-54070750D01*
X95902280Y-54070750D01*
X95902272Y-54070750D01*
X95789764Y-54085563D01*
X95789763Y-54085563D01*
X95649769Y-54143550D01*
X95649766Y-54143552D01*
X95590421Y-54189089D01*
X95525251Y-54214283D01*
X95456807Y-54200244D01*
X95406817Y-54151430D01*
X95406516Y-54150890D01*
X95334997Y-54022038D01*
X95334994Y-54022033D01*
X95202521Y-53867719D01*
X95202520Y-53867718D01*
X95041695Y-53743231D01*
X94859093Y-53653661D01*
X94759999Y-53628003D01*
X94760000Y-54191271D01*
X94740315Y-54258310D01*
X94687511Y-54304065D01*
X94618353Y-54314009D01*
X94602066Y-54310537D01*
X94538162Y-54292355D01*
X94538161Y-54292354D01*
X94451873Y-54300350D01*
X94383304Y-54286935D01*
X94332872Y-54238577D01*
X94316494Y-54180772D01*
X94315673Y-54154634D01*
X94309977Y-54135032D01*
X94306032Y-54115981D01*
X94303474Y-54095727D01*
X94293585Y-54070750D01*
X94286086Y-54051810D01*
X94284193Y-54046281D01*
X94278148Y-54025474D01*
X94271018Y-54000931D01*
X94271015Y-54000926D01*
X94270194Y-53999027D01*
X94269523Y-53995790D01*
X94268841Y-53993440D01*
X94269026Y-53993386D01*
X94260000Y-53949790D01*
X94259999Y-53622883D01*
X94258054Y-53623181D01*
X94107475Y-53678949D01*
X94037772Y-53683772D01*
X93976729Y-53650348D01*
X93637564Y-53311183D01*
X93627663Y-53298823D01*
X93627453Y-53298998D01*
X93622478Y-53292986D01*
X93622476Y-53292982D01*
X93596134Y-53268245D01*
X93571398Y-53245016D01*
X93550244Y-53223863D01*
X93548268Y-53222331D01*
X93544659Y-53219531D01*
X93540226Y-53215744D01*
X93505797Y-53183414D01*
X93505795Y-53183412D01*
X93487907Y-53173578D01*
X93471646Y-53162897D01*
X93455515Y-53150384D01*
X93412169Y-53131627D01*
X93406921Y-53129056D01*
X93379498Y-53113981D01*
X93365536Y-53106305D01*
X93362136Y-53105432D01*
X93345763Y-53101228D01*
X93327357Y-53094926D01*
X93308620Y-53086818D01*
X93308622Y-53086818D01*
X93261972Y-53079430D01*
X93256257Y-53078246D01*
X93236088Y-53073068D01*
X93210508Y-53066500D01*
X93210506Y-53066500D01*
X93190092Y-53066500D01*
X93170693Y-53064973D01*
X93150534Y-53061780D01*
X93150533Y-53061780D01*
X93103510Y-53066225D01*
X93097672Y-53066500D01*
X91907309Y-53066500D01*
X91840270Y-53046815D01*
X91815160Y-53025473D01*
X91811254Y-53021135D01*
X91656753Y-52908883D01*
X91656752Y-52908882D01*
X91482288Y-52831206D01*
X91482286Y-52831205D01*
X91295487Y-52791500D01*
X91104513Y-52791500D01*
X90917714Y-52831205D01*
X90743246Y-52908883D01*
X90588744Y-53021136D01*
X90566647Y-53045677D01*
X90507160Y-53082324D01*
X90437303Y-53080993D01*
X90379255Y-53042105D01*
X90351447Y-52978007D01*
X90350499Y-52962717D01*
X90350499Y-49969733D01*
X90350890Y-49962781D01*
X90350939Y-49962350D01*
X90353529Y-49939382D01*
X90363872Y-49860646D01*
X90369773Y-49835849D01*
X90382084Y-49800676D01*
X90383297Y-49797498D01*
X90405326Y-49744327D01*
X90414885Y-49725827D01*
X90437214Y-49690295D01*
X90440504Y-49685567D01*
X90476744Y-49638344D01*
X90482078Y-49632261D01*
X90515998Y-49598344D01*
X90522081Y-49593011D01*
X90569332Y-49556758D01*
X90574020Y-49553497D01*
X90609575Y-49531158D01*
X90628062Y-49521608D01*
X90681231Y-49499586D01*
X90684455Y-49498357D01*
X90719635Y-49486048D01*
X90744397Y-49480152D01*
X90820990Y-49470068D01*
X90846982Y-49467139D01*
X90853928Y-49466750D01*
X93798430Y-49466750D01*
X93865469Y-49486435D01*
G37*
G04 #@! TD.AperFunction*
M02*
