M48
; DRILL file {KiCad 7.0.7} date 2024 February 23, Friday 22:46:59
; FORMAT={-:-/ absolute / metric / decimal}
; #@! TF.CreationDate,2024-02-23T22:46:59+01:00
; #@! TF.GenerationSoftware,Kicad,Pcbnew,7.0.7
; #@! TF.FileFunction,Plated,1,2,PTH
FMAT,2
METRIC
; #@! TA.AperFunction,Plated,PTH,ViaDrill
T1C0.400
; #@! TA.AperFunction,Plated,PTH,ComponentDrill
T2C0.600
; #@! TA.AperFunction,Plated,PTH,ComponentDrill
T3C1.000
%
G90
G05
T1
X91.1Y-63.4
X91.2Y-53.7
X91.2Y-58.5
X94.6Y-66.3
X96.876Y-56.896
X98.325Y-61.5
X98.999Y-59.899
X99.174Y-61.5
X99.856Y-56.882
X101.4Y-66.5
X101.4Y-68.7
X106.4Y-53.7
X106.6Y-58.5
X106.6Y-63.4
T3
X92.35Y-55.466
X92.45Y-67.534
X94.99Y-67.534
X97.53Y-67.534
X97.6Y-63.0
X100.07Y-67.534
X100.14Y-63.0
X102.61Y-67.534
X105.15Y-67.534
X105.35Y-55.466
T2
X94.51Y-51.366G85X94.51Y-50.566
G05
X94.51Y-55.696G85X94.51Y-54.596
G05
X103.15Y-51.366G85X103.15Y-50.566
G05
X103.15Y-55.696G85X103.15Y-54.596
G05
T0
M30
