G04 #@! TF.GenerationSoftware,KiCad,Pcbnew,7.0.7*
G04 #@! TF.CreationDate,2024-02-23T23:35:20+01:00*
G04 #@! TF.ProjectId,SL_USB-TypeC-Breakout,534c5f55-5342-42d5-9479-7065432d4272,v1.0*
G04 #@! TF.SameCoordinates,Original*
G04 #@! TF.FileFunction,Legend,Bot*
G04 #@! TF.FilePolarity,Positive*
%FSLAX46Y46*%
G04 Gerber Fmt 4.6, Leading zero omitted, Abs format (unit mm)*
G04 Created by KiCad (PCBNEW 7.0.7) date 2024-02-23 23:35:20*
%MOMM*%
%LPD*%
G01*
G04 APERTURE LIST*
%ADD10C,1.000000*%
%ADD11C,0.150000*%
%ADD12C,0.100000*%
%ADD13C,2.000000*%
%ADD14C,3.200000*%
%ADD15O,1.700000X1.700000*%
%ADD16R,1.700000X1.700000*%
%ADD17C,0.650000*%
%ADD18O,1.000000X2.100000*%
%ADD19O,1.000000X1.800000*%
G04 APERTURE END LIST*
D10*
X103850000Y-49466250D02*
X106850000Y-49466250D01*
X106850000Y-69466200D02*
G75*
G03*
X107350000Y-68966250I0J500000D01*
G01*
X90350000Y-62966250D02*
X90350000Y-68966250D01*
X98850000Y-69466250D02*
X106850000Y-69466250D01*
X103850000Y-59366250D02*
G75*
G03*
X103850000Y-62466250I0J-1550000D01*
G01*
X90850000Y-49466300D02*
G75*
G03*
X90350000Y-49966250I0J-500000D01*
G01*
X103350000Y-49966250D02*
X103850000Y-49466250D01*
X107350050Y-62966250D02*
G75*
G03*
X106850000Y-62466250I-500050J-50D01*
G01*
X107350000Y-49966250D02*
X107350000Y-58966250D01*
X90349950Y-68966250D02*
G75*
G03*
X90850000Y-69466250I500050J50D01*
G01*
X90350064Y-58966240D02*
G75*
G03*
X90850000Y-59366249I466436J70540D01*
G01*
X90850000Y-59366250D02*
X93850000Y-59366250D01*
X90350000Y-58966250D02*
X90350000Y-49966250D01*
X93850000Y-49466250D02*
X94350000Y-49966250D01*
X90850000Y-49466250D02*
X93850000Y-49466250D01*
X106850000Y-59366250D02*
G75*
G03*
X107350000Y-58966250I31800J472750D01*
G01*
X90850000Y-69466250D02*
X98850000Y-69466250D01*
X106850000Y-62466250D02*
X103850000Y-62466250D01*
X106850000Y-59366250D02*
X103850000Y-59366250D01*
X93850000Y-62466250D02*
G75*
G03*
X93850000Y-59366250I0J1550000D01*
G01*
X94350000Y-49966250D02*
X103350000Y-49966250D01*
X90850000Y-62466250D02*
X93850000Y-62466250D01*
X90850000Y-62466300D02*
G75*
G03*
X90350000Y-62966250I0J-500000D01*
G01*
X107350000Y-68966250D02*
X107350000Y-62966250D01*
X107350050Y-49966250D02*
G75*
G03*
X106850000Y-49466250I-500050J-50D01*
G01*
D11*
X93109523Y-65200390D02*
X93185713Y-65162295D01*
X93185713Y-65162295D02*
X93299999Y-65162295D01*
X93299999Y-65162295D02*
X93414285Y-65200390D01*
X93414285Y-65200390D02*
X93490475Y-65276580D01*
X93490475Y-65276580D02*
X93528570Y-65352771D01*
X93528570Y-65352771D02*
X93566666Y-65505152D01*
X93566666Y-65505152D02*
X93566666Y-65619438D01*
X93566666Y-65619438D02*
X93528570Y-65771819D01*
X93528570Y-65771819D02*
X93490475Y-65848009D01*
X93490475Y-65848009D02*
X93414285Y-65924200D01*
X93414285Y-65924200D02*
X93299999Y-65962295D01*
X93299999Y-65962295D02*
X93223808Y-65962295D01*
X93223808Y-65962295D02*
X93109523Y-65924200D01*
X93109523Y-65924200D02*
X93071427Y-65886104D01*
X93071427Y-65886104D02*
X93071427Y-65619438D01*
X93071427Y-65619438D02*
X93223808Y-65619438D01*
X92728570Y-65962295D02*
X92728570Y-65162295D01*
X92728570Y-65162295D02*
X92271427Y-65962295D01*
X92271427Y-65962295D02*
X92271427Y-65162295D01*
X91890475Y-65962295D02*
X91890475Y-65162295D01*
X91890475Y-65162295D02*
X91699999Y-65162295D01*
X91699999Y-65162295D02*
X91585713Y-65200390D01*
X91585713Y-65200390D02*
X91509523Y-65276580D01*
X91509523Y-65276580D02*
X91471428Y-65352771D01*
X91471428Y-65352771D02*
X91433332Y-65505152D01*
X91433332Y-65505152D02*
X91433332Y-65619438D01*
X91433332Y-65619438D02*
X91471428Y-65771819D01*
X91471428Y-65771819D02*
X91509523Y-65848009D01*
X91509523Y-65848009D02*
X91585713Y-65924200D01*
X91585713Y-65924200D02*
X91699999Y-65962295D01*
X91699999Y-65962295D02*
X91890475Y-65962295D01*
D12*
X95399999Y-65815228D02*
X95428571Y-65843800D01*
X95428571Y-65843800D02*
X95514285Y-65872371D01*
X95514285Y-65872371D02*
X95571428Y-65872371D01*
X95571428Y-65872371D02*
X95657142Y-65843800D01*
X95657142Y-65843800D02*
X95714285Y-65786657D01*
X95714285Y-65786657D02*
X95742856Y-65729514D01*
X95742856Y-65729514D02*
X95771428Y-65615228D01*
X95771428Y-65615228D02*
X95771428Y-65529514D01*
X95771428Y-65529514D02*
X95742856Y-65415228D01*
X95742856Y-65415228D02*
X95714285Y-65358085D01*
X95714285Y-65358085D02*
X95657142Y-65300942D01*
X95657142Y-65300942D02*
X95571428Y-65272371D01*
X95571428Y-65272371D02*
X95514285Y-65272371D01*
X95514285Y-65272371D02*
X95428571Y-65300942D01*
X95428571Y-65300942D02*
X95399999Y-65329514D01*
X94799999Y-65815228D02*
X94828571Y-65843800D01*
X94828571Y-65843800D02*
X94914285Y-65872371D01*
X94914285Y-65872371D02*
X94971428Y-65872371D01*
X94971428Y-65872371D02*
X95057142Y-65843800D01*
X95057142Y-65843800D02*
X95114285Y-65786657D01*
X95114285Y-65786657D02*
X95142856Y-65729514D01*
X95142856Y-65729514D02*
X95171428Y-65615228D01*
X95171428Y-65615228D02*
X95171428Y-65529514D01*
X95171428Y-65529514D02*
X95142856Y-65415228D01*
X95142856Y-65415228D02*
X95114285Y-65358085D01*
X95114285Y-65358085D02*
X95057142Y-65300942D01*
X95057142Y-65300942D02*
X94971428Y-65272371D01*
X94971428Y-65272371D02*
X94914285Y-65272371D01*
X94914285Y-65272371D02*
X94828571Y-65300942D01*
X94828571Y-65300942D02*
X94799999Y-65329514D01*
X94228571Y-65872371D02*
X94571428Y-65872371D01*
X94399999Y-65872371D02*
X94399999Y-65272371D01*
X94399999Y-65272371D02*
X94457142Y-65358085D01*
X94457142Y-65358085D02*
X94514285Y-65415228D01*
X94514285Y-65415228D02*
X94571428Y-65443800D01*
D11*
X105352380Y-65162295D02*
X105733332Y-65162295D01*
X105733332Y-65162295D02*
X105771428Y-65543247D01*
X105771428Y-65543247D02*
X105733332Y-65505152D01*
X105733332Y-65505152D02*
X105657142Y-65467057D01*
X105657142Y-65467057D02*
X105466666Y-65467057D01*
X105466666Y-65467057D02*
X105390475Y-65505152D01*
X105390475Y-65505152D02*
X105352380Y-65543247D01*
X105352380Y-65543247D02*
X105314285Y-65619438D01*
X105314285Y-65619438D02*
X105314285Y-65809914D01*
X105314285Y-65809914D02*
X105352380Y-65886104D01*
X105352380Y-65886104D02*
X105390475Y-65924200D01*
X105390475Y-65924200D02*
X105466666Y-65962295D01*
X105466666Y-65962295D02*
X105657142Y-65962295D01*
X105657142Y-65962295D02*
X105733332Y-65924200D01*
X105733332Y-65924200D02*
X105771428Y-65886104D01*
X105085713Y-65162295D02*
X104819046Y-65962295D01*
X104819046Y-65962295D02*
X104552380Y-65162295D01*
X100804761Y-65962295D02*
X100804761Y-65162295D01*
X100804761Y-65162295D02*
X100614285Y-65162295D01*
X100614285Y-65162295D02*
X100499999Y-65200390D01*
X100499999Y-65200390D02*
X100423809Y-65276580D01*
X100423809Y-65276580D02*
X100385714Y-65352771D01*
X100385714Y-65352771D02*
X100347618Y-65505152D01*
X100347618Y-65505152D02*
X100347618Y-65619438D01*
X100347618Y-65619438D02*
X100385714Y-65771819D01*
X100385714Y-65771819D02*
X100423809Y-65848009D01*
X100423809Y-65848009D02*
X100499999Y-65924200D01*
X100499999Y-65924200D02*
X100614285Y-65962295D01*
X100614285Y-65962295D02*
X100804761Y-65962295D01*
X100004761Y-65657533D02*
X99395238Y-65657533D01*
X99699999Y-65962295D02*
X99699999Y-65352771D01*
D12*
X105552300Y-51406727D02*
X105576109Y-51478155D01*
X105576109Y-51478155D02*
X105576109Y-51597203D01*
X105576109Y-51597203D02*
X105552300Y-51644822D01*
X105552300Y-51644822D02*
X105528490Y-51668631D01*
X105528490Y-51668631D02*
X105480871Y-51692441D01*
X105480871Y-51692441D02*
X105433252Y-51692441D01*
X105433252Y-51692441D02*
X105385633Y-51668631D01*
X105385633Y-51668631D02*
X105361823Y-51644822D01*
X105361823Y-51644822D02*
X105338014Y-51597203D01*
X105338014Y-51597203D02*
X105314204Y-51501965D01*
X105314204Y-51501965D02*
X105290395Y-51454346D01*
X105290395Y-51454346D02*
X105266585Y-51430536D01*
X105266585Y-51430536D02*
X105218966Y-51406727D01*
X105218966Y-51406727D02*
X105171347Y-51406727D01*
X105171347Y-51406727D02*
X105123728Y-51430536D01*
X105123728Y-51430536D02*
X105099919Y-51454346D01*
X105099919Y-51454346D02*
X105076109Y-51501965D01*
X105076109Y-51501965D02*
X105076109Y-51621012D01*
X105076109Y-51621012D02*
X105099919Y-51692441D01*
X105576109Y-51906726D02*
X105076109Y-51906726D01*
X105576109Y-52121012D02*
X105314204Y-52121012D01*
X105314204Y-52121012D02*
X105266585Y-52097202D01*
X105266585Y-52097202D02*
X105242776Y-52049583D01*
X105242776Y-52049583D02*
X105242776Y-51978155D01*
X105242776Y-51978155D02*
X105266585Y-51930536D01*
X105266585Y-51930536D02*
X105290395Y-51906726D01*
X105576109Y-52359107D02*
X105242776Y-52359107D01*
X105076109Y-52359107D02*
X105099919Y-52335298D01*
X105099919Y-52335298D02*
X105123728Y-52359107D01*
X105123728Y-52359107D02*
X105099919Y-52382917D01*
X105099919Y-52382917D02*
X105076109Y-52359107D01*
X105076109Y-52359107D02*
X105123728Y-52359107D01*
X105552300Y-52787678D02*
X105576109Y-52740059D01*
X105576109Y-52740059D02*
X105576109Y-52644821D01*
X105576109Y-52644821D02*
X105552300Y-52597202D01*
X105552300Y-52597202D02*
X105504680Y-52573393D01*
X105504680Y-52573393D02*
X105314204Y-52573393D01*
X105314204Y-52573393D02*
X105266585Y-52597202D01*
X105266585Y-52597202D02*
X105242776Y-52644821D01*
X105242776Y-52644821D02*
X105242776Y-52740059D01*
X105242776Y-52740059D02*
X105266585Y-52787678D01*
X105266585Y-52787678D02*
X105314204Y-52811488D01*
X105314204Y-52811488D02*
X105361823Y-52811488D01*
X105361823Y-52811488D02*
X105409442Y-52573393D01*
X105576109Y-53097202D02*
X105552300Y-53049583D01*
X105552300Y-53049583D02*
X105504680Y-53025773D01*
X105504680Y-53025773D02*
X105076109Y-53025773D01*
X105576109Y-53501964D02*
X105076109Y-53501964D01*
X105552300Y-53501964D02*
X105576109Y-53454345D01*
X105576109Y-53454345D02*
X105576109Y-53359107D01*
X105576109Y-53359107D02*
X105552300Y-53311488D01*
X105552300Y-53311488D02*
X105528490Y-53287678D01*
X105528490Y-53287678D02*
X105480871Y-53263869D01*
X105480871Y-53263869D02*
X105338014Y-53263869D01*
X105338014Y-53263869D02*
X105290395Y-53287678D01*
X105290395Y-53287678D02*
X105266585Y-53311488D01*
X105266585Y-53311488D02*
X105242776Y-53359107D01*
X105242776Y-53359107D02*
X105242776Y-53454345D01*
X105242776Y-53454345D02*
X105266585Y-53501964D01*
X97899999Y-65815228D02*
X97928571Y-65843800D01*
X97928571Y-65843800D02*
X98014285Y-65872371D01*
X98014285Y-65872371D02*
X98071428Y-65872371D01*
X98071428Y-65872371D02*
X98157142Y-65843800D01*
X98157142Y-65843800D02*
X98214285Y-65786657D01*
X98214285Y-65786657D02*
X98242856Y-65729514D01*
X98242856Y-65729514D02*
X98271428Y-65615228D01*
X98271428Y-65615228D02*
X98271428Y-65529514D01*
X98271428Y-65529514D02*
X98242856Y-65415228D01*
X98242856Y-65415228D02*
X98214285Y-65358085D01*
X98214285Y-65358085D02*
X98157142Y-65300942D01*
X98157142Y-65300942D02*
X98071428Y-65272371D01*
X98071428Y-65272371D02*
X98014285Y-65272371D01*
X98014285Y-65272371D02*
X97928571Y-65300942D01*
X97928571Y-65300942D02*
X97899999Y-65329514D01*
X97299999Y-65815228D02*
X97328571Y-65843800D01*
X97328571Y-65843800D02*
X97414285Y-65872371D01*
X97414285Y-65872371D02*
X97471428Y-65872371D01*
X97471428Y-65872371D02*
X97557142Y-65843800D01*
X97557142Y-65843800D02*
X97614285Y-65786657D01*
X97614285Y-65786657D02*
X97642856Y-65729514D01*
X97642856Y-65729514D02*
X97671428Y-65615228D01*
X97671428Y-65615228D02*
X97671428Y-65529514D01*
X97671428Y-65529514D02*
X97642856Y-65415228D01*
X97642856Y-65415228D02*
X97614285Y-65358085D01*
X97614285Y-65358085D02*
X97557142Y-65300942D01*
X97557142Y-65300942D02*
X97471428Y-65272371D01*
X97471428Y-65272371D02*
X97414285Y-65272371D01*
X97414285Y-65272371D02*
X97328571Y-65300942D01*
X97328571Y-65300942D02*
X97299999Y-65329514D01*
X97071428Y-65329514D02*
X97042856Y-65300942D01*
X97042856Y-65300942D02*
X96985714Y-65272371D01*
X96985714Y-65272371D02*
X96842856Y-65272371D01*
X96842856Y-65272371D02*
X96785714Y-65300942D01*
X96785714Y-65300942D02*
X96757142Y-65329514D01*
X96757142Y-65329514D02*
X96728571Y-65386657D01*
X96728571Y-65386657D02*
X96728571Y-65443800D01*
X96728571Y-65443800D02*
X96757142Y-65529514D01*
X96757142Y-65529514D02*
X97099999Y-65872371D01*
X97099999Y-65872371D02*
X96728571Y-65872371D01*
D11*
X103304761Y-65962295D02*
X103304761Y-65162295D01*
X103304761Y-65162295D02*
X103114285Y-65162295D01*
X103114285Y-65162295D02*
X102999999Y-65200390D01*
X102999999Y-65200390D02*
X102923809Y-65276580D01*
X102923809Y-65276580D02*
X102885714Y-65352771D01*
X102885714Y-65352771D02*
X102847618Y-65505152D01*
X102847618Y-65505152D02*
X102847618Y-65619438D01*
X102847618Y-65619438D02*
X102885714Y-65771819D01*
X102885714Y-65771819D02*
X102923809Y-65848009D01*
X102923809Y-65848009D02*
X102999999Y-65924200D01*
X102999999Y-65924200D02*
X103114285Y-65962295D01*
X103114285Y-65962295D02*
X103304761Y-65962295D01*
X102504761Y-65657533D02*
X101895238Y-65657533D01*
D12*
X92147700Y-53525772D02*
X92123890Y-53454344D01*
X92123890Y-53454344D02*
X92123890Y-53335296D01*
X92123890Y-53335296D02*
X92147700Y-53287677D01*
X92147700Y-53287677D02*
X92171509Y-53263868D01*
X92171509Y-53263868D02*
X92219128Y-53240058D01*
X92219128Y-53240058D02*
X92266747Y-53240058D01*
X92266747Y-53240058D02*
X92314366Y-53263868D01*
X92314366Y-53263868D02*
X92338176Y-53287677D01*
X92338176Y-53287677D02*
X92361985Y-53335296D01*
X92361985Y-53335296D02*
X92385795Y-53430534D01*
X92385795Y-53430534D02*
X92409604Y-53478153D01*
X92409604Y-53478153D02*
X92433414Y-53501963D01*
X92433414Y-53501963D02*
X92481033Y-53525772D01*
X92481033Y-53525772D02*
X92528652Y-53525772D01*
X92528652Y-53525772D02*
X92576271Y-53501963D01*
X92576271Y-53501963D02*
X92600080Y-53478153D01*
X92600080Y-53478153D02*
X92623890Y-53430534D01*
X92623890Y-53430534D02*
X92623890Y-53311487D01*
X92623890Y-53311487D02*
X92600080Y-53240058D01*
X92123890Y-53025773D02*
X92623890Y-53025773D01*
X92123890Y-52811487D02*
X92385795Y-52811487D01*
X92385795Y-52811487D02*
X92433414Y-52835297D01*
X92433414Y-52835297D02*
X92457223Y-52882916D01*
X92457223Y-52882916D02*
X92457223Y-52954344D01*
X92457223Y-52954344D02*
X92433414Y-53001963D01*
X92433414Y-53001963D02*
X92409604Y-53025773D01*
X92123890Y-52573392D02*
X92457223Y-52573392D01*
X92623890Y-52573392D02*
X92600080Y-52597201D01*
X92600080Y-52597201D02*
X92576271Y-52573392D01*
X92576271Y-52573392D02*
X92600080Y-52549582D01*
X92600080Y-52549582D02*
X92623890Y-52573392D01*
X92623890Y-52573392D02*
X92576271Y-52573392D01*
X92147700Y-52144821D02*
X92123890Y-52192440D01*
X92123890Y-52192440D02*
X92123890Y-52287678D01*
X92123890Y-52287678D02*
X92147700Y-52335297D01*
X92147700Y-52335297D02*
X92195319Y-52359106D01*
X92195319Y-52359106D02*
X92385795Y-52359106D01*
X92385795Y-52359106D02*
X92433414Y-52335297D01*
X92433414Y-52335297D02*
X92457223Y-52287678D01*
X92457223Y-52287678D02*
X92457223Y-52192440D01*
X92457223Y-52192440D02*
X92433414Y-52144821D01*
X92433414Y-52144821D02*
X92385795Y-52121011D01*
X92385795Y-52121011D02*
X92338176Y-52121011D01*
X92338176Y-52121011D02*
X92290557Y-52359106D01*
X92123890Y-51835297D02*
X92147700Y-51882916D01*
X92147700Y-51882916D02*
X92195319Y-51906726D01*
X92195319Y-51906726D02*
X92623890Y-51906726D01*
X92123890Y-51430535D02*
X92623890Y-51430535D01*
X92147700Y-51430535D02*
X92123890Y-51478154D01*
X92123890Y-51478154D02*
X92123890Y-51573392D01*
X92123890Y-51573392D02*
X92147700Y-51621011D01*
X92147700Y-51621011D02*
X92171509Y-51644821D01*
X92171509Y-51644821D02*
X92219128Y-51668630D01*
X92219128Y-51668630D02*
X92361985Y-51668630D01*
X92361985Y-51668630D02*
X92409604Y-51644821D01*
X92409604Y-51644821D02*
X92433414Y-51621011D01*
X92433414Y-51621011D02*
X92457223Y-51573392D01*
X92457223Y-51573392D02*
X92457223Y-51478154D01*
X92457223Y-51478154D02*
X92433414Y-51430535D01*
X98371428Y-61143800D02*
X98285714Y-61172371D01*
X98285714Y-61172371D02*
X98142856Y-61172371D01*
X98142856Y-61172371D02*
X98085714Y-61143800D01*
X98085714Y-61143800D02*
X98057142Y-61115228D01*
X98057142Y-61115228D02*
X98028571Y-61058085D01*
X98028571Y-61058085D02*
X98028571Y-61000942D01*
X98028571Y-61000942D02*
X98057142Y-60943800D01*
X98057142Y-60943800D02*
X98085714Y-60915228D01*
X98085714Y-60915228D02*
X98142856Y-60886657D01*
X98142856Y-60886657D02*
X98257142Y-60858085D01*
X98257142Y-60858085D02*
X98314285Y-60829514D01*
X98314285Y-60829514D02*
X98342856Y-60800942D01*
X98342856Y-60800942D02*
X98371428Y-60743800D01*
X98371428Y-60743800D02*
X98371428Y-60686657D01*
X98371428Y-60686657D02*
X98342856Y-60629514D01*
X98342856Y-60629514D02*
X98314285Y-60600942D01*
X98314285Y-60600942D02*
X98257142Y-60572371D01*
X98257142Y-60572371D02*
X98114285Y-60572371D01*
X98114285Y-60572371D02*
X98028571Y-60600942D01*
X97571427Y-60858085D02*
X97485713Y-60886657D01*
X97485713Y-60886657D02*
X97457142Y-60915228D01*
X97457142Y-60915228D02*
X97428570Y-60972371D01*
X97428570Y-60972371D02*
X97428570Y-61058085D01*
X97428570Y-61058085D02*
X97457142Y-61115228D01*
X97457142Y-61115228D02*
X97485713Y-61143800D01*
X97485713Y-61143800D02*
X97542856Y-61172371D01*
X97542856Y-61172371D02*
X97771427Y-61172371D01*
X97771427Y-61172371D02*
X97771427Y-60572371D01*
X97771427Y-60572371D02*
X97571427Y-60572371D01*
X97571427Y-60572371D02*
X97514285Y-60600942D01*
X97514285Y-60600942D02*
X97485713Y-60629514D01*
X97485713Y-60629514D02*
X97457142Y-60686657D01*
X97457142Y-60686657D02*
X97457142Y-60743800D01*
X97457142Y-60743800D02*
X97485713Y-60800942D01*
X97485713Y-60800942D02*
X97514285Y-60829514D01*
X97514285Y-60829514D02*
X97571427Y-60858085D01*
X97571427Y-60858085D02*
X97771427Y-60858085D01*
X97171427Y-60572371D02*
X97171427Y-61058085D01*
X97171427Y-61058085D02*
X97142856Y-61115228D01*
X97142856Y-61115228D02*
X97114285Y-61143800D01*
X97114285Y-61143800D02*
X97057142Y-61172371D01*
X97057142Y-61172371D02*
X96942856Y-61172371D01*
X96942856Y-61172371D02*
X96885713Y-61143800D01*
X96885713Y-61143800D02*
X96857142Y-61115228D01*
X96857142Y-61115228D02*
X96828570Y-61058085D01*
X96828570Y-61058085D02*
X96828570Y-60572371D01*
X96228571Y-61172371D02*
X96571428Y-61172371D01*
X96399999Y-61172371D02*
X96399999Y-60572371D01*
X96399999Y-60572371D02*
X96457142Y-60658085D01*
X96457142Y-60658085D02*
X96514285Y-60715228D01*
X96514285Y-60715228D02*
X96571428Y-60743800D01*
X101371428Y-61143800D02*
X101285714Y-61172371D01*
X101285714Y-61172371D02*
X101142856Y-61172371D01*
X101142856Y-61172371D02*
X101085714Y-61143800D01*
X101085714Y-61143800D02*
X101057142Y-61115228D01*
X101057142Y-61115228D02*
X101028571Y-61058085D01*
X101028571Y-61058085D02*
X101028571Y-61000942D01*
X101028571Y-61000942D02*
X101057142Y-60943800D01*
X101057142Y-60943800D02*
X101085714Y-60915228D01*
X101085714Y-60915228D02*
X101142856Y-60886657D01*
X101142856Y-60886657D02*
X101257142Y-60858085D01*
X101257142Y-60858085D02*
X101314285Y-60829514D01*
X101314285Y-60829514D02*
X101342856Y-60800942D01*
X101342856Y-60800942D02*
X101371428Y-60743800D01*
X101371428Y-60743800D02*
X101371428Y-60686657D01*
X101371428Y-60686657D02*
X101342856Y-60629514D01*
X101342856Y-60629514D02*
X101314285Y-60600942D01*
X101314285Y-60600942D02*
X101257142Y-60572371D01*
X101257142Y-60572371D02*
X101114285Y-60572371D01*
X101114285Y-60572371D02*
X101028571Y-60600942D01*
X100571427Y-60858085D02*
X100485713Y-60886657D01*
X100485713Y-60886657D02*
X100457142Y-60915228D01*
X100457142Y-60915228D02*
X100428570Y-60972371D01*
X100428570Y-60972371D02*
X100428570Y-61058085D01*
X100428570Y-61058085D02*
X100457142Y-61115228D01*
X100457142Y-61115228D02*
X100485713Y-61143800D01*
X100485713Y-61143800D02*
X100542856Y-61172371D01*
X100542856Y-61172371D02*
X100771427Y-61172371D01*
X100771427Y-61172371D02*
X100771427Y-60572371D01*
X100771427Y-60572371D02*
X100571427Y-60572371D01*
X100571427Y-60572371D02*
X100514285Y-60600942D01*
X100514285Y-60600942D02*
X100485713Y-60629514D01*
X100485713Y-60629514D02*
X100457142Y-60686657D01*
X100457142Y-60686657D02*
X100457142Y-60743800D01*
X100457142Y-60743800D02*
X100485713Y-60800942D01*
X100485713Y-60800942D02*
X100514285Y-60829514D01*
X100514285Y-60829514D02*
X100571427Y-60858085D01*
X100571427Y-60858085D02*
X100771427Y-60858085D01*
X100171427Y-60572371D02*
X100171427Y-61058085D01*
X100171427Y-61058085D02*
X100142856Y-61115228D01*
X100142856Y-61115228D02*
X100114285Y-61143800D01*
X100114285Y-61143800D02*
X100057142Y-61172371D01*
X100057142Y-61172371D02*
X99942856Y-61172371D01*
X99942856Y-61172371D02*
X99885713Y-61143800D01*
X99885713Y-61143800D02*
X99857142Y-61115228D01*
X99857142Y-61115228D02*
X99828570Y-61058085D01*
X99828570Y-61058085D02*
X99828570Y-60572371D01*
X99571428Y-60629514D02*
X99542856Y-60600942D01*
X99542856Y-60600942D02*
X99485714Y-60572371D01*
X99485714Y-60572371D02*
X99342856Y-60572371D01*
X99342856Y-60572371D02*
X99285714Y-60600942D01*
X99285714Y-60600942D02*
X99257142Y-60629514D01*
X99257142Y-60629514D02*
X99228571Y-60686657D01*
X99228571Y-60686657D02*
X99228571Y-60743800D01*
X99228571Y-60743800D02*
X99257142Y-60829514D01*
X99257142Y-60829514D02*
X99599999Y-61172371D01*
X99599999Y-61172371D02*
X99228571Y-61172371D01*
G36*
X97842936Y-57139012D02*
G01*
X97858513Y-57141759D01*
X97871185Y-57147343D01*
X97881116Y-57155850D01*
X97888468Y-57167365D01*
X97893997Y-57179158D01*
X97894605Y-57592284D01*
X97894616Y-57600441D01*
X97894686Y-57656867D01*
X97894727Y-57709164D01*
X97894741Y-57757351D01*
X97894727Y-57801448D01*
X97894686Y-57841475D01*
X97894616Y-57877453D01*
X97894519Y-57909399D01*
X97894393Y-57937335D01*
X97894239Y-57961281D01*
X97894058Y-57981255D01*
X97893847Y-57997278D01*
X97893609Y-58009370D01*
X97893342Y-58017550D01*
X97893046Y-58021838D01*
X97890745Y-58033549D01*
X97885417Y-58046857D01*
X97877470Y-58057035D01*
X97866777Y-58064232D01*
X97853210Y-58068599D01*
X97852783Y-58068659D01*
X97848552Y-58068891D01*
X97840514Y-58069109D01*
X97828944Y-58069310D01*
X97814120Y-58069492D01*
X97796318Y-58069655D01*
X97775813Y-58069795D01*
X97752882Y-58069912D01*
X97727802Y-58070004D01*
X97700848Y-58070069D01*
X97672298Y-58070105D01*
X97642426Y-58070111D01*
X97611511Y-58070084D01*
X97378850Y-58069767D01*
X97366611Y-58063507D01*
X97366260Y-58063326D01*
X97355235Y-58055574D01*
X97347264Y-58045314D01*
X97342300Y-58032419D01*
X97340293Y-58016764D01*
X97341194Y-57998225D01*
X97343011Y-57988306D01*
X97347840Y-57976447D01*
X97355586Y-57967118D01*
X97366610Y-57959770D01*
X97378849Y-57953510D01*
X97776649Y-57952352D01*
X97777194Y-57564717D01*
X97777740Y-57177082D01*
X97782065Y-57167740D01*
X97784407Y-57163322D01*
X97792998Y-57152899D01*
X97804425Y-57145157D01*
X97818257Y-57140336D01*
X97834067Y-57138676D01*
X97842936Y-57139012D01*
G37*
G36*
X102527346Y-57140987D02*
G01*
X102567108Y-57141017D01*
X102610764Y-57141073D01*
X102658443Y-57141154D01*
X102998909Y-57141790D01*
X103007471Y-57146370D01*
X103016487Y-57152317D01*
X103024508Y-57161066D01*
X103029764Y-57172041D01*
X103032451Y-57185679D01*
X103032766Y-57202417D01*
X103032470Y-57207605D01*
X103030771Y-57220756D01*
X103027608Y-57230950D01*
X103022666Y-57238981D01*
X103015630Y-57245645D01*
X103013508Y-57247248D01*
X103010729Y-57249191D01*
X103007821Y-57250858D01*
X103004473Y-57252269D01*
X103000377Y-57253445D01*
X102995224Y-57254409D01*
X102988703Y-57255181D01*
X102980505Y-57255783D01*
X102970321Y-57256236D01*
X102957841Y-57256560D01*
X102942757Y-57256778D01*
X102924758Y-57256911D01*
X102903535Y-57256979D01*
X102878780Y-57257004D01*
X102850181Y-57257008D01*
X102711456Y-57257008D01*
X102710899Y-57643813D01*
X102710343Y-58030617D01*
X102704083Y-58042857D01*
X102703111Y-58044675D01*
X102694627Y-58055877D01*
X102683494Y-58063887D01*
X102669768Y-58068663D01*
X102662276Y-58069628D01*
X102650534Y-58069758D01*
X102638345Y-58068705D01*
X102627675Y-58066568D01*
X102621104Y-58063722D01*
X102612200Y-58057297D01*
X102604228Y-58048900D01*
X102598425Y-58039665D01*
X102594087Y-58030322D01*
X102592995Y-57257008D01*
X102446546Y-57257008D01*
X102418547Y-57257005D01*
X102394321Y-57256975D01*
X102373562Y-57256890D01*
X102355969Y-57256723D01*
X102341238Y-57256446D01*
X102329065Y-57256032D01*
X102319147Y-57255453D01*
X102311182Y-57254681D01*
X102304865Y-57253689D01*
X102299894Y-57252450D01*
X102295966Y-57250935D01*
X102292776Y-57249118D01*
X102290022Y-57246970D01*
X102287401Y-57244464D01*
X102284609Y-57241572D01*
X102280496Y-57236741D01*
X102274609Y-57226158D01*
X102271328Y-57213426D01*
X102270424Y-57197842D01*
X102270514Y-57193836D01*
X102271643Y-57181169D01*
X102274311Y-57171173D01*
X102278898Y-57162790D01*
X102285782Y-57154961D01*
X102292503Y-57149095D01*
X102299118Y-57145243D01*
X102306868Y-57142906D01*
X102307121Y-57142857D01*
X102310189Y-57142530D01*
X102315608Y-57142236D01*
X102323505Y-57141975D01*
X102334009Y-57141745D01*
X102347248Y-57141548D01*
X102363353Y-57141380D01*
X102382451Y-57141243D01*
X102404671Y-57141136D01*
X102430142Y-57141057D01*
X102458992Y-57141006D01*
X102491351Y-57140983D01*
X102527346Y-57140987D01*
G37*
G36*
X101921328Y-57138677D02*
G01*
X101950388Y-57138700D01*
X101976095Y-57138750D01*
X101998672Y-57138838D01*
X102018339Y-57138972D01*
X102035317Y-57139163D01*
X102049828Y-57139421D01*
X102062093Y-57139755D01*
X102072332Y-57140175D01*
X102080768Y-57140691D01*
X102087620Y-57141313D01*
X102093111Y-57142051D01*
X102097461Y-57142914D01*
X102100892Y-57143912D01*
X102103625Y-57145055D01*
X102105880Y-57146353D01*
X102107879Y-57147815D01*
X102109843Y-57149452D01*
X102111993Y-57151273D01*
X102113794Y-57152875D01*
X102119786Y-57159500D01*
X102124449Y-57166384D01*
X102129060Y-57175006D01*
X102129672Y-57599550D01*
X102129722Y-57636658D01*
X102129779Y-57687511D01*
X102129815Y-57734390D01*
X102129831Y-57777399D01*
X102129825Y-57816645D01*
X102129798Y-57852233D01*
X102129749Y-57884268D01*
X102129677Y-57912856D01*
X102129582Y-57938101D01*
X102129464Y-57960110D01*
X102129322Y-57978987D01*
X102129157Y-57994839D01*
X102128966Y-58007770D01*
X102128751Y-58017886D01*
X102128510Y-58025293D01*
X102128243Y-58030095D01*
X102127950Y-58032398D01*
X102122468Y-58045130D01*
X102113663Y-58055925D01*
X102102116Y-58063882D01*
X102088273Y-58068597D01*
X102085517Y-58068802D01*
X102078763Y-58069014D01*
X102068357Y-58069212D01*
X102054558Y-58069394D01*
X102037629Y-58069559D01*
X102017829Y-58069705D01*
X101995419Y-58069831D01*
X101970662Y-58069935D01*
X101943816Y-58070016D01*
X101915143Y-58070073D01*
X101884905Y-58070104D01*
X101853361Y-58070107D01*
X101820772Y-58070082D01*
X101562309Y-58069767D01*
X101550355Y-58063897D01*
X101545481Y-58061228D01*
X101534958Y-58052681D01*
X101527585Y-58041709D01*
X101523247Y-58028099D01*
X101521827Y-58011638D01*
X101522032Y-58005003D01*
X101524553Y-57989656D01*
X101530036Y-57977079D01*
X101538598Y-57967058D01*
X101550355Y-57959380D01*
X101562309Y-57953510D01*
X101788075Y-57952938D01*
X102013841Y-57952365D01*
X102013841Y-57659939D01*
X101869040Y-57659328D01*
X101724238Y-57658716D01*
X101712283Y-57652846D01*
X101705912Y-57649242D01*
X101695977Y-57640658D01*
X101689080Y-57629703D01*
X101685060Y-57616078D01*
X101683756Y-57599481D01*
X101683889Y-57594369D01*
X101686353Y-57578732D01*
X101691943Y-57565808D01*
X101700683Y-57555551D01*
X101712598Y-57547918D01*
X101724238Y-57542460D01*
X101869040Y-57541874D01*
X102013841Y-57541287D01*
X102013841Y-57254932D01*
X101788855Y-57254932D01*
X101773228Y-57254933D01*
X101738555Y-57254937D01*
X101707701Y-57254934D01*
X101680428Y-57254911D01*
X101656501Y-57254857D01*
X101635685Y-57254759D01*
X101617743Y-57254605D01*
X101602440Y-57254382D01*
X101589540Y-57254078D01*
X101578807Y-57253680D01*
X101570006Y-57253178D01*
X101562899Y-57252557D01*
X101557252Y-57251806D01*
X101552829Y-57250913D01*
X101549394Y-57249864D01*
X101546710Y-57248649D01*
X101544543Y-57247254D01*
X101542656Y-57245667D01*
X101540813Y-57243876D01*
X101538780Y-57241869D01*
X101533662Y-57236553D01*
X101528343Y-57229122D01*
X101525035Y-57220916D01*
X101523341Y-57210837D01*
X101522865Y-57197786D01*
X101522901Y-57191630D01*
X101523230Y-57183306D01*
X101524077Y-57177195D01*
X101525653Y-57172060D01*
X101528168Y-57166665D01*
X101529352Y-57164506D01*
X101537808Y-57153756D01*
X101548763Y-57145660D01*
X101561284Y-57140943D01*
X101563506Y-57140661D01*
X101569435Y-57140306D01*
X101578753Y-57139987D01*
X101591539Y-57139705D01*
X101607868Y-57139459D01*
X101627815Y-57139247D01*
X101651458Y-57139070D01*
X101678872Y-57138926D01*
X101710134Y-57138815D01*
X101745319Y-57138737D01*
X101784503Y-57138691D01*
X101827764Y-57138676D01*
X101852269Y-57138674D01*
X101888696Y-57138672D01*
X101921328Y-57138677D01*
G37*
G36*
X100525704Y-57140535D02*
G01*
X100539158Y-57145278D01*
X100550551Y-57152848D01*
X100559325Y-57162909D01*
X100564921Y-57175121D01*
X100565176Y-57176227D01*
X100565510Y-57178544D01*
X100565816Y-57181900D01*
X100566095Y-57186459D01*
X100566349Y-57192386D01*
X100566580Y-57199844D01*
X100566787Y-57208996D01*
X100566972Y-57220007D01*
X100567136Y-57233040D01*
X100567281Y-57248260D01*
X100567407Y-57265830D01*
X100567516Y-57285913D01*
X100567608Y-57308674D01*
X100567686Y-57334277D01*
X100567749Y-57362884D01*
X100567800Y-57394661D01*
X100567839Y-57429771D01*
X100567867Y-57468378D01*
X100567886Y-57510645D01*
X100567896Y-57556736D01*
X100567899Y-57606816D01*
X100567899Y-58028246D01*
X100563127Y-58038601D01*
X100558597Y-58046924D01*
X100549904Y-58057106D01*
X100538758Y-58064246D01*
X100524628Y-58068759D01*
X100522492Y-58069143D01*
X100512514Y-58069834D01*
X100501244Y-58069350D01*
X100490472Y-58067834D01*
X100481992Y-58065424D01*
X100472238Y-58059615D01*
X100462988Y-58050546D01*
X100456052Y-58039665D01*
X100451643Y-58030322D01*
X100449567Y-57366634D01*
X100260650Y-57610107D01*
X100248340Y-57625972D01*
X100224956Y-57656111D01*
X100201452Y-57686409D01*
X100178049Y-57716578D01*
X100154970Y-57746333D01*
X100132436Y-57775386D01*
X100110671Y-57803451D01*
X100089896Y-57830242D01*
X100070333Y-57855472D01*
X100052205Y-57878855D01*
X100035734Y-57900103D01*
X100021142Y-57918931D01*
X100008651Y-57935052D01*
X99998484Y-57948179D01*
X99988616Y-57960894D01*
X99975260Y-57978007D01*
X99962602Y-57994118D01*
X99950905Y-58008899D01*
X99940429Y-58022024D01*
X99931436Y-58033165D01*
X99924187Y-58041995D01*
X99918945Y-58048187D01*
X99915971Y-58051413D01*
X99908981Y-58057394D01*
X99897665Y-58064430D01*
X99885599Y-58068326D01*
X99871534Y-58069591D01*
X99861220Y-58069186D01*
X99848254Y-58066611D01*
X99837489Y-58061401D01*
X99828104Y-58053247D01*
X99826530Y-58051637D01*
X99824940Y-58050144D01*
X99823482Y-58048763D01*
X99822150Y-58047325D01*
X99820938Y-58045658D01*
X99819841Y-58043592D01*
X99818853Y-58040957D01*
X99817968Y-58037581D01*
X99817181Y-58033295D01*
X99816486Y-58027927D01*
X99815878Y-58021307D01*
X99815350Y-58013265D01*
X99814898Y-58003629D01*
X99814515Y-57992230D01*
X99814196Y-57978896D01*
X99813935Y-57963458D01*
X99813727Y-57945744D01*
X99813565Y-57925584D01*
X99813445Y-57902807D01*
X99813361Y-57877243D01*
X99813306Y-57848721D01*
X99813276Y-57817070D01*
X99813264Y-57782121D01*
X99813266Y-57743702D01*
X99813275Y-57701642D01*
X99813285Y-57655772D01*
X99813292Y-57605920D01*
X99813294Y-57588399D01*
X99813308Y-57547434D01*
X99813334Y-57507603D01*
X99813371Y-57469107D01*
X99813419Y-57432148D01*
X99813477Y-57396926D01*
X99813545Y-57363644D01*
X99813622Y-57332501D01*
X99813707Y-57303699D01*
X99813799Y-57277440D01*
X99813898Y-57253925D01*
X99814004Y-57233354D01*
X99814116Y-57215929D01*
X99814233Y-57201852D01*
X99814354Y-57191323D01*
X99814479Y-57184544D01*
X99814608Y-57181715D01*
X99815605Y-57177882D01*
X99818526Y-57170545D01*
X99822370Y-57163224D01*
X99827479Y-57156177D01*
X99837533Y-57147563D01*
X99850193Y-57141980D01*
X99865709Y-57139292D01*
X99874917Y-57139037D01*
X99890833Y-57141092D01*
X99904427Y-57146410D01*
X99915522Y-57154909D01*
X99923939Y-57166505D01*
X99928488Y-57175006D01*
X99929526Y-57509398D01*
X99930564Y-57843789D01*
X100192141Y-57506643D01*
X100207546Y-57486795D01*
X100232961Y-57454074D01*
X100257711Y-57422245D01*
X100281669Y-57391466D01*
X100304711Y-57361897D01*
X100326712Y-57333698D01*
X100347547Y-57307027D01*
X100367090Y-57282045D01*
X100385218Y-57258911D01*
X100401804Y-57237785D01*
X100416724Y-57218825D01*
X100429853Y-57202192D01*
X100441065Y-57188045D01*
X100450236Y-57176543D01*
X100457241Y-57167847D01*
X100461954Y-57162114D01*
X100464251Y-57159506D01*
X100468048Y-57156046D01*
X100480162Y-57147136D01*
X100492413Y-57141664D01*
X100505708Y-57139183D01*
X100510748Y-57138960D01*
X100525704Y-57140535D01*
G37*
G36*
X98964677Y-54416359D02*
G01*
X98971924Y-54437364D01*
X98979572Y-54459623D01*
X98986694Y-54480445D01*
X98993184Y-54499520D01*
X98998938Y-54516537D01*
X99003852Y-54531185D01*
X99007821Y-54543154D01*
X99010740Y-54552133D01*
X99012505Y-54557811D01*
X99013012Y-54559879D01*
X99011874Y-54559936D01*
X99006834Y-54560024D01*
X98997911Y-54560120D01*
X98985262Y-54560225D01*
X98969042Y-54560338D01*
X98949408Y-54560458D01*
X98926516Y-54560584D01*
X98900521Y-54560717D01*
X98871580Y-54560854D01*
X98839849Y-54560996D01*
X98805484Y-54561141D01*
X98768641Y-54561290D01*
X98729476Y-54561441D01*
X98688146Y-54561595D01*
X98644806Y-54561749D01*
X98599613Y-54561904D01*
X98552722Y-54562059D01*
X98504289Y-54562213D01*
X98454472Y-54562365D01*
X98403425Y-54562516D01*
X98351305Y-54562664D01*
X98289569Y-54562840D01*
X98221505Y-54563047D01*
X98157439Y-54563257D01*
X98097381Y-54563468D01*
X98041340Y-54563682D01*
X97989326Y-54563897D01*
X97941349Y-54564115D01*
X97897418Y-54564334D01*
X97857543Y-54564556D01*
X97821733Y-54564779D01*
X97789998Y-54565003D01*
X97762347Y-54565230D01*
X97738791Y-54565458D01*
X97719339Y-54565687D01*
X97704001Y-54565918D01*
X97692785Y-54566151D01*
X97685703Y-54566385D01*
X97682763Y-54566620D01*
X97677709Y-54568656D01*
X97675197Y-54571989D01*
X97676540Y-54576500D01*
X97681725Y-54582404D01*
X97683123Y-54583597D01*
X97687778Y-54587372D01*
X97695326Y-54593394D01*
X97705536Y-54601483D01*
X97718180Y-54611459D01*
X97733028Y-54623143D01*
X97749852Y-54636353D01*
X97768423Y-54650910D01*
X97788511Y-54666635D01*
X97809888Y-54683347D01*
X97832324Y-54700866D01*
X97855590Y-54719013D01*
X97872029Y-54731830D01*
X97894625Y-54749459D01*
X97916184Y-54766292D01*
X97936483Y-54782154D01*
X97955297Y-54796869D01*
X97972402Y-54810262D01*
X97987575Y-54822156D01*
X98000592Y-54832378D01*
X98011228Y-54840750D01*
X98019260Y-54847098D01*
X98024463Y-54851247D01*
X98026614Y-54853020D01*
X98026727Y-54853129D01*
X98027416Y-54853968D01*
X98027853Y-54855117D01*
X98027946Y-54856851D01*
X98027603Y-54859447D01*
X98026733Y-54863180D01*
X98025246Y-54868326D01*
X98023049Y-54875160D01*
X98020052Y-54883959D01*
X98016163Y-54894998D01*
X98011291Y-54908553D01*
X98005345Y-54924900D01*
X97998233Y-54944314D01*
X97989865Y-54967071D01*
X97980149Y-54993447D01*
X97974134Y-55009772D01*
X97966023Y-55031779D01*
X97958406Y-55052444D01*
X97951401Y-55071447D01*
X97945125Y-55088469D01*
X97939697Y-55103190D01*
X97935233Y-55115293D01*
X97931852Y-55124456D01*
X97929671Y-55130362D01*
X97928808Y-55132691D01*
X97927742Y-55133998D01*
X97924410Y-55133320D01*
X97923191Y-55132486D01*
X97918757Y-55129239D01*
X97911381Y-55123741D01*
X97901278Y-55116153D01*
X97888660Y-55106638D01*
X97873741Y-55095359D01*
X97856734Y-55082478D01*
X97837851Y-55068158D01*
X97817307Y-55052562D01*
X97795315Y-55035851D01*
X97772087Y-55018189D01*
X97747837Y-54999738D01*
X97722778Y-54980661D01*
X97697123Y-54961120D01*
X97671086Y-54941278D01*
X97644879Y-54921297D01*
X97618717Y-54901341D01*
X97592812Y-54881571D01*
X97567377Y-54862150D01*
X97542626Y-54843241D01*
X97518771Y-54825006D01*
X97496027Y-54807608D01*
X97474606Y-54791209D01*
X97454721Y-54775973D01*
X97436586Y-54762061D01*
X97420414Y-54749636D01*
X97406418Y-54738861D01*
X97394811Y-54729899D01*
X97385807Y-54722911D01*
X97379619Y-54718061D01*
X97376460Y-54715511D01*
X97361335Y-54701916D01*
X97338649Y-54678676D01*
X97318727Y-54654522D01*
X97301891Y-54629898D01*
X97288467Y-54605252D01*
X97278777Y-54581029D01*
X97272201Y-54555241D01*
X97268550Y-54525874D01*
X97268552Y-54495996D01*
X97272085Y-54466109D01*
X97279027Y-54436714D01*
X97289259Y-54408313D01*
X97302657Y-54381408D01*
X97319102Y-54356501D01*
X97338471Y-54334092D01*
X97353595Y-54320241D01*
X97377413Y-54303118D01*
X97403358Y-54289466D01*
X97431046Y-54279510D01*
X97447654Y-54274818D01*
X98915394Y-54273788D01*
X98964677Y-54416359D01*
G37*
G36*
X98804691Y-57140535D02*
G01*
X98818144Y-57145278D01*
X98829537Y-57152848D01*
X98838311Y-57162909D01*
X98843908Y-57175121D01*
X98844163Y-57176227D01*
X98844496Y-57178544D01*
X98844802Y-57181900D01*
X98845082Y-57186459D01*
X98845336Y-57192386D01*
X98845566Y-57199844D01*
X98845773Y-57208996D01*
X98845958Y-57220007D01*
X98846123Y-57233040D01*
X98846267Y-57248260D01*
X98846393Y-57265830D01*
X98846502Y-57285913D01*
X98846595Y-57308674D01*
X98846672Y-57334277D01*
X98846736Y-57362884D01*
X98846786Y-57394661D01*
X98846825Y-57429771D01*
X98846853Y-57468378D01*
X98846872Y-57510645D01*
X98846883Y-57556736D01*
X98846886Y-57606816D01*
X98846886Y-58028246D01*
X98842113Y-58038601D01*
X98837584Y-58046924D01*
X98828891Y-58057106D01*
X98817744Y-58064246D01*
X98803614Y-58068759D01*
X98801478Y-58069143D01*
X98791501Y-58069834D01*
X98780230Y-58069350D01*
X98769459Y-58067834D01*
X98760979Y-58065424D01*
X98751225Y-58059615D01*
X98741974Y-58050546D01*
X98735039Y-58039665D01*
X98730629Y-58030322D01*
X98728553Y-57366654D01*
X98468014Y-57702634D01*
X98453459Y-57721399D01*
X98428079Y-57754098D01*
X98403362Y-57785915D01*
X98379434Y-57816691D01*
X98356420Y-57846264D01*
X98334445Y-57874476D01*
X98313634Y-57901164D01*
X98294112Y-57926171D01*
X98276005Y-57949335D01*
X98259437Y-57970496D01*
X98244535Y-57989495D01*
X98231422Y-58006170D01*
X98220225Y-58020363D01*
X98211069Y-58031913D01*
X98204078Y-58040659D01*
X98199378Y-58046443D01*
X98197094Y-58049103D01*
X98188129Y-58057212D01*
X98176832Y-58064330D01*
X98164661Y-58068296D01*
X98150520Y-58069591D01*
X98140207Y-58069186D01*
X98127241Y-58066611D01*
X98116476Y-58061401D01*
X98107091Y-58053247D01*
X98105453Y-58051576D01*
X98103870Y-58050093D01*
X98102419Y-58048717D01*
X98101093Y-58047276D01*
X98099887Y-58045601D01*
X98098795Y-58043521D01*
X98097811Y-58040866D01*
X98096931Y-58037466D01*
X98096147Y-58033150D01*
X98095456Y-58027748D01*
X98094850Y-58021090D01*
X98094325Y-58013004D01*
X98093874Y-58003322D01*
X98093492Y-57991872D01*
X98093174Y-57978485D01*
X98092914Y-57962989D01*
X98092706Y-57945216D01*
X98092544Y-57924993D01*
X98092424Y-57902151D01*
X98092338Y-57876520D01*
X98092283Y-57847930D01*
X98092251Y-57816209D01*
X98092238Y-57781188D01*
X98092237Y-57742696D01*
X98092244Y-57700563D01*
X98092252Y-57654619D01*
X98092256Y-57604693D01*
X98092256Y-57591411D01*
X98092253Y-57542834D01*
X98092250Y-57498192D01*
X98092252Y-57457314D01*
X98092262Y-57420026D01*
X98092285Y-57386157D01*
X98092325Y-57355534D01*
X98092386Y-57327986D01*
X98092473Y-57303340D01*
X98092589Y-57281424D01*
X98092739Y-57262066D01*
X98092928Y-57245094D01*
X98093159Y-57230335D01*
X98093437Y-57217617D01*
X98093766Y-57206769D01*
X98094150Y-57197618D01*
X98094594Y-57189992D01*
X98095101Y-57183718D01*
X98095676Y-57178625D01*
X98096324Y-57174541D01*
X98097048Y-57171293D01*
X98097853Y-57168709D01*
X98098742Y-57166617D01*
X98099721Y-57164844D01*
X98100794Y-57163220D01*
X98101964Y-57161571D01*
X98103236Y-57159725D01*
X98106993Y-57155030D01*
X98116511Y-57147623D01*
X98128311Y-57142436D01*
X98141544Y-57139540D01*
X98155357Y-57139008D01*
X98168901Y-57140909D01*
X98181324Y-57145317D01*
X98191777Y-57152301D01*
X98194146Y-57154609D01*
X98199656Y-57161102D01*
X98203628Y-57167270D01*
X98203638Y-57167290D01*
X98204140Y-57168432D01*
X98204597Y-57169866D01*
X98205013Y-57171787D01*
X98205389Y-57174387D01*
X98205730Y-57177859D01*
X98206037Y-57182395D01*
X98206314Y-57188190D01*
X98206563Y-57195435D01*
X98206786Y-57204325D01*
X98206987Y-57215050D01*
X98207169Y-57227806D01*
X98207334Y-57242784D01*
X98207484Y-57260178D01*
X98207624Y-57280180D01*
X98207754Y-57302983D01*
X98207879Y-57328781D01*
X98208001Y-57357766D01*
X98208123Y-57390131D01*
X98208246Y-57426070D01*
X98208375Y-57465775D01*
X98208512Y-57509438D01*
X98209550Y-57843871D01*
X98471128Y-57506691D01*
X98486545Y-57486825D01*
X98511959Y-57454102D01*
X98536707Y-57422271D01*
X98560665Y-57391490D01*
X98583706Y-57361919D01*
X98605706Y-57333718D01*
X98626539Y-57307046D01*
X98646082Y-57282063D01*
X98664209Y-57258927D01*
X98680794Y-57237799D01*
X98695713Y-57218838D01*
X98708841Y-57202204D01*
X98720053Y-57188056D01*
X98729223Y-57176553D01*
X98736228Y-57167855D01*
X98740941Y-57162122D01*
X98743238Y-57159513D01*
X98747036Y-57156049D01*
X98759147Y-57147138D01*
X98771397Y-57141665D01*
X98784694Y-57139183D01*
X98789735Y-57138960D01*
X98804691Y-57140535D01*
G37*
G36*
X99206459Y-57138934D02*
G01*
X99238208Y-57138996D01*
X99273673Y-57139075D01*
X99313072Y-57139163D01*
X99573490Y-57139714D01*
X99585634Y-57145676D01*
X99588939Y-57147440D01*
X99599595Y-57155837D01*
X99607190Y-57166966D01*
X99611835Y-57180974D01*
X99611844Y-57181019D01*
X99612133Y-57184264D01*
X99612396Y-57190907D01*
X99612632Y-57201002D01*
X99612842Y-57214602D01*
X99613026Y-57231762D01*
X99613184Y-57252534D01*
X99613317Y-57276974D01*
X99613425Y-57305134D01*
X99613507Y-57337069D01*
X99613565Y-57372833D01*
X99613597Y-57412479D01*
X99613605Y-57456062D01*
X99613589Y-57503635D01*
X99613549Y-57555253D01*
X99613485Y-57610968D01*
X99613461Y-57629318D01*
X99613396Y-57677004D01*
X99613332Y-57720772D01*
X99613267Y-57760794D01*
X99613201Y-57797240D01*
X99613130Y-57830284D01*
X99613053Y-57860095D01*
X99612969Y-57886846D01*
X99612875Y-57910708D01*
X99612771Y-57931852D01*
X99612654Y-57950451D01*
X99612522Y-57966676D01*
X99612375Y-57980698D01*
X99612209Y-57992689D01*
X99612024Y-58002821D01*
X99611818Y-58011264D01*
X99611589Y-58018191D01*
X99611335Y-58023773D01*
X99611054Y-58028181D01*
X99610746Y-58031588D01*
X99610408Y-58034164D01*
X99610038Y-58036082D01*
X99609634Y-58037512D01*
X99609196Y-58038627D01*
X99606179Y-58044405D01*
X99597135Y-58055668D01*
X99585506Y-58063882D01*
X99571774Y-58068660D01*
X99569052Y-58068858D01*
X99562337Y-58069062D01*
X99551970Y-58069250D01*
X99538210Y-58069423D01*
X99521317Y-58069579D01*
X99501552Y-58069716D01*
X99479175Y-58069833D01*
X99454447Y-58069928D01*
X99427628Y-58070001D01*
X99398978Y-58070050D01*
X99368757Y-58070073D01*
X99337227Y-58070070D01*
X99304646Y-58070039D01*
X99273306Y-58069991D01*
X99237437Y-58069925D01*
X99205350Y-58069848D01*
X99176838Y-58069759D01*
X99151694Y-58069654D01*
X99129712Y-58069531D01*
X99110685Y-58069388D01*
X99094406Y-58069222D01*
X99080670Y-58069031D01*
X99069269Y-58068811D01*
X99059997Y-58068561D01*
X99052648Y-58068278D01*
X99047015Y-58067959D01*
X99042891Y-58067603D01*
X99040071Y-58067205D01*
X99038346Y-58066764D01*
X99030745Y-58063173D01*
X99020004Y-58054631D01*
X99011942Y-58043265D01*
X99006816Y-58029489D01*
X99004889Y-58013714D01*
X99005290Y-58001801D01*
X99007715Y-57989006D01*
X99012563Y-57978375D01*
X99020127Y-57969045D01*
X99021781Y-57967353D01*
X99023860Y-57965158D01*
X99025821Y-57963209D01*
X99027900Y-57961490D01*
X99030335Y-57959988D01*
X99033364Y-57958685D01*
X99037223Y-57957568D01*
X99042150Y-57956621D01*
X99048381Y-57955829D01*
X99056155Y-57955176D01*
X99065709Y-57954648D01*
X99077279Y-57954229D01*
X99091103Y-57953904D01*
X99107418Y-57953658D01*
X99126462Y-57953476D01*
X99148472Y-57953342D01*
X99173684Y-57953241D01*
X99202337Y-57953159D01*
X99234667Y-57953079D01*
X99270911Y-57952987D01*
X99495640Y-57952382D01*
X99495640Y-57659940D01*
X99208112Y-57658716D01*
X99195746Y-57652488D01*
X99189748Y-57649137D01*
X99179977Y-57641239D01*
X99173143Y-57631280D01*
X99168522Y-57618352D01*
X99166637Y-57608614D01*
X99166240Y-57592713D01*
X99169235Y-57578113D01*
X99175434Y-57565288D01*
X99184649Y-57554715D01*
X99196694Y-57546869D01*
X99197165Y-57546648D01*
X99199048Y-57545824D01*
X99201106Y-57545114D01*
X99203646Y-57544508D01*
X99206973Y-57543996D01*
X99211394Y-57543569D01*
X99217213Y-57543215D01*
X99224737Y-57542926D01*
X99234272Y-57542692D01*
X99246124Y-57542502D01*
X99260598Y-57542347D01*
X99278000Y-57542216D01*
X99298637Y-57542100D01*
X99322814Y-57541989D01*
X99350838Y-57541874D01*
X99495640Y-57541287D01*
X99495640Y-57254932D01*
X99270911Y-57254841D01*
X99265433Y-57254839D01*
X99229377Y-57254813D01*
X99197230Y-57254771D01*
X99168775Y-57254709D01*
X99143801Y-57254624D01*
X99122093Y-57254515D01*
X99103436Y-57254378D01*
X99087618Y-57254211D01*
X99074424Y-57254010D01*
X99063641Y-57253775D01*
X99055054Y-57253501D01*
X99048449Y-57253186D01*
X99043614Y-57252828D01*
X99040333Y-57252423D01*
X99038394Y-57251970D01*
X99030419Y-57248358D01*
X99019550Y-57239998D01*
X99011565Y-57228834D01*
X99006629Y-57215128D01*
X99004907Y-57199142D01*
X99005401Y-57187738D01*
X99008077Y-57174053D01*
X99013276Y-57162843D01*
X99021225Y-57153471D01*
X99021592Y-57153131D01*
X99023773Y-57151036D01*
X99025742Y-57149151D01*
X99027717Y-57147467D01*
X99029916Y-57145972D01*
X99032558Y-57144656D01*
X99035861Y-57143507D01*
X99040043Y-57142516D01*
X99045322Y-57141671D01*
X99051916Y-57140963D01*
X99060044Y-57140379D01*
X99069923Y-57139910D01*
X99081773Y-57139545D01*
X99095811Y-57139273D01*
X99112255Y-57139083D01*
X99131323Y-57138965D01*
X99153235Y-57138908D01*
X99178207Y-57138901D01*
X99206459Y-57138934D01*
G37*
G36*
X97141920Y-57766266D02*
G01*
X97154425Y-57797070D01*
X97166355Y-57826477D01*
X97177622Y-57854271D01*
X97188137Y-57880232D01*
X97197811Y-57904144D01*
X97206556Y-57925789D01*
X97214283Y-57944949D01*
X97220903Y-57961407D01*
X97226327Y-57974944D01*
X97230468Y-57985344D01*
X97233237Y-57992388D01*
X97234544Y-57995859D01*
X97234742Y-57996469D01*
X97236445Y-58005544D01*
X97236815Y-58016244D01*
X97235892Y-58026704D01*
X97233715Y-58035060D01*
X97228523Y-58044062D01*
X97218716Y-58053767D01*
X97205369Y-58061653D01*
X97188642Y-58067604D01*
X97186600Y-58068150D01*
X97179211Y-58069899D01*
X97173526Y-58070498D01*
X97167687Y-58070004D01*
X97159837Y-58068473D01*
X97157460Y-58067917D01*
X97151017Y-58065605D01*
X97145151Y-58061770D01*
X97138348Y-58055498D01*
X97135929Y-58053020D01*
X97133731Y-58050534D01*
X97131612Y-58047707D01*
X97129414Y-58044187D01*
X97126973Y-58039622D01*
X97124130Y-58033659D01*
X97120724Y-58025948D01*
X97116595Y-58016136D01*
X97111580Y-58003871D01*
X97105520Y-57988801D01*
X97098254Y-57970574D01*
X97089620Y-57948839D01*
X97051507Y-57852824D01*
X96627377Y-57852824D01*
X96591358Y-57940535D01*
X96583375Y-57959957D01*
X96575140Y-57979934D01*
X96568199Y-57996664D01*
X96562406Y-58010473D01*
X96557613Y-58021686D01*
X96553673Y-58030631D01*
X96550439Y-58037632D01*
X96547762Y-58043017D01*
X96545497Y-58047110D01*
X96543496Y-58050239D01*
X96541611Y-58052729D01*
X96539695Y-58054906D01*
X96534322Y-58059754D01*
X96522963Y-58066012D01*
X96509949Y-58069218D01*
X96495998Y-58069396D01*
X96481827Y-58066572D01*
X96468153Y-58060769D01*
X96455692Y-58052013D01*
X96448572Y-58044611D01*
X96443070Y-58035141D01*
X96440388Y-58023988D01*
X96440174Y-58010209D01*
X96440208Y-58009671D01*
X96440385Y-58007796D01*
X96440704Y-58005691D01*
X96441228Y-58003200D01*
X96442020Y-58000167D01*
X96443143Y-57996435D01*
X96444660Y-57991846D01*
X96446634Y-57986243D01*
X96449127Y-57979471D01*
X96452202Y-57971372D01*
X96455923Y-57961789D01*
X96460351Y-57950566D01*
X96465550Y-57937545D01*
X96471583Y-57922570D01*
X96478513Y-57905483D01*
X96486401Y-57886129D01*
X96495312Y-57864350D01*
X96505308Y-57839989D01*
X96516452Y-57812890D01*
X96528806Y-57782895D01*
X96542435Y-57749849D01*
X96547917Y-57736567D01*
X96674582Y-57736567D01*
X96839504Y-57736567D01*
X96848790Y-57736564D01*
X96874152Y-57736532D01*
X96898169Y-57736465D01*
X96920529Y-57736365D01*
X96940921Y-57736236D01*
X96959033Y-57736080D01*
X96974552Y-57735901D01*
X96987168Y-57735702D01*
X96996567Y-57735485D01*
X97002437Y-57735253D01*
X97004468Y-57735010D01*
X97004467Y-57734991D01*
X97003673Y-57732616D01*
X97001484Y-57726721D01*
X96998020Y-57717613D01*
X96993404Y-57705602D01*
X96987756Y-57690994D01*
X96981197Y-57674097D01*
X96973848Y-57655219D01*
X96965830Y-57634669D01*
X96957264Y-57612753D01*
X96948271Y-57589780D01*
X96938971Y-57566058D01*
X96929487Y-57541894D01*
X96919938Y-57517597D01*
X96910446Y-57493473D01*
X96901132Y-57469832D01*
X96892117Y-57446980D01*
X96883522Y-57425226D01*
X96875467Y-57404878D01*
X96868074Y-57386243D01*
X96861463Y-57369629D01*
X96855757Y-57355344D01*
X96851075Y-57343696D01*
X96847538Y-57334993D01*
X96845268Y-57329543D01*
X96844386Y-57327653D01*
X96843803Y-57328738D01*
X96841715Y-57333388D01*
X96838207Y-57341505D01*
X96833369Y-57352876D01*
X96827289Y-57367286D01*
X96820055Y-57384523D01*
X96811756Y-57404374D01*
X96802481Y-57426625D01*
X96792319Y-57451063D01*
X96781358Y-57477475D01*
X96769686Y-57505648D01*
X96757393Y-57535368D01*
X96744567Y-57566423D01*
X96731297Y-57598598D01*
X96717671Y-57631681D01*
X96703778Y-57665459D01*
X96689707Y-57699718D01*
X96674582Y-57736567D01*
X96547917Y-57736567D01*
X96557399Y-57713593D01*
X96573763Y-57673971D01*
X96591589Y-57630826D01*
X96610939Y-57584002D01*
X96626751Y-57545765D01*
X96642741Y-57507140D01*
X96658278Y-57469651D01*
X96673287Y-57433479D01*
X96687693Y-57398803D01*
X96701420Y-57365804D01*
X96714394Y-57334661D01*
X96726538Y-57305556D01*
X96737777Y-57278668D01*
X96748037Y-57254177D01*
X96757241Y-57232264D01*
X96765315Y-57213108D01*
X96772183Y-57196891D01*
X96777770Y-57183791D01*
X96782001Y-57173989D01*
X96784799Y-57167666D01*
X96786091Y-57165002D01*
X96791656Y-57158181D01*
X96802610Y-57149557D01*
X96815855Y-57143255D01*
X96830484Y-57139667D01*
X96845588Y-57139188D01*
X96861752Y-57142372D01*
X96876616Y-57149254D01*
X96889330Y-57159531D01*
X96899460Y-57172930D01*
X96899499Y-57173002D01*
X96900763Y-57175847D01*
X96903491Y-57182301D01*
X96907593Y-57192148D01*
X96912982Y-57205170D01*
X96919569Y-57221149D01*
X96927265Y-57239867D01*
X96935982Y-57261106D01*
X96945631Y-57284650D01*
X96956122Y-57310280D01*
X96967369Y-57337778D01*
X96979282Y-57366928D01*
X96991771Y-57397511D01*
X97004750Y-57429309D01*
X97018129Y-57462106D01*
X97031819Y-57495683D01*
X97045733Y-57529822D01*
X97059780Y-57564306D01*
X97073873Y-57598918D01*
X97087923Y-57633439D01*
X97101841Y-57667652D01*
X97115539Y-57701339D01*
X97128928Y-57734283D01*
X97129223Y-57735010D01*
X97141920Y-57766266D01*
G37*
G36*
X98865818Y-53321056D02*
G01*
X98894373Y-53326222D01*
X98921643Y-53334604D01*
X98947288Y-53346082D01*
X98970970Y-53360536D01*
X98992348Y-53377844D01*
X99011086Y-53397888D01*
X99026843Y-53420547D01*
X99028518Y-53423534D01*
X99033019Y-53432584D01*
X99037701Y-53443129D01*
X99041785Y-53453453D01*
X99043042Y-53456970D01*
X99045616Y-53464260D01*
X99049414Y-53475058D01*
X99054375Y-53489192D01*
X99060438Y-53506487D01*
X99067543Y-53526772D01*
X99075631Y-53549874D01*
X99084640Y-53575620D01*
X99094510Y-53603838D01*
X99105181Y-53634353D01*
X99116594Y-53666995D01*
X99128686Y-53701590D01*
X99141399Y-53737966D01*
X99154671Y-53775949D01*
X99168443Y-53815367D01*
X99182654Y-53856047D01*
X99197245Y-53897817D01*
X99212154Y-53940504D01*
X99227321Y-53983934D01*
X99242686Y-54027936D01*
X99258189Y-54072337D01*
X99273769Y-54116963D01*
X99289367Y-54161643D01*
X99304921Y-54206203D01*
X99320372Y-54250471D01*
X99335660Y-54294274D01*
X99350723Y-54337439D01*
X99365502Y-54379793D01*
X99379936Y-54421165D01*
X99393965Y-54461380D01*
X99407529Y-54500267D01*
X99420568Y-54537652D01*
X99433020Y-54573363D01*
X99444827Y-54607228D01*
X99455927Y-54639072D01*
X99466260Y-54668725D01*
X99475767Y-54696012D01*
X99484386Y-54720762D01*
X99492057Y-54742801D01*
X99498720Y-54761957D01*
X99504316Y-54778057D01*
X99508782Y-54790928D01*
X99512060Y-54800398D01*
X99514089Y-54806294D01*
X99514808Y-54808443D01*
X99513620Y-54809845D01*
X99509423Y-54813659D01*
X99502445Y-54819643D01*
X99492940Y-54827589D01*
X99481164Y-54837287D01*
X99467373Y-54848528D01*
X99451820Y-54861103D01*
X99434762Y-54874805D01*
X99416454Y-54889423D01*
X99397150Y-54904749D01*
X99379721Y-54918518D01*
X99361238Y-54933049D01*
X99343929Y-54946587D01*
X99328053Y-54958930D01*
X99313869Y-54969881D01*
X99301636Y-54979239D01*
X99291613Y-54986806D01*
X99284059Y-54992382D01*
X99279235Y-54995770D01*
X99277397Y-54996768D01*
X99277016Y-54995832D01*
X99275329Y-54991259D01*
X99272350Y-54983015D01*
X99268134Y-54971248D01*
X99262731Y-54956106D01*
X99256194Y-54937737D01*
X99248575Y-54916289D01*
X99239927Y-54891909D01*
X99230302Y-54864746D01*
X99219752Y-54834947D01*
X99208330Y-54802660D01*
X99196088Y-54768033D01*
X99183078Y-54731215D01*
X99169353Y-54692352D01*
X99154965Y-54651594D01*
X99139965Y-54609087D01*
X99124408Y-54564980D01*
X99108344Y-54519420D01*
X99091826Y-54472555D01*
X99074907Y-54424534D01*
X99057638Y-54375504D01*
X99046502Y-54343883D01*
X99029421Y-54295397D01*
X99012711Y-54247985D01*
X98996427Y-54201795D01*
X98980620Y-54156978D01*
X98965344Y-54113683D01*
X98950652Y-54072060D01*
X98936596Y-54032259D01*
X98923229Y-53994428D01*
X98910605Y-53958719D01*
X98898777Y-53925280D01*
X98887797Y-53894261D01*
X98877718Y-53865812D01*
X98868593Y-53840082D01*
X98860476Y-53817222D01*
X98853418Y-53797380D01*
X98847474Y-53780707D01*
X98842696Y-53767352D01*
X98839137Y-53757465D01*
X98836849Y-53751195D01*
X98835887Y-53748692D01*
X98834872Y-53746754D01*
X98830430Y-53740692D01*
X98826065Y-53738540D01*
X98821961Y-53740406D01*
X98821947Y-53740422D01*
X98820819Y-53742902D01*
X98818459Y-53749050D01*
X98814956Y-53758606D01*
X98810401Y-53771312D01*
X98804884Y-53786908D01*
X98798496Y-53805134D01*
X98791327Y-53825733D01*
X98783467Y-53848445D01*
X98775008Y-53873010D01*
X98766040Y-53899170D01*
X98756652Y-53926666D01*
X98746936Y-53955238D01*
X98746423Y-53956750D01*
X98736768Y-53985194D01*
X98727495Y-54012505D01*
X98718689Y-54038427D01*
X98710439Y-54062706D01*
X98702829Y-54085088D01*
X98695947Y-54105318D01*
X98689880Y-54123142D01*
X98684713Y-54138306D01*
X98680534Y-54150555D01*
X98677429Y-54159635D01*
X98675484Y-54165292D01*
X98674787Y-54167272D01*
X98673910Y-54167334D01*
X98669384Y-54167363D01*
X98661363Y-54167313D01*
X98650249Y-54167190D01*
X98636446Y-54167003D01*
X98620354Y-54166760D01*
X98602376Y-54166469D01*
X98582916Y-54166136D01*
X98562374Y-54165770D01*
X98541153Y-54165378D01*
X98519655Y-54164968D01*
X98498283Y-54164549D01*
X98477439Y-54164126D01*
X98457525Y-54163709D01*
X98438944Y-54163305D01*
X98422097Y-54162922D01*
X98407387Y-54162567D01*
X98395216Y-54162248D01*
X98385987Y-54161972D01*
X98380102Y-54161748D01*
X98377962Y-54161584D01*
X98377957Y-54161535D01*
X98378625Y-54158990D01*
X98380495Y-54152781D01*
X98383485Y-54143157D01*
X98387514Y-54130368D01*
X98392501Y-54114663D01*
X98398364Y-54096293D01*
X98405024Y-54075506D01*
X98412398Y-54052553D01*
X98420406Y-54027682D01*
X98428966Y-54001143D01*
X98437998Y-53973186D01*
X98447420Y-53944060D01*
X98457152Y-53914015D01*
X98467112Y-53883300D01*
X98477219Y-53852165D01*
X98487392Y-53820859D01*
X98497550Y-53789632D01*
X98507612Y-53758733D01*
X98517497Y-53728413D01*
X98527123Y-53698919D01*
X98536411Y-53670503D01*
X98545277Y-53643413D01*
X98553643Y-53617899D01*
X98561426Y-53594211D01*
X98568545Y-53572597D01*
X98574919Y-53553308D01*
X98580468Y-53536593D01*
X98585110Y-53522702D01*
X98588763Y-53511884D01*
X98591348Y-53504389D01*
X98592783Y-53500466D01*
X98607873Y-53466984D01*
X98624917Y-53436557D01*
X98643713Y-53409805D01*
X98664343Y-53386644D01*
X98686891Y-53366995D01*
X98711440Y-53350774D01*
X98738071Y-53337900D01*
X98766868Y-53328291D01*
X98775822Y-53326057D01*
X98806203Y-53320854D01*
X98836315Y-53319227D01*
X98865818Y-53321056D01*
G37*
G36*
X100025407Y-54283970D02*
G01*
X100053805Y-54284008D01*
X100079259Y-54284080D01*
X100101968Y-54284192D01*
X100122132Y-54284349D01*
X100139949Y-54284556D01*
X100155618Y-54284820D01*
X100169338Y-54285145D01*
X100181309Y-54285537D01*
X100191729Y-54286001D01*
X100200797Y-54286544D01*
X100208713Y-54287170D01*
X100215675Y-54287885D01*
X100221882Y-54288694D01*
X100227534Y-54289603D01*
X100232829Y-54290618D01*
X100237966Y-54291744D01*
X100243144Y-54292986D01*
X100248563Y-54294350D01*
X100254422Y-54295841D01*
X100259221Y-54297100D01*
X100290189Y-54307458D01*
X100318481Y-54320981D01*
X100344036Y-54337608D01*
X100366793Y-54357280D01*
X100386690Y-54379938D01*
X100403665Y-54405522D01*
X100417659Y-54433972D01*
X100428608Y-54465228D01*
X100434419Y-54490792D01*
X100437514Y-54519715D01*
X100437144Y-54548637D01*
X100433387Y-54577004D01*
X100426318Y-54604256D01*
X100416017Y-54629837D01*
X100402559Y-54653190D01*
X100401388Y-54654917D01*
X100400172Y-54656692D01*
X100398912Y-54658460D01*
X100397533Y-54660279D01*
X100395960Y-54662205D01*
X100394118Y-54664294D01*
X100391933Y-54666603D01*
X100389331Y-54669188D01*
X100386235Y-54672106D01*
X100382573Y-54675414D01*
X100378269Y-54679167D01*
X100373248Y-54683422D01*
X100367435Y-54688237D01*
X100360757Y-54693666D01*
X100353138Y-54699768D01*
X100344504Y-54706597D01*
X100334779Y-54714212D01*
X100323890Y-54722667D01*
X100311762Y-54732020D01*
X100298319Y-54742328D01*
X100283488Y-54753646D01*
X100267193Y-54766031D01*
X100249360Y-54779540D01*
X100229915Y-54794229D01*
X100208781Y-54810154D01*
X100185886Y-54827373D01*
X100161154Y-54845941D01*
X100134510Y-54865916D01*
X100105880Y-54887352D01*
X100075189Y-54910308D01*
X100042363Y-54934840D01*
X100007326Y-54961003D01*
X99970004Y-54988855D01*
X99930323Y-55018452D01*
X99888207Y-55049851D01*
X99843583Y-55083107D01*
X99796374Y-55118278D01*
X99746508Y-55155420D01*
X99693908Y-55194589D01*
X99638500Y-55235842D01*
X99580211Y-55279235D01*
X99518964Y-55324826D01*
X99454685Y-55372670D01*
X99387299Y-55422823D01*
X99316733Y-55475343D01*
X99242911Y-55530286D01*
X99240668Y-55531954D01*
X99226536Y-55542416D01*
X99213462Y-55552013D01*
X99201825Y-55560473D01*
X99192000Y-55567526D01*
X99184365Y-55572900D01*
X99179298Y-55576324D01*
X99177174Y-55577527D01*
X99175835Y-55576819D01*
X99171327Y-55574026D01*
X99163983Y-55569318D01*
X99154135Y-55562918D01*
X99142114Y-55555046D01*
X99128252Y-55545924D01*
X99112881Y-55535771D01*
X99096332Y-55524811D01*
X99078937Y-55513263D01*
X99061027Y-55501349D01*
X99042934Y-55489290D01*
X99024991Y-55477306D01*
X99007528Y-55465620D01*
X98990877Y-55454452D01*
X98975369Y-55444024D01*
X98961338Y-55434555D01*
X98949113Y-55426268D01*
X98939027Y-55419384D01*
X98931412Y-55414124D01*
X98926599Y-55410708D01*
X98924919Y-55409358D01*
X98925722Y-55408663D01*
X98929558Y-55405661D01*
X98936374Y-55400436D01*
X98945965Y-55393139D01*
X98958129Y-55383925D01*
X98972662Y-55372947D01*
X98989359Y-55360359D01*
X99008018Y-55346314D01*
X99028434Y-55330965D01*
X99050404Y-55314467D01*
X99073724Y-55296972D01*
X99098191Y-55278634D01*
X99123601Y-55259608D01*
X99155275Y-55235900D01*
X99223449Y-55184869D01*
X99288375Y-55136263D01*
X99350107Y-55090042D01*
X99408699Y-55046164D01*
X99464206Y-55004590D01*
X99516681Y-54965277D01*
X99566179Y-54928186D01*
X99612755Y-54893276D01*
X99656462Y-54860505D01*
X99697354Y-54829834D01*
X99735487Y-54801221D01*
X99770913Y-54774626D01*
X99803688Y-54750008D01*
X99833865Y-54727325D01*
X99861500Y-54706539D01*
X99886645Y-54687606D01*
X99909356Y-54670488D01*
X99929686Y-54655143D01*
X99947690Y-54641530D01*
X99963421Y-54629609D01*
X99976936Y-54619339D01*
X99988286Y-54610678D01*
X99997527Y-54603587D01*
X100004713Y-54598025D01*
X100009899Y-54593950D01*
X100013137Y-54591323D01*
X100014484Y-54590102D01*
X100015895Y-54588253D01*
X100018371Y-54583918D01*
X100017791Y-54581117D01*
X100014123Y-54578846D01*
X100011455Y-54578490D01*
X100004728Y-54578100D01*
X99994098Y-54577692D01*
X99979690Y-54577268D01*
X99961633Y-54576832D01*
X99940052Y-54576385D01*
X99915074Y-54575931D01*
X99886827Y-54575471D01*
X99855435Y-54575009D01*
X99821027Y-54574548D01*
X99783729Y-54574089D01*
X99780466Y-54574051D01*
X99750304Y-54573678D01*
X99721335Y-54573293D01*
X99693827Y-54572901D01*
X99668049Y-54572506D01*
X99644271Y-54572114D01*
X99622761Y-54571730D01*
X99603789Y-54571358D01*
X99587623Y-54571004D01*
X99574533Y-54570672D01*
X99564787Y-54570368D01*
X99558655Y-54570097D01*
X99556406Y-54569863D01*
X99556082Y-54569039D01*
X99554695Y-54564711D01*
X99552346Y-54557024D01*
X99549148Y-54546364D01*
X99545212Y-54533119D01*
X99540652Y-54517675D01*
X99535579Y-54500417D01*
X99530105Y-54481733D01*
X99524343Y-54462008D01*
X99518406Y-54441630D01*
X99512405Y-54420984D01*
X99506452Y-54400458D01*
X99500661Y-54380437D01*
X99495143Y-54361308D01*
X99490010Y-54343457D01*
X99485375Y-54327271D01*
X99481350Y-54313136D01*
X99478047Y-54301439D01*
X99475579Y-54292566D01*
X99474058Y-54286904D01*
X99473596Y-54284838D01*
X99473678Y-54284831D01*
X99476522Y-54284789D01*
X99483264Y-54284745D01*
X99493691Y-54284698D01*
X99507592Y-54284649D01*
X99524752Y-54284599D01*
X99544960Y-54284547D01*
X99568003Y-54284495D01*
X99593667Y-54284442D01*
X99621740Y-54284390D01*
X99652009Y-54284338D01*
X99684262Y-54284287D01*
X99718286Y-54284237D01*
X99753867Y-54284190D01*
X99790794Y-54284144D01*
X99828853Y-54284102D01*
X99832295Y-54284098D01*
X99878397Y-54284048D01*
X99920560Y-54284005D01*
X99958984Y-54283974D01*
X99993866Y-54283960D01*
X100025407Y-54283970D01*
G37*
G36*
X98492453Y-54650449D02*
G01*
X98492362Y-54650828D01*
X98491277Y-54654477D01*
X98489007Y-54661881D01*
X98485599Y-54672895D01*
X98481096Y-54687376D01*
X98475543Y-54705179D01*
X98468987Y-54726162D01*
X98461473Y-54750180D01*
X98453044Y-54777088D01*
X98443748Y-54806744D01*
X98433628Y-54839003D01*
X98422730Y-54873721D01*
X98411099Y-54910755D01*
X98398781Y-54949960D01*
X98385820Y-54991193D01*
X98372261Y-55034309D01*
X98358151Y-55079165D01*
X98343533Y-55125617D01*
X98328453Y-55173521D01*
X98312957Y-55222733D01*
X98297089Y-55273109D01*
X98280895Y-55324505D01*
X98276900Y-55337182D01*
X98256438Y-55402137D01*
X98237200Y-55463237D01*
X98219161Y-55520568D01*
X98202293Y-55574217D01*
X98186570Y-55624269D01*
X98171965Y-55670811D01*
X98158452Y-55713928D01*
X98146003Y-55753706D01*
X98134592Y-55790233D01*
X98124192Y-55823593D01*
X98114777Y-55853873D01*
X98106319Y-55881159D01*
X98098792Y-55905537D01*
X98092170Y-55927093D01*
X98086425Y-55945914D01*
X98081530Y-55962084D01*
X98077460Y-55975692D01*
X98074187Y-55986821D01*
X98071684Y-55995560D01*
X98069926Y-56001993D01*
X98068884Y-56006207D01*
X98068532Y-56008287D01*
X98068519Y-56012546D01*
X98068958Y-56016593D01*
X98070386Y-56018121D01*
X98073288Y-56018131D01*
X98073358Y-56018115D01*
X98075894Y-56016610D01*
X98081533Y-56012779D01*
X98090070Y-56006769D01*
X98101303Y-55998729D01*
X98115029Y-55988807D01*
X98131044Y-55977153D01*
X98149147Y-55963914D01*
X98169132Y-55949239D01*
X98190798Y-55933277D01*
X98213942Y-55916176D01*
X98238360Y-55898084D01*
X98263848Y-55879150D01*
X98290206Y-55859522D01*
X98292959Y-55857469D01*
X98319185Y-55837929D01*
X98344485Y-55819101D01*
X98368657Y-55801132D01*
X98391503Y-55784171D01*
X98412823Y-55768366D01*
X98432416Y-55753863D01*
X98450082Y-55740812D01*
X98465622Y-55729359D01*
X98478835Y-55719652D01*
X98489522Y-55711840D01*
X98497482Y-55706069D01*
X98502517Y-55702488D01*
X98504424Y-55701244D01*
X98505950Y-55702086D01*
X98510493Y-55705239D01*
X98517703Y-55710497D01*
X98527266Y-55717617D01*
X98538869Y-55726356D01*
X98552196Y-55736471D01*
X98566935Y-55747719D01*
X98582769Y-55759856D01*
X98599386Y-55772639D01*
X98616472Y-55785825D01*
X98633711Y-55799170D01*
X98650789Y-55812431D01*
X98667394Y-55825365D01*
X98683209Y-55837728D01*
X98697922Y-55849278D01*
X98711217Y-55859771D01*
X98722782Y-55868963D01*
X98732300Y-55876612D01*
X98739459Y-55882474D01*
X98743945Y-55886306D01*
X98745442Y-55887864D01*
X98745413Y-55887909D01*
X98743353Y-55889671D01*
X98738184Y-55893755D01*
X98730103Y-55900012D01*
X98719307Y-55908296D01*
X98705993Y-55918458D01*
X98690358Y-55930351D01*
X98672597Y-55943826D01*
X98652909Y-55958737D01*
X98631489Y-55974934D01*
X98608535Y-55992271D01*
X98584242Y-56010600D01*
X98558808Y-56029773D01*
X98532429Y-56049642D01*
X98505303Y-56070059D01*
X98477625Y-56090877D01*
X98449592Y-56111948D01*
X98421402Y-56133124D01*
X98393251Y-56154258D01*
X98365335Y-56175201D01*
X98337852Y-56195805D01*
X98310997Y-56215924D01*
X98284968Y-56235410D01*
X98259962Y-56254113D01*
X98236175Y-56271888D01*
X98213803Y-56288586D01*
X98193044Y-56304058D01*
X98174094Y-56318159D01*
X98157150Y-56330739D01*
X98142408Y-56341651D01*
X98130066Y-56350747D01*
X98120320Y-56357880D01*
X98113367Y-56362901D01*
X98109403Y-56365663D01*
X98086803Y-56379625D01*
X98058687Y-56394536D01*
X98030878Y-56406647D01*
X98003980Y-56415702D01*
X97978596Y-56421444D01*
X97971982Y-56422356D01*
X97954977Y-56423567D01*
X97936555Y-56423532D01*
X97915678Y-56421698D01*
X97887159Y-56415786D01*
X97859543Y-56406219D01*
X97833203Y-56393282D01*
X97808513Y-56377258D01*
X97785846Y-56358433D01*
X97765576Y-56337091D01*
X97748077Y-56313517D01*
X97733720Y-56287994D01*
X97722881Y-56260807D01*
X97720920Y-56254297D01*
X97715486Y-56229603D01*
X97712701Y-56204028D01*
X97712656Y-56178851D01*
X97715441Y-56155348D01*
X97715486Y-56155141D01*
X97716484Y-56151615D01*
X97718670Y-56144357D01*
X97721991Y-56133532D01*
X97726394Y-56119309D01*
X97731827Y-56101855D01*
X97738237Y-56081337D01*
X97745569Y-56057921D01*
X97753773Y-56031776D01*
X97762793Y-56003069D01*
X97772578Y-55971966D01*
X97783074Y-55938636D01*
X97794229Y-55903244D01*
X97805989Y-55865959D01*
X97818301Y-55826948D01*
X97831113Y-55786377D01*
X97844371Y-55744415D01*
X97858023Y-55701228D01*
X97872015Y-55656984D01*
X97886294Y-55611849D01*
X97900807Y-55565992D01*
X97915502Y-55519579D01*
X97930326Y-55472778D01*
X97945224Y-55425755D01*
X97960145Y-55378678D01*
X97975036Y-55331714D01*
X97989842Y-55285031D01*
X98004512Y-55238796D01*
X98018993Y-55193175D01*
X98033231Y-55148337D01*
X98047173Y-55104448D01*
X98060766Y-55061675D01*
X98073958Y-55020186D01*
X98086695Y-54980149D01*
X98098924Y-54941730D01*
X98110593Y-54905096D01*
X98121648Y-54870415D01*
X98132037Y-54837853D01*
X98141706Y-54807580D01*
X98150602Y-54779760D01*
X98158672Y-54754562D01*
X98165864Y-54732153D01*
X98172124Y-54712700D01*
X98177399Y-54696371D01*
X98181637Y-54683332D01*
X98184784Y-54673751D01*
X98186787Y-54667795D01*
X98187594Y-54665631D01*
X98189269Y-54665378D01*
X98194734Y-54664929D01*
X98203604Y-54664329D01*
X98215481Y-54663599D01*
X98229969Y-54662759D01*
X98246669Y-54661829D01*
X98265185Y-54660827D01*
X98285118Y-54659774D01*
X98306072Y-54658690D01*
X98327648Y-54657595D01*
X98349451Y-54656508D01*
X98371081Y-54655449D01*
X98392142Y-54654438D01*
X98412237Y-54653494D01*
X98430968Y-54652639D01*
X98447937Y-54651890D01*
X98462748Y-54651268D01*
X98475002Y-54650794D01*
X98484302Y-54650486D01*
X98490252Y-54650364D01*
X98492453Y-54650449D01*
G37*
G36*
X94495074Y-57265830D02*
G01*
X94495182Y-57285913D01*
X94495275Y-57308674D01*
X94495352Y-57334277D01*
X94495416Y-57362884D01*
X94495466Y-57394661D01*
X94495505Y-57429771D01*
X94495533Y-57468378D01*
X94495552Y-57510645D01*
X94495563Y-57556736D01*
X94495566Y-57606816D01*
X94495566Y-58028246D01*
X94490784Y-58038627D01*
X94486531Y-58046511D01*
X94477970Y-58056794D01*
X94467160Y-58063925D01*
X94453762Y-58068099D01*
X94437438Y-58069512D01*
X94436497Y-58069513D01*
X94427323Y-58069132D01*
X94418839Y-58068178D01*
X94412773Y-58066840D01*
X94407806Y-58064647D01*
X94398266Y-58058039D01*
X94389768Y-58049297D01*
X94383648Y-58039665D01*
X94383469Y-58039279D01*
X94382703Y-58037501D01*
X94382035Y-58035544D01*
X94381458Y-58033126D01*
X94380965Y-58029963D01*
X94380546Y-58025769D01*
X94380195Y-58020263D01*
X94379902Y-58013159D01*
X94379661Y-58004173D01*
X94379462Y-57993023D01*
X94379299Y-57979424D01*
X94379163Y-57963092D01*
X94379046Y-57943744D01*
X94378940Y-57921095D01*
X94378838Y-57894862D01*
X94378731Y-57864761D01*
X94378152Y-57699199D01*
X94188316Y-57699335D01*
X94082440Y-57876155D01*
X94074885Y-57888764D01*
X94060104Y-57913389D01*
X94045883Y-57937024D01*
X94032378Y-57959410D01*
X94019747Y-57980291D01*
X94008145Y-57999408D01*
X93997730Y-58016504D01*
X93988659Y-58031322D01*
X93981087Y-58043605D01*
X93975173Y-58053094D01*
X93971072Y-58059532D01*
X93968941Y-58062662D01*
X93968871Y-58062750D01*
X93960328Y-58071270D01*
X93950256Y-58077945D01*
X93940395Y-58081631D01*
X93926828Y-58082962D01*
X93912830Y-58080389D01*
X93898725Y-58073981D01*
X93884841Y-58063811D01*
X93884807Y-58063781D01*
X93874626Y-58052348D01*
X93868310Y-58039515D01*
X93865935Y-58025514D01*
X93867577Y-58010581D01*
X93868260Y-58008542D01*
X93870325Y-58003956D01*
X93873756Y-57997237D01*
X93878645Y-57988230D01*
X93885080Y-57976778D01*
X93893151Y-57962726D01*
X93902948Y-57945918D01*
X93914562Y-57926197D01*
X93928082Y-57903407D01*
X93943597Y-57877394D01*
X93961198Y-57847999D01*
X94052229Y-57696215D01*
X94029607Y-57690653D01*
X94029351Y-57690590D01*
X93999797Y-57681591D01*
X93973235Y-57669852D01*
X93949401Y-57655213D01*
X93928034Y-57637513D01*
X93908870Y-57616590D01*
X93894459Y-57596084D01*
X93881679Y-57571825D01*
X93871234Y-57544551D01*
X93862993Y-57513971D01*
X93861579Y-57505643D01*
X93860214Y-57493035D01*
X93859090Y-57477659D01*
X93858218Y-57460242D01*
X93857610Y-57441513D01*
X93857317Y-57424414D01*
X93974637Y-57424414D01*
X93974672Y-57441656D01*
X93974819Y-57455500D01*
X93975102Y-57466514D01*
X93975548Y-57475264D01*
X93976183Y-57482317D01*
X93977033Y-57488240D01*
X93978125Y-57493600D01*
X93978316Y-57494414D01*
X93982958Y-57509720D01*
X93989269Y-57524644D01*
X93996643Y-57537932D01*
X94004477Y-57548325D01*
X94013222Y-57556081D01*
X94026323Y-57564361D01*
X94041826Y-57571523D01*
X94058799Y-57577075D01*
X94060355Y-57577482D01*
X94063679Y-57578300D01*
X94067069Y-57579007D01*
X94070838Y-57579612D01*
X94075301Y-57580125D01*
X94080771Y-57580557D01*
X94087564Y-57580917D01*
X94095994Y-57581216D01*
X94106375Y-57581462D01*
X94119021Y-57581667D01*
X94134248Y-57581840D01*
X94152369Y-57581992D01*
X94173698Y-57582131D01*
X94198551Y-57582269D01*
X94227241Y-57582414D01*
X94378271Y-57583166D01*
X94378271Y-57254932D01*
X94250078Y-57254993D01*
X94224893Y-57255018D01*
X94195594Y-57255103D01*
X94169899Y-57255269D01*
X94147500Y-57255541D01*
X94128088Y-57255944D01*
X94111353Y-57256503D01*
X94096987Y-57257242D01*
X94084679Y-57258186D01*
X94074122Y-57259361D01*
X94065005Y-57260790D01*
X94057020Y-57262499D01*
X94049857Y-57264513D01*
X94043207Y-57266856D01*
X94036762Y-57269553D01*
X94030211Y-57272629D01*
X94019069Y-57279042D01*
X94005928Y-57290074D01*
X93995060Y-57303980D01*
X93986224Y-57321085D01*
X93979180Y-57341717D01*
X93978713Y-57343431D01*
X93977510Y-57348336D01*
X93976575Y-57353342D01*
X93975872Y-57359027D01*
X93975368Y-57365970D01*
X93975028Y-57374750D01*
X93974817Y-57385946D01*
X93974701Y-57400136D01*
X93974645Y-57417899D01*
X93974637Y-57424414D01*
X93857317Y-57424414D01*
X93857279Y-57422198D01*
X93857237Y-57403026D01*
X93857494Y-57384724D01*
X93858064Y-57368020D01*
X93858957Y-57353642D01*
X93860187Y-57342318D01*
X93862850Y-57326622D01*
X93870742Y-57294925D01*
X93881576Y-57266156D01*
X93895358Y-57240306D01*
X93912095Y-57217365D01*
X93931795Y-57197326D01*
X93954465Y-57180178D01*
X93980111Y-57165914D01*
X94008741Y-57154525D01*
X94013317Y-57153011D01*
X94020088Y-57150796D01*
X94026363Y-57148846D01*
X94032433Y-57147143D01*
X94038588Y-57145668D01*
X94045119Y-57144403D01*
X94052317Y-57143332D01*
X94060471Y-57142436D01*
X94069872Y-57141697D01*
X94080811Y-57141098D01*
X94093579Y-57140620D01*
X94108464Y-57140246D01*
X94125760Y-57139957D01*
X94145754Y-57139737D01*
X94168739Y-57139567D01*
X94195004Y-57139429D01*
X94224841Y-57139306D01*
X94258538Y-57139180D01*
X94262000Y-57139167D01*
X94295325Y-57139037D01*
X94324781Y-57138928D01*
X94350626Y-57138858D01*
X94373117Y-57138845D01*
X94392511Y-57138909D01*
X94409067Y-57139067D01*
X94423042Y-57139338D01*
X94434694Y-57139741D01*
X94444281Y-57140294D01*
X94452060Y-57141015D01*
X94458288Y-57141923D01*
X94463225Y-57143037D01*
X94467126Y-57144374D01*
X94470251Y-57145954D01*
X94472856Y-57147794D01*
X94475199Y-57149914D01*
X94477539Y-57152332D01*
X94480132Y-57155066D01*
X94487393Y-57164020D01*
X94492588Y-57175121D01*
X94492843Y-57176227D01*
X94493176Y-57178544D01*
X94493482Y-57181900D01*
X94493762Y-57186459D01*
X94494016Y-57192386D01*
X94494246Y-57199844D01*
X94494453Y-57208996D01*
X94494638Y-57220007D01*
X94494803Y-57233040D01*
X94494947Y-57248260D01*
X94494995Y-57254932D01*
X94495074Y-57265830D01*
G37*
G36*
X101363463Y-57263469D02*
G01*
X101363560Y-57288163D01*
X101363649Y-57315516D01*
X101363731Y-57345327D01*
X101363804Y-57377394D01*
X101363867Y-57411517D01*
X101363921Y-57447494D01*
X101363965Y-57485124D01*
X101363997Y-57524206D01*
X101364018Y-57564538D01*
X101364027Y-57605920D01*
X101364033Y-57651669D01*
X101364043Y-57697873D01*
X101364053Y-57740251D01*
X101364055Y-57778975D01*
X101364045Y-57814214D01*
X101364016Y-57846140D01*
X101363964Y-57874923D01*
X101363883Y-57900733D01*
X101363766Y-57923742D01*
X101363608Y-57944119D01*
X101363404Y-57962035D01*
X101363148Y-57977661D01*
X101362834Y-57991168D01*
X101362457Y-58002726D01*
X101362010Y-58012506D01*
X101361490Y-58020678D01*
X101360888Y-58027412D01*
X101360201Y-58032880D01*
X101359422Y-58037253D01*
X101358546Y-58040700D01*
X101357567Y-58043392D01*
X101356479Y-58045499D01*
X101355277Y-58047194D01*
X101353956Y-58048645D01*
X101352509Y-58050024D01*
X101350930Y-58051501D01*
X101349215Y-58053247D01*
X101341588Y-58060193D01*
X101331604Y-58065730D01*
X101319661Y-58068759D01*
X101304883Y-58069604D01*
X101301065Y-58069506D01*
X101285076Y-58067317D01*
X101271913Y-58062198D01*
X101261385Y-58054052D01*
X101253300Y-58042779D01*
X101252871Y-58041974D01*
X101252118Y-58040413D01*
X101251463Y-58038620D01*
X101250898Y-58036316D01*
X101250416Y-58033221D01*
X101250008Y-58029054D01*
X101249667Y-58023535D01*
X101249384Y-58016384D01*
X101249152Y-58007322D01*
X101248962Y-57996068D01*
X101248807Y-57982343D01*
X101248677Y-57965865D01*
X101248567Y-57946356D01*
X101248466Y-57923535D01*
X101248368Y-57897122D01*
X101248265Y-57866837D01*
X101247698Y-57699199D01*
X101057016Y-57699199D01*
X100949604Y-57878204D01*
X100940852Y-57892774D01*
X100925973Y-57917469D01*
X100911652Y-57941147D01*
X100898046Y-57963552D01*
X100885311Y-57984429D01*
X100873606Y-58003524D01*
X100863086Y-58020582D01*
X100853908Y-58035348D01*
X100846230Y-58047568D01*
X100840207Y-58056985D01*
X100835998Y-58063346D01*
X100833759Y-58066397D01*
X100830011Y-58070098D01*
X100823196Y-58075617D01*
X100817021Y-58079377D01*
X100813612Y-58080754D01*
X100800646Y-58083245D01*
X100786932Y-58082015D01*
X100773237Y-58077105D01*
X100760945Y-58070052D01*
X100749243Y-58060508D01*
X100741195Y-58049731D01*
X100736551Y-58037366D01*
X100735059Y-58023056D01*
X100735115Y-58019743D01*
X100736454Y-58008948D01*
X100739919Y-57999182D01*
X100740531Y-57997994D01*
X100743311Y-57993027D01*
X100747986Y-57984930D01*
X100754385Y-57973990D01*
X100762339Y-57960495D01*
X100771677Y-57944732D01*
X100782229Y-57926986D01*
X100793825Y-57907546D01*
X100806295Y-57886697D01*
X100819469Y-57864728D01*
X100833177Y-57841924D01*
X100838480Y-57833109D01*
X100854514Y-57806407D01*
X100868499Y-57783028D01*
X100880530Y-57762808D01*
X100890702Y-57745584D01*
X100899108Y-57731189D01*
X100905844Y-57719460D01*
X100911005Y-57710233D01*
X100914686Y-57703342D01*
X100916981Y-57698624D01*
X100917984Y-57695914D01*
X100917792Y-57695047D01*
X100915948Y-57694839D01*
X100910415Y-57693768D01*
X100902607Y-57691991D01*
X100893583Y-57689739D01*
X100864155Y-57680184D01*
X100837131Y-57667400D01*
X100812855Y-57651526D01*
X100791392Y-57632629D01*
X100772809Y-57610776D01*
X100757171Y-57586034D01*
X100744545Y-57558471D01*
X100734996Y-57528153D01*
X100732565Y-57517866D01*
X100729627Y-57502636D01*
X100727446Y-57486841D01*
X100725967Y-57469771D01*
X100725134Y-57450712D01*
X100724889Y-57428953D01*
X100725008Y-57418527D01*
X100841452Y-57418527D01*
X100841757Y-57439340D01*
X100842765Y-57459254D01*
X100844485Y-57477349D01*
X100846924Y-57492703D01*
X100847630Y-57495989D01*
X100853833Y-57516595D01*
X100862573Y-57534137D01*
X100874008Y-57548752D01*
X100888299Y-57560575D01*
X100905602Y-57569741D01*
X100926078Y-57576388D01*
X100949886Y-57580650D01*
X100950571Y-57580728D01*
X100957583Y-57581224D01*
X100968555Y-57581663D01*
X100983320Y-57582041D01*
X101001710Y-57582356D01*
X101023558Y-57582605D01*
X101048698Y-57582786D01*
X101076961Y-57582898D01*
X101108181Y-57582936D01*
X101247793Y-57582942D01*
X101247793Y-57254558D01*
X101099877Y-57255490D01*
X101079545Y-57255621D01*
X101053741Y-57255799D01*
X101031540Y-57255975D01*
X101012622Y-57256159D01*
X100996662Y-57256362D01*
X100983339Y-57256593D01*
X100972330Y-57256863D01*
X100963312Y-57257181D01*
X100955963Y-57257557D01*
X100949961Y-57258001D01*
X100944982Y-57258524D01*
X100940705Y-57259136D01*
X100936806Y-57259845D01*
X100932964Y-57260663D01*
X100932621Y-57260740D01*
X100910868Y-57267199D01*
X100892408Y-57276114D01*
X100877082Y-57287631D01*
X100864733Y-57301897D01*
X100855203Y-57319057D01*
X100848335Y-57339258D01*
X100847093Y-57344699D01*
X100844671Y-57359900D01*
X100842917Y-57377886D01*
X100841842Y-57397735D01*
X100841452Y-57418527D01*
X100725008Y-57418527D01*
X100725176Y-57403782D01*
X100725273Y-57399134D01*
X100725863Y-57378718D01*
X100726717Y-57361527D01*
X100727928Y-57346795D01*
X100729591Y-57333754D01*
X100731798Y-57321638D01*
X100734645Y-57309679D01*
X100738224Y-57297111D01*
X100744227Y-57279634D01*
X100756866Y-57252323D01*
X100772592Y-57227749D01*
X100791304Y-57206011D01*
X100812899Y-57187204D01*
X100837277Y-57171425D01*
X100864335Y-57158770D01*
X100893971Y-57149337D01*
X100899176Y-57148036D01*
X100905203Y-57146597D01*
X100911049Y-57145334D01*
X100917004Y-57144236D01*
X100923356Y-57143291D01*
X100930393Y-57142488D01*
X100938406Y-57141815D01*
X100947682Y-57141260D01*
X100958510Y-57140813D01*
X100971180Y-57140461D01*
X100985980Y-57140194D01*
X101003199Y-57139999D01*
X101023126Y-57139866D01*
X101046050Y-57139782D01*
X101072259Y-57139736D01*
X101102042Y-57139717D01*
X101135689Y-57139714D01*
X101325644Y-57139714D01*
X101337062Y-57146135D01*
X101342322Y-57149603D01*
X101351771Y-57158811D01*
X101358861Y-57169922D01*
X101362711Y-57181715D01*
X101362766Y-57182411D01*
X101362893Y-57186926D01*
X101363016Y-57195307D01*
X101363136Y-57207353D01*
X101363251Y-57222863D01*
X101363360Y-57241635D01*
X101363421Y-57254558D01*
X101363463Y-57263469D01*
G37*
G36*
X98452651Y-55157113D02*
G01*
X98456182Y-55159591D01*
X98462846Y-55164423D01*
X98472524Y-55171519D01*
X98485094Y-55180789D01*
X98500438Y-55192144D01*
X98518434Y-55205494D01*
X98538963Y-55220750D01*
X98561905Y-55237822D01*
X98587139Y-55256620D01*
X98614545Y-55277055D01*
X98644003Y-55299037D01*
X98675394Y-55322476D01*
X98708596Y-55347283D01*
X98743490Y-55373369D01*
X98779956Y-55400642D01*
X98817873Y-55429015D01*
X98857122Y-55458397D01*
X98897582Y-55488699D01*
X98939133Y-55519831D01*
X98981654Y-55551703D01*
X99025027Y-55584226D01*
X99048553Y-55601870D01*
X99091530Y-55634097D01*
X99133607Y-55665644D01*
X99174662Y-55696420D01*
X99214575Y-55726334D01*
X99253225Y-55755297D01*
X99290490Y-55783216D01*
X99326250Y-55810003D01*
X99360383Y-55835565D01*
X99392769Y-55859814D01*
X99423286Y-55882657D01*
X99451814Y-55904004D01*
X99478231Y-55923766D01*
X99502416Y-55941850D01*
X99524248Y-55958168D01*
X99543607Y-55972627D01*
X99560371Y-55985138D01*
X99574420Y-55995610D01*
X99585631Y-56003952D01*
X99593884Y-56010074D01*
X99599059Y-56013885D01*
X99601033Y-56015295D01*
X99606543Y-56017297D01*
X99611788Y-56017070D01*
X99614835Y-56014224D01*
X99614846Y-56014139D01*
X99614246Y-56011282D01*
X99612466Y-56004711D01*
X99609570Y-55994644D01*
X99605626Y-55981298D01*
X99600700Y-55964890D01*
X99594858Y-55945637D01*
X99588167Y-55923756D01*
X99580694Y-55899464D01*
X99572503Y-55872979D01*
X99563662Y-55844518D01*
X99554238Y-55814298D01*
X99544296Y-55782535D01*
X99533903Y-55749448D01*
X99530497Y-55738618D01*
X99520595Y-55707076D01*
X99511082Y-55676689D01*
X99502030Y-55647689D01*
X99493511Y-55620311D01*
X99485597Y-55594787D01*
X99478359Y-55571353D01*
X99471869Y-55550242D01*
X99466200Y-55531687D01*
X99461423Y-55515922D01*
X99457610Y-55503181D01*
X99454834Y-55493697D01*
X99453165Y-55487705D01*
X99452677Y-55485438D01*
X99453012Y-55485090D01*
X99456173Y-55482751D01*
X99462369Y-55478505D01*
X99471260Y-55472570D01*
X99482503Y-55465165D01*
X99495755Y-55456510D01*
X99510674Y-55446822D01*
X99526917Y-55436322D01*
X99544143Y-55425228D01*
X99562007Y-55413760D01*
X99580169Y-55402135D01*
X99598285Y-55390574D01*
X99616014Y-55379295D01*
X99633011Y-55368517D01*
X99648937Y-55358459D01*
X99663446Y-55349341D01*
X99676198Y-55341381D01*
X99686850Y-55334798D01*
X99695059Y-55329811D01*
X99700483Y-55326639D01*
X99702780Y-55325501D01*
X99703055Y-55325777D01*
X99704292Y-55328398D01*
X99706427Y-55333852D01*
X99709485Y-55342220D01*
X99713495Y-55353581D01*
X99718482Y-55368015D01*
X99724473Y-55385602D01*
X99731496Y-55406422D01*
X99739576Y-55430555D01*
X99748742Y-55458081D01*
X99759019Y-55489080D01*
X99770434Y-55523631D01*
X99783015Y-55561815D01*
X99796788Y-55603711D01*
X99811780Y-55649400D01*
X99828017Y-55698962D01*
X99839293Y-55733421D01*
X99851596Y-55771063D01*
X99863538Y-55807643D01*
X99875051Y-55842955D01*
X99886070Y-55876794D01*
X99896527Y-55908954D01*
X99906356Y-55939227D01*
X99915490Y-55967410D01*
X99923862Y-55993295D01*
X99931407Y-56016677D01*
X99938056Y-56037349D01*
X99943743Y-56055106D01*
X99948403Y-56069742D01*
X99951967Y-56081052D01*
X99954370Y-56088828D01*
X99955544Y-56092865D01*
X99959000Y-56107056D01*
X99965736Y-56141837D01*
X99969347Y-56174263D01*
X99969827Y-56204612D01*
X99967171Y-56233161D01*
X99961377Y-56260188D01*
X99952438Y-56285969D01*
X99950561Y-56290290D01*
X99938730Y-56312121D01*
X99923425Y-56333468D01*
X99905206Y-56353757D01*
X99884633Y-56372412D01*
X99862269Y-56388859D01*
X99838674Y-56402522D01*
X99834732Y-56404414D01*
X99820322Y-56410300D01*
X99803980Y-56415774D01*
X99787380Y-56420311D01*
X99772194Y-56423384D01*
X99753870Y-56425575D01*
X99723758Y-56426098D01*
X99694424Y-56422599D01*
X99665576Y-56415035D01*
X99636925Y-56403363D01*
X99636424Y-56403123D01*
X99634399Y-56402143D01*
X99632385Y-56401129D01*
X99630248Y-56399982D01*
X99627855Y-56398604D01*
X99625073Y-56396894D01*
X99621770Y-56394756D01*
X99617812Y-56392091D01*
X99613067Y-56388799D01*
X99607401Y-56384782D01*
X99600681Y-56379941D01*
X99592775Y-56374179D01*
X99583548Y-56367396D01*
X99572870Y-56359493D01*
X99560605Y-56350372D01*
X99546622Y-56339935D01*
X99530787Y-56328082D01*
X99512967Y-56314715D01*
X99493029Y-56299736D01*
X99470841Y-56283046D01*
X99446269Y-56264546D01*
X99419180Y-56244137D01*
X99389441Y-56221721D01*
X99356919Y-56197200D01*
X99321482Y-56170474D01*
X99282996Y-56141445D01*
X99241328Y-56110015D01*
X99225103Y-56097777D01*
X99202570Y-56080784D01*
X99177227Y-56061674D01*
X99149350Y-56040656D01*
X99119216Y-56017938D01*
X99087104Y-55993730D01*
X99053291Y-55968241D01*
X99018054Y-55941680D01*
X98981670Y-55914256D01*
X98944416Y-55886178D01*
X98906571Y-55857655D01*
X98868411Y-55828896D01*
X98830214Y-55800111D01*
X98792257Y-55771508D01*
X98754818Y-55743296D01*
X98718173Y-55715684D01*
X98691788Y-55695802D01*
X98658736Y-55670889D01*
X98626666Y-55646711D01*
X98595735Y-55623384D01*
X98566098Y-55601025D01*
X98537910Y-55579754D01*
X98511327Y-55559687D01*
X98486505Y-55540941D01*
X98463599Y-55523635D01*
X98442765Y-55507886D01*
X98424158Y-55493811D01*
X98407935Y-55481529D01*
X98394250Y-55471156D01*
X98383260Y-55462810D01*
X98375119Y-55456609D01*
X98369984Y-55452671D01*
X98368011Y-55451112D01*
X98367557Y-55450548D01*
X98367139Y-55449378D01*
X98367037Y-55447513D01*
X98367323Y-55444679D01*
X98368071Y-55440604D01*
X98369355Y-55435014D01*
X98371246Y-55427635D01*
X98373820Y-55418194D01*
X98377147Y-55406416D01*
X98381303Y-55392030D01*
X98386360Y-55374761D01*
X98392391Y-55354336D01*
X98399469Y-55330481D01*
X98407668Y-55302923D01*
X98414043Y-55281545D01*
X98420811Y-55258925D01*
X98427168Y-55237757D01*
X98433018Y-55218356D01*
X98438265Y-55201040D01*
X98442812Y-55186124D01*
X98446565Y-55173925D01*
X98449425Y-55164758D01*
X98451298Y-55158940D01*
X98452088Y-55156786D01*
X98452651Y-55157113D01*
G37*
G36*
X95451739Y-57542339D02*
G01*
X95451850Y-57569724D01*
X95451901Y-57597569D01*
X95451892Y-57625489D01*
X95451823Y-57653099D01*
X95451694Y-57680016D01*
X95451504Y-57705855D01*
X95451254Y-57730233D01*
X95450943Y-57752764D01*
X95450572Y-57773064D01*
X95450139Y-57790750D01*
X95449646Y-57805437D01*
X95449092Y-57816741D01*
X95448476Y-57824278D01*
X95443568Y-57857076D01*
X95436615Y-57887494D01*
X95427543Y-57915209D01*
X95416177Y-57940752D01*
X95402341Y-57964654D01*
X95395725Y-57973576D01*
X95386106Y-57984545D01*
X95374855Y-57995992D01*
X95362933Y-58006991D01*
X95351301Y-58016615D01*
X95340920Y-58023937D01*
X95318532Y-58036282D01*
X95289803Y-58048288D01*
X95258253Y-58057664D01*
X95223712Y-58064461D01*
X95186012Y-58068727D01*
X95185898Y-58068736D01*
X95178200Y-58069134D01*
X95167095Y-58069451D01*
X95153053Y-58069691D01*
X95136549Y-58069856D01*
X95118054Y-58069950D01*
X95098041Y-58069976D01*
X95076983Y-58069939D01*
X95055351Y-58069840D01*
X95033620Y-58069684D01*
X95012260Y-58069474D01*
X94991744Y-58069213D01*
X94972545Y-58068905D01*
X94955136Y-58068553D01*
X94939989Y-58068160D01*
X94927576Y-58067730D01*
X94918371Y-58067266D01*
X94912844Y-58066772D01*
X94908032Y-58066059D01*
X94873314Y-58059528D01*
X94842038Y-58051015D01*
X94813971Y-58040420D01*
X94788877Y-58027641D01*
X94766522Y-58012576D01*
X94746669Y-57995124D01*
X94733763Y-57980971D01*
X94717336Y-57958300D01*
X94703492Y-57932879D01*
X94692177Y-57904570D01*
X94683339Y-57873234D01*
X94676924Y-57838731D01*
X94672880Y-57800923D01*
X94672763Y-57799134D01*
X94672358Y-57789776D01*
X94672019Y-57776437D01*
X94671746Y-57759252D01*
X94671539Y-57738356D01*
X94671400Y-57713884D01*
X94671330Y-57685972D01*
X94671329Y-57654754D01*
X94671399Y-57620366D01*
X94671439Y-57609628D01*
X94789254Y-57609628D01*
X94789280Y-57636199D01*
X94789344Y-57662331D01*
X94789446Y-57687652D01*
X94789585Y-57711792D01*
X94789763Y-57734379D01*
X94789978Y-57755041D01*
X94790231Y-57773407D01*
X94790522Y-57789107D01*
X94790851Y-57801769D01*
X94791218Y-57811021D01*
X94791623Y-57816493D01*
X94796036Y-57842685D01*
X94802814Y-57866409D01*
X94812006Y-57886870D01*
X94823777Y-57904233D01*
X94838293Y-57918659D01*
X94855717Y-57930312D01*
X94876215Y-57939354D01*
X94899952Y-57945949D01*
X94927093Y-57950260D01*
X94928252Y-57950373D01*
X94935342Y-57950797D01*
X94945929Y-57951165D01*
X94959535Y-57951476D01*
X94975682Y-57951731D01*
X94993893Y-57951930D01*
X95013689Y-57952074D01*
X95034592Y-57952163D01*
X95056124Y-57952197D01*
X95077807Y-57952176D01*
X95099162Y-57952101D01*
X95119713Y-57951973D01*
X95138980Y-57951791D01*
X95156486Y-57951555D01*
X95171752Y-57951267D01*
X95184301Y-57950926D01*
X95193654Y-57950532D01*
X95199334Y-57950087D01*
X95209498Y-57948583D01*
X95230023Y-57944305D01*
X95248812Y-57938732D01*
X95264682Y-57932188D01*
X95275353Y-57926085D01*
X95291396Y-57913233D01*
X95305080Y-57897359D01*
X95316037Y-57878922D01*
X95323900Y-57858380D01*
X95325298Y-57853503D01*
X95326776Y-57848116D01*
X95328073Y-57842876D01*
X95329203Y-57837496D01*
X95330179Y-57831691D01*
X95331015Y-57825172D01*
X95331724Y-57817655D01*
X95332319Y-57808851D01*
X95332813Y-57798475D01*
X95333220Y-57786240D01*
X95333553Y-57771859D01*
X95333825Y-57755045D01*
X95334050Y-57735513D01*
X95334241Y-57712975D01*
X95334410Y-57687145D01*
X95334572Y-57657736D01*
X95334740Y-57624462D01*
X95334897Y-57588667D01*
X95334998Y-57554534D01*
X95335031Y-57524260D01*
X95334994Y-57497692D01*
X95334887Y-57474681D01*
X95334708Y-57455075D01*
X95334457Y-57438722D01*
X95334132Y-57425473D01*
X95333733Y-57415175D01*
X95333257Y-57407678D01*
X95332840Y-57402979D01*
X95329065Y-57374701D01*
X95323297Y-57349960D01*
X95315352Y-57328570D01*
X95305045Y-57310347D01*
X95292191Y-57295103D01*
X95276604Y-57282655D01*
X95258099Y-57272815D01*
X95236493Y-57265399D01*
X95211599Y-57260220D01*
X95183233Y-57257093D01*
X95175174Y-57256635D01*
X95161803Y-57256142D01*
X95145407Y-57255743D01*
X95126616Y-57255436D01*
X95106058Y-57255224D01*
X95084360Y-57255105D01*
X95062151Y-57255082D01*
X95040058Y-57255153D01*
X95018710Y-57255320D01*
X94998734Y-57255582D01*
X94980759Y-57255941D01*
X94965412Y-57256397D01*
X94953322Y-57256949D01*
X94947265Y-57257331D01*
X94925464Y-57259271D01*
X94906568Y-57262010D01*
X94889616Y-57265712D01*
X94873647Y-57270540D01*
X94856592Y-57277898D01*
X94839506Y-57289143D01*
X94824989Y-57303466D01*
X94812990Y-57320939D01*
X94803462Y-57341636D01*
X94796356Y-57365628D01*
X94791623Y-57392987D01*
X94791470Y-57394530D01*
X94791079Y-57401431D01*
X94790726Y-57411976D01*
X94790411Y-57425794D01*
X94790134Y-57442514D01*
X94789895Y-57461765D01*
X94789693Y-57483176D01*
X94789530Y-57506375D01*
X94789404Y-57530991D01*
X94789316Y-57556652D01*
X94789266Y-57582988D01*
X94789254Y-57609628D01*
X94671439Y-57609628D01*
X94671539Y-57582942D01*
X94671558Y-57578782D01*
X94671711Y-57545612D01*
X94671864Y-57516259D01*
X94672031Y-57490426D01*
X94672228Y-57467812D01*
X94672470Y-57448118D01*
X94672772Y-57431045D01*
X94673150Y-57416295D01*
X94673619Y-57403568D01*
X94674194Y-57392564D01*
X94674891Y-57382986D01*
X94675725Y-57374533D01*
X94676711Y-57366907D01*
X94677864Y-57359808D01*
X94679201Y-57352938D01*
X94680736Y-57345997D01*
X94682484Y-57338686D01*
X94684461Y-57330707D01*
X94690675Y-57308835D01*
X94701929Y-57279346D01*
X94715813Y-57252846D01*
X94732410Y-57229273D01*
X94751802Y-57208560D01*
X94774073Y-57190645D01*
X94799307Y-57175464D01*
X94827586Y-57162952D01*
X94858994Y-57153046D01*
X94893614Y-57145682D01*
X94931528Y-57140795D01*
X94938979Y-57140318D01*
X94950098Y-57139902D01*
X94964335Y-57139548D01*
X94981172Y-57139258D01*
X95000089Y-57139032D01*
X95020569Y-57138869D01*
X95042093Y-57138769D01*
X95064143Y-57138734D01*
X95086200Y-57138762D01*
X95107746Y-57138854D01*
X95128262Y-57139010D01*
X95147231Y-57139230D01*
X95164133Y-57139515D01*
X95178450Y-57139863D01*
X95189665Y-57140276D01*
X95197258Y-57140753D01*
X95227394Y-57144459D01*
X95262280Y-57151578D01*
X95294103Y-57161491D01*
X95322898Y-57174230D01*
X95348699Y-57189829D01*
X95371539Y-57208320D01*
X95391454Y-57229737D01*
X95408477Y-57254111D01*
X95422642Y-57281476D01*
X95433984Y-57311865D01*
X95442537Y-57345310D01*
X95448335Y-57381845D01*
X95448712Y-57385892D01*
X95449297Y-57395772D01*
X95449824Y-57409184D01*
X95450291Y-57425746D01*
X95450700Y-57445073D01*
X95451049Y-57466779D01*
X95451339Y-57490482D01*
X95451569Y-57515796D01*
X95451623Y-57524260D01*
X95451739Y-57542339D01*
G37*
G36*
X96291913Y-57266858D02*
G01*
X96292054Y-57286864D01*
X96292162Y-57309472D01*
X96292242Y-57334856D01*
X96292297Y-57363186D01*
X96292332Y-57394635D01*
X96292351Y-57429376D01*
X96292359Y-57467580D01*
X96292359Y-57509419D01*
X96292356Y-57555066D01*
X96292354Y-57604693D01*
X96292356Y-57645552D01*
X96292363Y-57692203D01*
X96292368Y-57735011D01*
X96292368Y-57774146D01*
X96292355Y-57809778D01*
X96292326Y-57842079D01*
X96292274Y-57871217D01*
X96292195Y-57897365D01*
X96292083Y-57920691D01*
X96291933Y-57941366D01*
X96291813Y-57952624D01*
X96291739Y-57959562D01*
X96291497Y-57975447D01*
X96291200Y-57989193D01*
X96290844Y-58000969D01*
X96290422Y-58010947D01*
X96289931Y-58019296D01*
X96289365Y-58026187D01*
X96288717Y-58031790D01*
X96287984Y-58036276D01*
X96287159Y-58039815D01*
X96286237Y-58042577D01*
X96285214Y-58044732D01*
X96284083Y-58046452D01*
X96282839Y-58047906D01*
X96281478Y-58049265D01*
X96279993Y-58050699D01*
X96278380Y-58052379D01*
X96271043Y-58059443D01*
X96261621Y-58065209D01*
X96250156Y-58068698D01*
X96248143Y-58068878D01*
X96242015Y-58069103D01*
X96232238Y-58069308D01*
X96219099Y-58069489D01*
X96202889Y-58069646D01*
X96183895Y-58069778D01*
X96162408Y-58069882D01*
X96138714Y-58069957D01*
X96113104Y-58070001D01*
X96085866Y-58070012D01*
X96057289Y-58069990D01*
X96027662Y-58069932D01*
X96026203Y-58069929D01*
X95991828Y-58069839D01*
X95961332Y-58069752D01*
X95934453Y-58069662D01*
X95910928Y-58069563D01*
X95890495Y-58069450D01*
X95872893Y-58069318D01*
X95857857Y-58069161D01*
X95845127Y-58068973D01*
X95834439Y-58068749D01*
X95825532Y-58068484D01*
X95818143Y-58068172D01*
X95812010Y-58067808D01*
X95806870Y-58067386D01*
X95802461Y-58066901D01*
X95798521Y-58066348D01*
X95794787Y-58065720D01*
X95790997Y-58065013D01*
X95759071Y-58057274D01*
X95729407Y-58046586D01*
X95702788Y-58033104D01*
X95679229Y-58016838D01*
X95658743Y-57997798D01*
X95641344Y-57975994D01*
X95627046Y-57951434D01*
X95623074Y-57943117D01*
X95617472Y-57930077D01*
X95612882Y-57917151D01*
X95608822Y-57902924D01*
X95604813Y-57885982D01*
X95603696Y-57880780D01*
X95602656Y-57875321D01*
X95601833Y-57869837D01*
X95601203Y-57863813D01*
X95600741Y-57856733D01*
X95600423Y-57848081D01*
X95600223Y-57837340D01*
X95600116Y-57823995D01*
X95600079Y-57807530D01*
X95600083Y-57794821D01*
X95715886Y-57794821D01*
X95716123Y-57812213D01*
X95716649Y-57828537D01*
X95717465Y-57843024D01*
X95718570Y-57854906D01*
X95719967Y-57863415D01*
X95726446Y-57884558D01*
X95735352Y-57902518D01*
X95746915Y-57917469D01*
X95761384Y-57929670D01*
X95779010Y-57939381D01*
X95800041Y-57946863D01*
X95802534Y-57947553D01*
X95805350Y-57948254D01*
X95808391Y-57948865D01*
X95811938Y-57949394D01*
X95816269Y-57949848D01*
X95821667Y-57950234D01*
X95828412Y-57950559D01*
X95836784Y-57950832D01*
X95847064Y-57951059D01*
X95859532Y-57951248D01*
X95874468Y-57951406D01*
X95892155Y-57951540D01*
X95912871Y-57951658D01*
X95936897Y-57951767D01*
X95964514Y-57951875D01*
X95996003Y-57951988D01*
X96176097Y-57952624D01*
X96176097Y-57624462D01*
X96009443Y-57624462D01*
X96003031Y-57624463D01*
X95970867Y-57624503D01*
X95941371Y-57624598D01*
X95914730Y-57624747D01*
X95891127Y-57624948D01*
X95870750Y-57625197D01*
X95853783Y-57625494D01*
X95840411Y-57625835D01*
X95830821Y-57626218D01*
X95825197Y-57626643D01*
X95815740Y-57627976D01*
X95793166Y-57632820D01*
X95773989Y-57639732D01*
X95757953Y-57648925D01*
X95744801Y-57660607D01*
X95734276Y-57674988D01*
X95726122Y-57692280D01*
X95720081Y-57712693D01*
X95719015Y-57718728D01*
X95717816Y-57729936D01*
X95716903Y-57743918D01*
X95716276Y-57759905D01*
X95715937Y-57777129D01*
X95715886Y-57794821D01*
X95600083Y-57794821D01*
X95600086Y-57787429D01*
X95600103Y-57774540D01*
X95600160Y-57756638D01*
X95600273Y-57742067D01*
X95600467Y-57730316D01*
X95600765Y-57720878D01*
X95601192Y-57713244D01*
X95601771Y-57706904D01*
X95602527Y-57701351D01*
X95603484Y-57696074D01*
X95604666Y-57690566D01*
X95612372Y-57662003D01*
X95623221Y-57633542D01*
X95636612Y-57608199D01*
X95652645Y-57585816D01*
X95671420Y-57566232D01*
X95693035Y-57549290D01*
X95705102Y-57541091D01*
X95695728Y-57531071D01*
X95688002Y-57522082D01*
X95674242Y-57501437D01*
X95663053Y-57477600D01*
X95654472Y-57450647D01*
X95654344Y-57450141D01*
X95652963Y-57444371D01*
X95651896Y-57438882D01*
X95651104Y-57433040D01*
X95650549Y-57426212D01*
X95650191Y-57417765D01*
X95649992Y-57407066D01*
X95649912Y-57393482D01*
X95649913Y-57381569D01*
X95766431Y-57381569D01*
X95766481Y-57395843D01*
X95766642Y-57408540D01*
X95766961Y-57418431D01*
X95767489Y-57426228D01*
X95768275Y-57432643D01*
X95769369Y-57438386D01*
X95770821Y-57444169D01*
X95774516Y-57456129D01*
X95781357Y-57471939D01*
X95789758Y-57484493D01*
X95800063Y-57494265D01*
X95812616Y-57501729D01*
X95824213Y-57507168D01*
X96176097Y-57508318D01*
X96176097Y-57254625D01*
X96011573Y-57255491D01*
X96004108Y-57255531D01*
X95974467Y-57255699D01*
X95948623Y-57255869D01*
X95926289Y-57256046D01*
X95907174Y-57256239D01*
X95890993Y-57256453D01*
X95877456Y-57256697D01*
X95866276Y-57256976D01*
X95857165Y-57257298D01*
X95849834Y-57257669D01*
X95843995Y-57258097D01*
X95839361Y-57258589D01*
X95835643Y-57259150D01*
X95832554Y-57259789D01*
X95823499Y-57262228D01*
X95807015Y-57268787D01*
X95793779Y-57277563D01*
X95783419Y-57288916D01*
X95775564Y-57303209D01*
X95769843Y-57320801D01*
X95768749Y-57325959D01*
X95767799Y-57332694D01*
X95767128Y-57340970D01*
X95766701Y-57351440D01*
X95766481Y-57364755D01*
X95766431Y-57381569D01*
X95649913Y-57381569D01*
X95649914Y-57376379D01*
X95649956Y-57361655D01*
X95650078Y-57347282D01*
X95650317Y-57335820D01*
X95650715Y-57326595D01*
X95651312Y-57318930D01*
X95652153Y-57312151D01*
X95653277Y-57305581D01*
X95654726Y-57298545D01*
X95655727Y-57294116D01*
X95664323Y-57265456D01*
X95675955Y-57239616D01*
X95690580Y-57216634D01*
X95708154Y-57196547D01*
X95728635Y-57179391D01*
X95751977Y-57165205D01*
X95778139Y-57154025D01*
X95807076Y-57145890D01*
X95838745Y-57140835D01*
X95841125Y-57140618D01*
X95848331Y-57140187D01*
X95858354Y-57139821D01*
X95871344Y-57139518D01*
X95887447Y-57139277D01*
X95906813Y-57139096D01*
X95929589Y-57138975D01*
X95955924Y-57138913D01*
X95985966Y-57138907D01*
X96019864Y-57138958D01*
X96057765Y-57139063D01*
X96253948Y-57139714D01*
X96265142Y-57145913D01*
X96269447Y-57148599D01*
X96276448Y-57154200D01*
X96281374Y-57159725D01*
X96281714Y-57160233D01*
X96282959Y-57162011D01*
X96284104Y-57163637D01*
X96285151Y-57165284D01*
X96286107Y-57167122D01*
X96286974Y-57169326D01*
X96287757Y-57172066D01*
X96288461Y-57175514D01*
X96289090Y-57179844D01*
X96289647Y-57185227D01*
X96290137Y-57191835D01*
X96290565Y-57199841D01*
X96290934Y-57209417D01*
X96291249Y-57220734D01*
X96291515Y-57233965D01*
X96291734Y-57249282D01*
X96291788Y-57254625D01*
X96291913Y-57266858D01*
G37*
G36*
X103501812Y-57139722D02*
G01*
X103524766Y-57139755D01*
X103544269Y-57139822D01*
X103560686Y-57139934D01*
X103574383Y-57140099D01*
X103585725Y-57140327D01*
X103595078Y-57140628D01*
X103602808Y-57141012D01*
X103609279Y-57141487D01*
X103614859Y-57142063D01*
X103619912Y-57142750D01*
X103624804Y-57143558D01*
X103635032Y-57145504D01*
X103666086Y-57153408D01*
X103693865Y-57163805D01*
X103718477Y-57176797D01*
X103740032Y-57192490D01*
X103758640Y-57210984D01*
X103774410Y-57232386D01*
X103787450Y-57256797D01*
X103797869Y-57284322D01*
X103805778Y-57315063D01*
X103806559Y-57319321D01*
X103808199Y-57331868D01*
X103809540Y-57347215D01*
X103810555Y-57364420D01*
X103811214Y-57382539D01*
X103811490Y-57400630D01*
X103811353Y-57417750D01*
X103810776Y-57432956D01*
X103809728Y-57445306D01*
X103806144Y-57468906D01*
X103798892Y-57499767D01*
X103789060Y-57527469D01*
X103776580Y-57552121D01*
X103761386Y-57573828D01*
X103743411Y-57592699D01*
X103722586Y-57608841D01*
X103698847Y-57622359D01*
X103695129Y-57624131D01*
X103671873Y-57633660D01*
X103647374Y-57640948D01*
X103620305Y-57646400D01*
X103616741Y-57646929D01*
X103610929Y-57647614D01*
X103604006Y-57648216D01*
X103595634Y-57648746D01*
X103585476Y-57649216D01*
X103573194Y-57649638D01*
X103558449Y-57650021D01*
X103540904Y-57650377D01*
X103520220Y-57650717D01*
X103496061Y-57651053D01*
X103468087Y-57651395D01*
X103442284Y-57651700D01*
X103419291Y-57651989D01*
X103399774Y-57652266D01*
X103383390Y-57652543D01*
X103369795Y-57652834D01*
X103358645Y-57653154D01*
X103349596Y-57653515D01*
X103342305Y-57653933D01*
X103336427Y-57654420D01*
X103331619Y-57654990D01*
X103327537Y-57655658D01*
X103323838Y-57656436D01*
X103320177Y-57657340D01*
X103300268Y-57663797D01*
X103283152Y-57672471D01*
X103269160Y-57683520D01*
X103257961Y-57697272D01*
X103249226Y-57714054D01*
X103242623Y-57734193D01*
X103241530Y-57738861D01*
X103238908Y-57754892D01*
X103237166Y-57773563D01*
X103236310Y-57793813D01*
X103236346Y-57814584D01*
X103237280Y-57834818D01*
X103239117Y-57853453D01*
X103241864Y-57869432D01*
X103242311Y-57871372D01*
X103248638Y-57891262D01*
X103257546Y-57908045D01*
X103269224Y-57921904D01*
X103283861Y-57933021D01*
X103301645Y-57941579D01*
X103322767Y-57947760D01*
X103326264Y-57948470D01*
X103330129Y-57949088D01*
X103334648Y-57949615D01*
X103340137Y-57950057D01*
X103346916Y-57950423D01*
X103355303Y-57950718D01*
X103365615Y-57950951D01*
X103378170Y-57951129D01*
X103393287Y-57951258D01*
X103411284Y-57951346D01*
X103432479Y-57951400D01*
X103457189Y-57951427D01*
X103485733Y-57951434D01*
X103512355Y-57951429D01*
X103538687Y-57951400D01*
X103561479Y-57951329D01*
X103581057Y-57951195D01*
X103597745Y-57950979D01*
X103611866Y-57950663D01*
X103623747Y-57950228D01*
X103633710Y-57949653D01*
X103642082Y-57948920D01*
X103649185Y-57948011D01*
X103655346Y-57946904D01*
X103660887Y-57945583D01*
X103666134Y-57944026D01*
X103671411Y-57942216D01*
X103677043Y-57940132D01*
X103682308Y-57937933D01*
X103697568Y-57928703D01*
X103710405Y-57916335D01*
X103720460Y-57901233D01*
X103727375Y-57883796D01*
X103729182Y-57877412D01*
X103732229Y-57866664D01*
X103735016Y-57856851D01*
X103736282Y-57852717D01*
X103742424Y-57838761D01*
X103750649Y-57828271D01*
X103761240Y-57821035D01*
X103774484Y-57816840D01*
X103790666Y-57815476D01*
X103794010Y-57815496D01*
X103806704Y-57816247D01*
X103816671Y-57818310D01*
X103824986Y-57821994D01*
X103832725Y-57827610D01*
X103836705Y-57831407D01*
X103843701Y-57841301D01*
X103847842Y-57853158D01*
X103849169Y-57867279D01*
X103847728Y-57883965D01*
X103843559Y-57903517D01*
X103835042Y-57930579D01*
X103823142Y-57957344D01*
X103808494Y-57981145D01*
X103791035Y-58002029D01*
X103770704Y-58020043D01*
X103747438Y-58035233D01*
X103721176Y-58047646D01*
X103691855Y-58057329D01*
X103659413Y-58064328D01*
X103623788Y-58068690D01*
X103623561Y-58068708D01*
X103617546Y-58069002D01*
X103607832Y-58069262D01*
X103594848Y-58069485D01*
X103579022Y-58069669D01*
X103560781Y-58069809D01*
X103540554Y-58069903D01*
X103518769Y-58069947D01*
X103495855Y-58069937D01*
X103472239Y-58069871D01*
X103449152Y-58069772D01*
X103423977Y-58069634D01*
X103402270Y-58069457D01*
X103383650Y-58069218D01*
X103367740Y-58068893D01*
X103354159Y-58068458D01*
X103342530Y-58067892D01*
X103332472Y-58067169D01*
X103323607Y-58066267D01*
X103315555Y-58065163D01*
X103307938Y-58063832D01*
X103300377Y-58062252D01*
X103292492Y-58060399D01*
X103283904Y-58058250D01*
X103261301Y-58051484D01*
X103234203Y-58040129D01*
X103210049Y-58025929D01*
X103188785Y-58008826D01*
X103170361Y-57988762D01*
X103154724Y-57965679D01*
X103141825Y-57939519D01*
X103131610Y-57910224D01*
X103124030Y-57877736D01*
X103123735Y-57876077D01*
X103121745Y-57860952D01*
X103120338Y-57842849D01*
X103119512Y-57822774D01*
X103119268Y-57801734D01*
X103119605Y-57780734D01*
X103120522Y-57760780D01*
X103122019Y-57742878D01*
X103124096Y-57728033D01*
X103128214Y-57708369D01*
X103137107Y-57677878D01*
X103148526Y-57650597D01*
X103162554Y-57626411D01*
X103179273Y-57605207D01*
X103198765Y-57586869D01*
X103221112Y-57571284D01*
X103246397Y-57558338D01*
X103257928Y-57553674D01*
X103274471Y-57548193D01*
X103292988Y-57543430D01*
X103314567Y-57539077D01*
X103318540Y-57538378D01*
X103323710Y-57537558D01*
X103329068Y-57536852D01*
X103334973Y-57536249D01*
X103341787Y-57535733D01*
X103349869Y-57535292D01*
X103359580Y-57534912D01*
X103371281Y-57534579D01*
X103385331Y-57534280D01*
X103402092Y-57534001D01*
X103421923Y-57533730D01*
X103445186Y-57533451D01*
X103472239Y-57533152D01*
X103477420Y-57533096D01*
X103503567Y-57532807D01*
X103525961Y-57532540D01*
X103544941Y-57532282D01*
X103560844Y-57532020D01*
X103574010Y-57531741D01*
X103584777Y-57531430D01*
X103593481Y-57531076D01*
X103600462Y-57530664D01*
X103606058Y-57530181D01*
X103610606Y-57529613D01*
X103614445Y-57528949D01*
X103617913Y-57528173D01*
X103621348Y-57527273D01*
X103627066Y-57525607D01*
X103643108Y-57519447D01*
X103656219Y-57511705D01*
X103667242Y-57501915D01*
X103668818Y-57500200D01*
X103675827Y-57491423D01*
X103681237Y-57482063D01*
X103685639Y-57470930D01*
X103689621Y-57456836D01*
X103689985Y-57455293D01*
X103691936Y-57443604D01*
X103693367Y-57428943D01*
X103694269Y-57412297D01*
X103694635Y-57394655D01*
X103694458Y-57377004D01*
X103693728Y-57360333D01*
X103692439Y-57345629D01*
X103690584Y-57333881D01*
X103687297Y-57320966D01*
X103680833Y-57304033D01*
X103672468Y-57290400D01*
X103661977Y-57279727D01*
X103649132Y-57271672D01*
X103647665Y-57270968D01*
X103639895Y-57267601D01*
X103631676Y-57264723D01*
X103622636Y-57262300D01*
X103612406Y-57260296D01*
X103600615Y-57258675D01*
X103586895Y-57257401D01*
X103570874Y-57256439D01*
X103552183Y-57255753D01*
X103530453Y-57255308D01*
X103505312Y-57255066D01*
X103476391Y-57254994D01*
X103465289Y-57255006D01*
X103435403Y-57255191D01*
X103409242Y-57255640D01*
X103386490Y-57256402D01*
X103366833Y-57257528D01*
X103349955Y-57259068D01*
X103335540Y-57261071D01*
X103323274Y-57263587D01*
X103312841Y-57266667D01*
X103303927Y-57270361D01*
X103296215Y-57274717D01*
X103289391Y-57279787D01*
X103283140Y-57285621D01*
X103280321Y-57288755D01*
X103272239Y-57300600D01*
X103265476Y-57314835D01*
X103260690Y-57330153D01*
X103259954Y-57333249D01*
X103256436Y-57345673D01*
X103252512Y-57355115D01*
X103247707Y-57362537D01*
X103241546Y-57368905D01*
X103236498Y-57372856D01*
X103226766Y-57377901D01*
X103215188Y-57380703D01*
X103200777Y-57381569D01*
X103200552Y-57381569D01*
X103183859Y-57379986D01*
X103169753Y-57375434D01*
X103158432Y-57368088D01*
X103150099Y-57358125D01*
X103144952Y-57345719D01*
X103143192Y-57331047D01*
X103143612Y-57325833D01*
X103145314Y-57316297D01*
X103148057Y-57304698D01*
X103151556Y-57292054D01*
X103155523Y-57279385D01*
X103159672Y-57267710D01*
X103163715Y-57258050D01*
X103166555Y-57252218D01*
X103180930Y-57228082D01*
X103198189Y-57206858D01*
X103218366Y-57188520D01*
X103241499Y-57173045D01*
X103267624Y-57160407D01*
X103296777Y-57150580D01*
X103328995Y-57143539D01*
X103333234Y-57142866D01*
X103338483Y-57142161D01*
X103344198Y-57141567D01*
X103350748Y-57141077D01*
X103358502Y-57140680D01*
X103367827Y-57140367D01*
X103379093Y-57140127D01*
X103392668Y-57139953D01*
X103408920Y-57139834D01*
X103428219Y-57139761D01*
X103450933Y-57139724D01*
X103477429Y-57139714D01*
X103501812Y-57139722D01*
G37*
%LPC*%
D13*
X92350000Y-55466250D03*
D14*
X93850000Y-60916250D03*
X103850000Y-60916250D03*
D15*
X100140000Y-63000000D03*
D13*
X105350000Y-55466250D03*
D16*
X92450000Y-67533750D03*
D15*
X94990000Y-67533750D03*
X97530000Y-67533750D03*
X100070000Y-67533750D03*
X102610000Y-67533750D03*
X105150000Y-67533750D03*
D17*
X101720000Y-54646250D03*
X95940000Y-54646250D03*
D18*
X103150000Y-55146250D03*
D19*
X103150000Y-50966250D03*
D18*
X94510000Y-55146250D03*
D19*
X94510000Y-50966250D03*
%LPD*%
M02*
