G04 #@! TF.GenerationSoftware,KiCad,Pcbnew,7.0.7*
G04 #@! TF.CreationDate,2024-02-23T22:46:56+01:00*
G04 #@! TF.ProjectId,SL_USB-TypeC-Breakout,534c5f55-5342-42d5-9479-7065432d4272,v1.0*
G04 #@! TF.SameCoordinates,Original*
G04 #@! TF.FileFunction,Legend,Top*
G04 #@! TF.FilePolarity,Positive*
%FSLAX46Y46*%
G04 Gerber Fmt 4.6, Leading zero omitted, Abs format (unit mm)*
G04 Created by KiCad (PCBNEW 7.0.7) date 2024-02-23 22:46:56*
%MOMM*%
%LPD*%
G01*
G04 APERTURE LIST*
G04 Aperture macros list*
%AMRoundRect*
0 Rectangle with rounded corners*
0 $1 Rounding radius*
0 $2 $3 $4 $5 $6 $7 $8 $9 X,Y pos of 4 corners*
0 Add a 4 corners polygon primitive as box body*
4,1,4,$2,$3,$4,$5,$6,$7,$8,$9,$2,$3,0*
0 Add four circle primitives for the rounded corners*
1,1,$1+$1,$2,$3*
1,1,$1+$1,$4,$5*
1,1,$1+$1,$6,$7*
1,1,$1+$1,$8,$9*
0 Add four rect primitives between the rounded corners*
20,1,$1+$1,$2,$3,$4,$5,0*
20,1,$1+$1,$4,$5,$6,$7,0*
20,1,$1+$1,$6,$7,$8,$9,0*
20,1,$1+$1,$8,$9,$2,$3,0*%
G04 Aperture macros list end*
%ADD10C,1.000000*%
%ADD11C,0.100000*%
%ADD12C,0.150000*%
%ADD13C,0.120000*%
%ADD14RoundRect,0.237500X-0.237500X0.250000X-0.237500X-0.250000X0.237500X-0.250000X0.237500X0.250000X0*%
%ADD15C,2.000000*%
%ADD16C,3.200000*%
%ADD17O,1.700000X1.700000*%
%ADD18R,1.700000X1.700000*%
%ADD19C,0.650000*%
%ADD20R,0.600000X1.150000*%
%ADD21R,0.300000X1.150000*%
%ADD22O,1.000000X2.100000*%
%ADD23O,1.000000X1.800000*%
G04 APERTURE END LIST*
D10*
X103350000Y-49966250D02*
X103850000Y-49466250D01*
X107350050Y-49966250D02*
G75*
G03*
X106850000Y-49466250I-500050J-50D01*
G01*
X90350000Y-62966250D02*
X90350000Y-68966250D01*
X103850000Y-62466250D02*
X106850000Y-62466250D01*
X94350000Y-49966250D02*
X103350000Y-49966250D01*
X90349950Y-68966250D02*
G75*
G03*
X90850000Y-69466250I500050J50D01*
G01*
X93850000Y-62466250D02*
X90850000Y-62466250D01*
X90850000Y-49466250D02*
X93850000Y-49466250D01*
X93850000Y-62466250D02*
G75*
G03*
X93850000Y-59366250I0J1550000D01*
G01*
X103850000Y-59366250D02*
X106850000Y-59366250D01*
X106850000Y-69466200D02*
G75*
G03*
X107350000Y-68966250I0J500000D01*
G01*
X93850000Y-49466250D02*
X94350000Y-49966250D01*
X90850000Y-69466250D02*
X98850000Y-69466250D01*
X98850000Y-69466250D02*
X106850000Y-69466250D01*
X107350000Y-49966250D02*
X107350000Y-58966250D01*
X107350050Y-62966250D02*
G75*
G03*
X106850000Y-62466250I-500050J-50D01*
G01*
X90850000Y-62466300D02*
G75*
G03*
X90350000Y-62966250I0J-500000D01*
G01*
X103850000Y-59366250D02*
G75*
G03*
X103850000Y-62466250I0J-1550000D01*
G01*
X90350000Y-58966250D02*
X90350000Y-49966250D01*
X90850000Y-49466300D02*
G75*
G03*
X90350000Y-49966250I0J-500000D01*
G01*
X107350000Y-68966250D02*
X107350000Y-62966250D01*
X93850000Y-59366250D02*
X90850000Y-59366250D01*
X103850000Y-49466250D02*
X106850000Y-49466250D01*
X106849999Y-59366270D02*
G75*
G03*
X107349999Y-58966250I33701J470370D01*
G01*
X90349938Y-58966260D02*
G75*
G03*
X90850000Y-59366250I468362J72960D01*
G01*
D11*
X105002300Y-53859522D02*
X105026109Y-53788094D01*
X105026109Y-53788094D02*
X105026109Y-53669046D01*
X105026109Y-53669046D02*
X105002300Y-53621427D01*
X105002300Y-53621427D02*
X104978490Y-53597618D01*
X104978490Y-53597618D02*
X104930871Y-53573808D01*
X104930871Y-53573808D02*
X104883252Y-53573808D01*
X104883252Y-53573808D02*
X104835633Y-53597618D01*
X104835633Y-53597618D02*
X104811823Y-53621427D01*
X104811823Y-53621427D02*
X104788014Y-53669046D01*
X104788014Y-53669046D02*
X104764204Y-53764284D01*
X104764204Y-53764284D02*
X104740395Y-53811903D01*
X104740395Y-53811903D02*
X104716585Y-53835713D01*
X104716585Y-53835713D02*
X104668966Y-53859522D01*
X104668966Y-53859522D02*
X104621347Y-53859522D01*
X104621347Y-53859522D02*
X104573728Y-53835713D01*
X104573728Y-53835713D02*
X104549919Y-53811903D01*
X104549919Y-53811903D02*
X104526109Y-53764284D01*
X104526109Y-53764284D02*
X104526109Y-53645237D01*
X104526109Y-53645237D02*
X104549919Y-53573808D01*
X105026109Y-53359523D02*
X104526109Y-53359523D01*
X105026109Y-53145237D02*
X104764204Y-53145237D01*
X104764204Y-53145237D02*
X104716585Y-53169047D01*
X104716585Y-53169047D02*
X104692776Y-53216666D01*
X104692776Y-53216666D02*
X104692776Y-53288094D01*
X104692776Y-53288094D02*
X104716585Y-53335713D01*
X104716585Y-53335713D02*
X104740395Y-53359523D01*
X105026109Y-52907142D02*
X104692776Y-52907142D01*
X104526109Y-52907142D02*
X104549919Y-52930951D01*
X104549919Y-52930951D02*
X104573728Y-52907142D01*
X104573728Y-52907142D02*
X104549919Y-52883332D01*
X104549919Y-52883332D02*
X104526109Y-52907142D01*
X104526109Y-52907142D02*
X104573728Y-52907142D01*
X105002300Y-52478571D02*
X105026109Y-52526190D01*
X105026109Y-52526190D02*
X105026109Y-52621428D01*
X105026109Y-52621428D02*
X105002300Y-52669047D01*
X105002300Y-52669047D02*
X104954680Y-52692856D01*
X104954680Y-52692856D02*
X104764204Y-52692856D01*
X104764204Y-52692856D02*
X104716585Y-52669047D01*
X104716585Y-52669047D02*
X104692776Y-52621428D01*
X104692776Y-52621428D02*
X104692776Y-52526190D01*
X104692776Y-52526190D02*
X104716585Y-52478571D01*
X104716585Y-52478571D02*
X104764204Y-52454761D01*
X104764204Y-52454761D02*
X104811823Y-52454761D01*
X104811823Y-52454761D02*
X104859442Y-52692856D01*
X105026109Y-52169047D02*
X105002300Y-52216666D01*
X105002300Y-52216666D02*
X104954680Y-52240476D01*
X104954680Y-52240476D02*
X104526109Y-52240476D01*
X105026109Y-51764285D02*
X104526109Y-51764285D01*
X105002300Y-51764285D02*
X105026109Y-51811904D01*
X105026109Y-51811904D02*
X105026109Y-51907142D01*
X105026109Y-51907142D02*
X105002300Y-51954761D01*
X105002300Y-51954761D02*
X104978490Y-51978571D01*
X104978490Y-51978571D02*
X104930871Y-52002380D01*
X104930871Y-52002380D02*
X104788014Y-52002380D01*
X104788014Y-52002380D02*
X104740395Y-51978571D01*
X104740395Y-51978571D02*
X104716585Y-51954761D01*
X104716585Y-51954761D02*
X104692776Y-51907142D01*
X104692776Y-51907142D02*
X104692776Y-51811904D01*
X104692776Y-51811904D02*
X104716585Y-51764285D01*
X94600000Y-65815228D02*
X94571428Y-65843800D01*
X94571428Y-65843800D02*
X94485714Y-65872371D01*
X94485714Y-65872371D02*
X94428571Y-65872371D01*
X94428571Y-65872371D02*
X94342857Y-65843800D01*
X94342857Y-65843800D02*
X94285714Y-65786657D01*
X94285714Y-65786657D02*
X94257143Y-65729514D01*
X94257143Y-65729514D02*
X94228571Y-65615228D01*
X94228571Y-65615228D02*
X94228571Y-65529514D01*
X94228571Y-65529514D02*
X94257143Y-65415228D01*
X94257143Y-65415228D02*
X94285714Y-65358085D01*
X94285714Y-65358085D02*
X94342857Y-65300942D01*
X94342857Y-65300942D02*
X94428571Y-65272371D01*
X94428571Y-65272371D02*
X94485714Y-65272371D01*
X94485714Y-65272371D02*
X94571428Y-65300942D01*
X94571428Y-65300942D02*
X94600000Y-65329514D01*
X95200000Y-65815228D02*
X95171428Y-65843800D01*
X95171428Y-65843800D02*
X95085714Y-65872371D01*
X95085714Y-65872371D02*
X95028571Y-65872371D01*
X95028571Y-65872371D02*
X94942857Y-65843800D01*
X94942857Y-65843800D02*
X94885714Y-65786657D01*
X94885714Y-65786657D02*
X94857143Y-65729514D01*
X94857143Y-65729514D02*
X94828571Y-65615228D01*
X94828571Y-65615228D02*
X94828571Y-65529514D01*
X94828571Y-65529514D02*
X94857143Y-65415228D01*
X94857143Y-65415228D02*
X94885714Y-65358085D01*
X94885714Y-65358085D02*
X94942857Y-65300942D01*
X94942857Y-65300942D02*
X95028571Y-65272371D01*
X95028571Y-65272371D02*
X95085714Y-65272371D01*
X95085714Y-65272371D02*
X95171428Y-65300942D01*
X95171428Y-65300942D02*
X95200000Y-65329514D01*
X95771428Y-65872371D02*
X95428571Y-65872371D01*
X95600000Y-65872371D02*
X95600000Y-65272371D01*
X95600000Y-65272371D02*
X95542857Y-65358085D01*
X95542857Y-65358085D02*
X95485714Y-65415228D01*
X95485714Y-65415228D02*
X95428571Y-65443800D01*
X96228571Y-61143800D02*
X96314286Y-61172371D01*
X96314286Y-61172371D02*
X96457143Y-61172371D01*
X96457143Y-61172371D02*
X96514286Y-61143800D01*
X96514286Y-61143800D02*
X96542857Y-61115228D01*
X96542857Y-61115228D02*
X96571428Y-61058085D01*
X96571428Y-61058085D02*
X96571428Y-61000942D01*
X96571428Y-61000942D02*
X96542857Y-60943800D01*
X96542857Y-60943800D02*
X96514286Y-60915228D01*
X96514286Y-60915228D02*
X96457143Y-60886657D01*
X96457143Y-60886657D02*
X96342857Y-60858085D01*
X96342857Y-60858085D02*
X96285714Y-60829514D01*
X96285714Y-60829514D02*
X96257143Y-60800942D01*
X96257143Y-60800942D02*
X96228571Y-60743800D01*
X96228571Y-60743800D02*
X96228571Y-60686657D01*
X96228571Y-60686657D02*
X96257143Y-60629514D01*
X96257143Y-60629514D02*
X96285714Y-60600942D01*
X96285714Y-60600942D02*
X96342857Y-60572371D01*
X96342857Y-60572371D02*
X96485714Y-60572371D01*
X96485714Y-60572371D02*
X96571428Y-60600942D01*
X97028572Y-60858085D02*
X97114286Y-60886657D01*
X97114286Y-60886657D02*
X97142857Y-60915228D01*
X97142857Y-60915228D02*
X97171429Y-60972371D01*
X97171429Y-60972371D02*
X97171429Y-61058085D01*
X97171429Y-61058085D02*
X97142857Y-61115228D01*
X97142857Y-61115228D02*
X97114286Y-61143800D01*
X97114286Y-61143800D02*
X97057143Y-61172371D01*
X97057143Y-61172371D02*
X96828572Y-61172371D01*
X96828572Y-61172371D02*
X96828572Y-60572371D01*
X96828572Y-60572371D02*
X97028572Y-60572371D01*
X97028572Y-60572371D02*
X97085715Y-60600942D01*
X97085715Y-60600942D02*
X97114286Y-60629514D01*
X97114286Y-60629514D02*
X97142857Y-60686657D01*
X97142857Y-60686657D02*
X97142857Y-60743800D01*
X97142857Y-60743800D02*
X97114286Y-60800942D01*
X97114286Y-60800942D02*
X97085715Y-60829514D01*
X97085715Y-60829514D02*
X97028572Y-60858085D01*
X97028572Y-60858085D02*
X96828572Y-60858085D01*
X97428572Y-60572371D02*
X97428572Y-61058085D01*
X97428572Y-61058085D02*
X97457143Y-61115228D01*
X97457143Y-61115228D02*
X97485715Y-61143800D01*
X97485715Y-61143800D02*
X97542857Y-61172371D01*
X97542857Y-61172371D02*
X97657143Y-61172371D01*
X97657143Y-61172371D02*
X97714286Y-61143800D01*
X97714286Y-61143800D02*
X97742857Y-61115228D01*
X97742857Y-61115228D02*
X97771429Y-61058085D01*
X97771429Y-61058085D02*
X97771429Y-60572371D01*
X98371428Y-61172371D02*
X98028571Y-61172371D01*
X98200000Y-61172371D02*
X98200000Y-60572371D01*
X98200000Y-60572371D02*
X98142857Y-60658085D01*
X98142857Y-60658085D02*
X98085714Y-60715228D01*
X98085714Y-60715228D02*
X98028571Y-60743800D01*
X99228571Y-61143800D02*
X99314286Y-61172371D01*
X99314286Y-61172371D02*
X99457143Y-61172371D01*
X99457143Y-61172371D02*
X99514286Y-61143800D01*
X99514286Y-61143800D02*
X99542857Y-61115228D01*
X99542857Y-61115228D02*
X99571428Y-61058085D01*
X99571428Y-61058085D02*
X99571428Y-61000942D01*
X99571428Y-61000942D02*
X99542857Y-60943800D01*
X99542857Y-60943800D02*
X99514286Y-60915228D01*
X99514286Y-60915228D02*
X99457143Y-60886657D01*
X99457143Y-60886657D02*
X99342857Y-60858085D01*
X99342857Y-60858085D02*
X99285714Y-60829514D01*
X99285714Y-60829514D02*
X99257143Y-60800942D01*
X99257143Y-60800942D02*
X99228571Y-60743800D01*
X99228571Y-60743800D02*
X99228571Y-60686657D01*
X99228571Y-60686657D02*
X99257143Y-60629514D01*
X99257143Y-60629514D02*
X99285714Y-60600942D01*
X99285714Y-60600942D02*
X99342857Y-60572371D01*
X99342857Y-60572371D02*
X99485714Y-60572371D01*
X99485714Y-60572371D02*
X99571428Y-60600942D01*
X100028572Y-60858085D02*
X100114286Y-60886657D01*
X100114286Y-60886657D02*
X100142857Y-60915228D01*
X100142857Y-60915228D02*
X100171429Y-60972371D01*
X100171429Y-60972371D02*
X100171429Y-61058085D01*
X100171429Y-61058085D02*
X100142857Y-61115228D01*
X100142857Y-61115228D02*
X100114286Y-61143800D01*
X100114286Y-61143800D02*
X100057143Y-61172371D01*
X100057143Y-61172371D02*
X99828572Y-61172371D01*
X99828572Y-61172371D02*
X99828572Y-60572371D01*
X99828572Y-60572371D02*
X100028572Y-60572371D01*
X100028572Y-60572371D02*
X100085715Y-60600942D01*
X100085715Y-60600942D02*
X100114286Y-60629514D01*
X100114286Y-60629514D02*
X100142857Y-60686657D01*
X100142857Y-60686657D02*
X100142857Y-60743800D01*
X100142857Y-60743800D02*
X100114286Y-60800942D01*
X100114286Y-60800942D02*
X100085715Y-60829514D01*
X100085715Y-60829514D02*
X100028572Y-60858085D01*
X100028572Y-60858085D02*
X99828572Y-60858085D01*
X100428572Y-60572371D02*
X100428572Y-61058085D01*
X100428572Y-61058085D02*
X100457143Y-61115228D01*
X100457143Y-61115228D02*
X100485715Y-61143800D01*
X100485715Y-61143800D02*
X100542857Y-61172371D01*
X100542857Y-61172371D02*
X100657143Y-61172371D01*
X100657143Y-61172371D02*
X100714286Y-61143800D01*
X100714286Y-61143800D02*
X100742857Y-61115228D01*
X100742857Y-61115228D02*
X100771429Y-61058085D01*
X100771429Y-61058085D02*
X100771429Y-60572371D01*
X101028571Y-60629514D02*
X101057143Y-60600942D01*
X101057143Y-60600942D02*
X101114286Y-60572371D01*
X101114286Y-60572371D02*
X101257143Y-60572371D01*
X101257143Y-60572371D02*
X101314286Y-60600942D01*
X101314286Y-60600942D02*
X101342857Y-60629514D01*
X101342857Y-60629514D02*
X101371428Y-60686657D01*
X101371428Y-60686657D02*
X101371428Y-60743800D01*
X101371428Y-60743800D02*
X101342857Y-60829514D01*
X101342857Y-60829514D02*
X101000000Y-61172371D01*
X101000000Y-61172371D02*
X101371428Y-61172371D01*
D12*
X104997619Y-65162295D02*
X104616667Y-65162295D01*
X104616667Y-65162295D02*
X104578571Y-65543247D01*
X104578571Y-65543247D02*
X104616667Y-65505152D01*
X104616667Y-65505152D02*
X104692857Y-65467057D01*
X104692857Y-65467057D02*
X104883333Y-65467057D01*
X104883333Y-65467057D02*
X104959524Y-65505152D01*
X104959524Y-65505152D02*
X104997619Y-65543247D01*
X104997619Y-65543247D02*
X105035714Y-65619438D01*
X105035714Y-65619438D02*
X105035714Y-65809914D01*
X105035714Y-65809914D02*
X104997619Y-65886104D01*
X104997619Y-65886104D02*
X104959524Y-65924200D01*
X104959524Y-65924200D02*
X104883333Y-65962295D01*
X104883333Y-65962295D02*
X104692857Y-65962295D01*
X104692857Y-65962295D02*
X104616667Y-65924200D01*
X104616667Y-65924200D02*
X104578571Y-65886104D01*
X105264286Y-65162295D02*
X105530953Y-65962295D01*
X105530953Y-65962295D02*
X105797619Y-65162295D01*
X91890476Y-65200390D02*
X91814286Y-65162295D01*
X91814286Y-65162295D02*
X91700000Y-65162295D01*
X91700000Y-65162295D02*
X91585714Y-65200390D01*
X91585714Y-65200390D02*
X91509524Y-65276580D01*
X91509524Y-65276580D02*
X91471429Y-65352771D01*
X91471429Y-65352771D02*
X91433333Y-65505152D01*
X91433333Y-65505152D02*
X91433333Y-65619438D01*
X91433333Y-65619438D02*
X91471429Y-65771819D01*
X91471429Y-65771819D02*
X91509524Y-65848009D01*
X91509524Y-65848009D02*
X91585714Y-65924200D01*
X91585714Y-65924200D02*
X91700000Y-65962295D01*
X91700000Y-65962295D02*
X91776191Y-65962295D01*
X91776191Y-65962295D02*
X91890476Y-65924200D01*
X91890476Y-65924200D02*
X91928572Y-65886104D01*
X91928572Y-65886104D02*
X91928572Y-65619438D01*
X91928572Y-65619438D02*
X91776191Y-65619438D01*
X92271429Y-65962295D02*
X92271429Y-65162295D01*
X92271429Y-65162295D02*
X92728572Y-65962295D01*
X92728572Y-65962295D02*
X92728572Y-65162295D01*
X93109524Y-65962295D02*
X93109524Y-65162295D01*
X93109524Y-65162295D02*
X93300000Y-65162295D01*
X93300000Y-65162295D02*
X93414286Y-65200390D01*
X93414286Y-65200390D02*
X93490476Y-65276580D01*
X93490476Y-65276580D02*
X93528571Y-65352771D01*
X93528571Y-65352771D02*
X93566667Y-65505152D01*
X93566667Y-65505152D02*
X93566667Y-65619438D01*
X93566667Y-65619438D02*
X93528571Y-65771819D01*
X93528571Y-65771819D02*
X93490476Y-65848009D01*
X93490476Y-65848009D02*
X93414286Y-65924200D01*
X93414286Y-65924200D02*
X93300000Y-65962295D01*
X93300000Y-65962295D02*
X93109524Y-65962295D01*
D11*
X92597700Y-51740477D02*
X92573890Y-51811905D01*
X92573890Y-51811905D02*
X92573890Y-51930953D01*
X92573890Y-51930953D02*
X92597700Y-51978572D01*
X92597700Y-51978572D02*
X92621509Y-52002381D01*
X92621509Y-52002381D02*
X92669128Y-52026191D01*
X92669128Y-52026191D02*
X92716747Y-52026191D01*
X92716747Y-52026191D02*
X92764366Y-52002381D01*
X92764366Y-52002381D02*
X92788176Y-51978572D01*
X92788176Y-51978572D02*
X92811985Y-51930953D01*
X92811985Y-51930953D02*
X92835795Y-51835715D01*
X92835795Y-51835715D02*
X92859604Y-51788096D01*
X92859604Y-51788096D02*
X92883414Y-51764286D01*
X92883414Y-51764286D02*
X92931033Y-51740477D01*
X92931033Y-51740477D02*
X92978652Y-51740477D01*
X92978652Y-51740477D02*
X93026271Y-51764286D01*
X93026271Y-51764286D02*
X93050080Y-51788096D01*
X93050080Y-51788096D02*
X93073890Y-51835715D01*
X93073890Y-51835715D02*
X93073890Y-51954762D01*
X93073890Y-51954762D02*
X93050080Y-52026191D01*
X92573890Y-52240476D02*
X93073890Y-52240476D01*
X92573890Y-52454762D02*
X92835795Y-52454762D01*
X92835795Y-52454762D02*
X92883414Y-52430952D01*
X92883414Y-52430952D02*
X92907223Y-52383333D01*
X92907223Y-52383333D02*
X92907223Y-52311905D01*
X92907223Y-52311905D02*
X92883414Y-52264286D01*
X92883414Y-52264286D02*
X92859604Y-52240476D01*
X92573890Y-52692857D02*
X92907223Y-52692857D01*
X93073890Y-52692857D02*
X93050080Y-52669048D01*
X93050080Y-52669048D02*
X93026271Y-52692857D01*
X93026271Y-52692857D02*
X93050080Y-52716667D01*
X93050080Y-52716667D02*
X93073890Y-52692857D01*
X93073890Y-52692857D02*
X93026271Y-52692857D01*
X92597700Y-53121428D02*
X92573890Y-53073809D01*
X92573890Y-53073809D02*
X92573890Y-52978571D01*
X92573890Y-52978571D02*
X92597700Y-52930952D01*
X92597700Y-52930952D02*
X92645319Y-52907143D01*
X92645319Y-52907143D02*
X92835795Y-52907143D01*
X92835795Y-52907143D02*
X92883414Y-52930952D01*
X92883414Y-52930952D02*
X92907223Y-52978571D01*
X92907223Y-52978571D02*
X92907223Y-53073809D01*
X92907223Y-53073809D02*
X92883414Y-53121428D01*
X92883414Y-53121428D02*
X92835795Y-53145238D01*
X92835795Y-53145238D02*
X92788176Y-53145238D01*
X92788176Y-53145238D02*
X92740557Y-52907143D01*
X92573890Y-53430952D02*
X92597700Y-53383333D01*
X92597700Y-53383333D02*
X92645319Y-53359523D01*
X92645319Y-53359523D02*
X93073890Y-53359523D01*
X92573890Y-53835714D02*
X93073890Y-53835714D01*
X92597700Y-53835714D02*
X92573890Y-53788095D01*
X92573890Y-53788095D02*
X92573890Y-53692857D01*
X92573890Y-53692857D02*
X92597700Y-53645238D01*
X92597700Y-53645238D02*
X92621509Y-53621428D01*
X92621509Y-53621428D02*
X92669128Y-53597619D01*
X92669128Y-53597619D02*
X92811985Y-53597619D01*
X92811985Y-53597619D02*
X92859604Y-53621428D01*
X92859604Y-53621428D02*
X92883414Y-53645238D01*
X92883414Y-53645238D02*
X92907223Y-53692857D01*
X92907223Y-53692857D02*
X92907223Y-53788095D01*
X92907223Y-53788095D02*
X92883414Y-53835714D01*
D12*
X101945238Y-65962295D02*
X101945238Y-65162295D01*
X101945238Y-65162295D02*
X102135714Y-65162295D01*
X102135714Y-65162295D02*
X102250000Y-65200390D01*
X102250000Y-65200390D02*
X102326190Y-65276580D01*
X102326190Y-65276580D02*
X102364285Y-65352771D01*
X102364285Y-65352771D02*
X102402381Y-65505152D01*
X102402381Y-65505152D02*
X102402381Y-65619438D01*
X102402381Y-65619438D02*
X102364285Y-65771819D01*
X102364285Y-65771819D02*
X102326190Y-65848009D01*
X102326190Y-65848009D02*
X102250000Y-65924200D01*
X102250000Y-65924200D02*
X102135714Y-65962295D01*
X102135714Y-65962295D02*
X101945238Y-65962295D01*
X102745238Y-65657533D02*
X103354762Y-65657533D01*
D11*
X97100000Y-65815228D02*
X97071428Y-65843800D01*
X97071428Y-65843800D02*
X96985714Y-65872371D01*
X96985714Y-65872371D02*
X96928571Y-65872371D01*
X96928571Y-65872371D02*
X96842857Y-65843800D01*
X96842857Y-65843800D02*
X96785714Y-65786657D01*
X96785714Y-65786657D02*
X96757143Y-65729514D01*
X96757143Y-65729514D02*
X96728571Y-65615228D01*
X96728571Y-65615228D02*
X96728571Y-65529514D01*
X96728571Y-65529514D02*
X96757143Y-65415228D01*
X96757143Y-65415228D02*
X96785714Y-65358085D01*
X96785714Y-65358085D02*
X96842857Y-65300942D01*
X96842857Y-65300942D02*
X96928571Y-65272371D01*
X96928571Y-65272371D02*
X96985714Y-65272371D01*
X96985714Y-65272371D02*
X97071428Y-65300942D01*
X97071428Y-65300942D02*
X97100000Y-65329514D01*
X97700000Y-65815228D02*
X97671428Y-65843800D01*
X97671428Y-65843800D02*
X97585714Y-65872371D01*
X97585714Y-65872371D02*
X97528571Y-65872371D01*
X97528571Y-65872371D02*
X97442857Y-65843800D01*
X97442857Y-65843800D02*
X97385714Y-65786657D01*
X97385714Y-65786657D02*
X97357143Y-65729514D01*
X97357143Y-65729514D02*
X97328571Y-65615228D01*
X97328571Y-65615228D02*
X97328571Y-65529514D01*
X97328571Y-65529514D02*
X97357143Y-65415228D01*
X97357143Y-65415228D02*
X97385714Y-65358085D01*
X97385714Y-65358085D02*
X97442857Y-65300942D01*
X97442857Y-65300942D02*
X97528571Y-65272371D01*
X97528571Y-65272371D02*
X97585714Y-65272371D01*
X97585714Y-65272371D02*
X97671428Y-65300942D01*
X97671428Y-65300942D02*
X97700000Y-65329514D01*
X97928571Y-65329514D02*
X97957143Y-65300942D01*
X97957143Y-65300942D02*
X98014286Y-65272371D01*
X98014286Y-65272371D02*
X98157143Y-65272371D01*
X98157143Y-65272371D02*
X98214286Y-65300942D01*
X98214286Y-65300942D02*
X98242857Y-65329514D01*
X98242857Y-65329514D02*
X98271428Y-65386657D01*
X98271428Y-65386657D02*
X98271428Y-65443800D01*
X98271428Y-65443800D02*
X98242857Y-65529514D01*
X98242857Y-65529514D02*
X97900000Y-65872371D01*
X97900000Y-65872371D02*
X98271428Y-65872371D01*
D12*
X99445238Y-65962295D02*
X99445238Y-65162295D01*
X99445238Y-65162295D02*
X99635714Y-65162295D01*
X99635714Y-65162295D02*
X99750000Y-65200390D01*
X99750000Y-65200390D02*
X99826190Y-65276580D01*
X99826190Y-65276580D02*
X99864285Y-65352771D01*
X99864285Y-65352771D02*
X99902381Y-65505152D01*
X99902381Y-65505152D02*
X99902381Y-65619438D01*
X99902381Y-65619438D02*
X99864285Y-65771819D01*
X99864285Y-65771819D02*
X99826190Y-65848009D01*
X99826190Y-65848009D02*
X99750000Y-65924200D01*
X99750000Y-65924200D02*
X99635714Y-65962295D01*
X99635714Y-65962295D02*
X99445238Y-65962295D01*
X100245238Y-65657533D02*
X100854762Y-65657533D01*
X100550000Y-65962295D02*
X100550000Y-65352771D01*
D13*
X106622500Y-51332776D02*
X106622500Y-51842224D01*
X105577500Y-51332776D02*
X105577500Y-51842224D01*
X93601000Y-55466250D02*
G75*
G03*
X93601000Y-55466250I-1251000J0D01*
G01*
X96270000Y-64330000D02*
X96270000Y-63000000D01*
X97600000Y-64330000D02*
X96270000Y-64330000D01*
X98870000Y-64330000D02*
X101470000Y-64330000D01*
X98870000Y-64330000D02*
X98870000Y-61670000D01*
X101470000Y-64330000D02*
X101470000Y-61670000D01*
X98870000Y-61670000D02*
X101470000Y-61670000D01*
X106601000Y-55466250D02*
G75*
G03*
X106601000Y-55466250I-1251000J0D01*
G01*
X91120000Y-68863750D02*
X91120000Y-67533750D01*
X92450000Y-68863750D02*
X91120000Y-68863750D01*
X93720000Y-68863750D02*
X106480000Y-68863750D01*
X93720000Y-68863750D02*
X93720000Y-66203750D01*
X106480000Y-68863750D02*
X106480000Y-66203750D01*
X93720000Y-66203750D02*
X106480000Y-66203750D01*
X103500000Y-52041250D02*
X103500000Y-53841250D01*
X103500000Y-49941250D02*
X103500000Y-48791250D01*
X94160000Y-52041250D02*
X94160000Y-53841250D01*
X94160000Y-49941250D02*
X94160000Y-48791250D01*
X92122500Y-51357776D02*
X92122500Y-51867224D01*
X91077500Y-51357776D02*
X91077500Y-51867224D01*
%LPC*%
D14*
X106100000Y-50675000D03*
X106100000Y-52500000D03*
D15*
X92350000Y-55466250D03*
D16*
X93850000Y-60916250D03*
X103850000Y-60916250D03*
D17*
X100140000Y-63000000D03*
D15*
X105350000Y-55466250D03*
D18*
X92450000Y-67533750D03*
D17*
X94990000Y-67533750D03*
X97530000Y-67533750D03*
X100070000Y-67533750D03*
X102610000Y-67533750D03*
X105150000Y-67533750D03*
D19*
X101720000Y-54646250D03*
X95940000Y-54646250D03*
D20*
X102030000Y-55721250D03*
X101230000Y-55721250D03*
D21*
X100080000Y-55721250D03*
X99080000Y-55721250D03*
X98580000Y-55721250D03*
X97580000Y-55721250D03*
D20*
X96430000Y-55721250D03*
X95630000Y-55721250D03*
X95630000Y-55721250D03*
X96430000Y-55721250D03*
D21*
X97080000Y-55721250D03*
X98080000Y-55721250D03*
X99580000Y-55721250D03*
X100580000Y-55721250D03*
D20*
X101230000Y-55721250D03*
X102030000Y-55721250D03*
D22*
X103150000Y-55146250D03*
D23*
X103150000Y-50966250D03*
D22*
X94510000Y-55146250D03*
D23*
X94510000Y-50966250D03*
D14*
X91600000Y-50700000D03*
X91600000Y-52525000D03*
%LPD*%
M02*
